<svg width="268" height="295" viewBox="0 0 268 295" fill="none" xmlns="http://www.w3.org/2000/svg">
<path d="M131.808 34.3703L131.623 35.8587L131.808 34.3703ZM170.173 91.5647C170.485 92.3324 171.359 92.7024 172.127 92.391L184.637 87.3174C185.405 87.006 185.775 86.1313 185.464 85.3636C185.152 84.5959 184.278 84.2259 183.51 84.5373L172.39 89.0472L167.88 77.9269C167.568 77.1592 166.694 76.7893 165.926 77.1006C165.158 77.412 164.788 78.2867 165.1 79.0544L170.173 91.5647ZM72 88.1872C73.4536 88.5575 73.4535 88.5578 73.4535 88.5578C73.4536 88.5575 73.4536 88.5574 73.4537 88.5568C73.454 88.5557 73.4545 88.5537 73.4553 88.5508C73.4568 88.545 73.4592 88.5357 73.4626 88.5228C73.4693 88.4972 73.4797 88.4575 73.4939 88.4043C73.5223 88.2979 73.5659 88.1376 73.625 87.9269C73.7432 87.5056 73.9237 86.8836 74.1698 86.091C74.6622 84.5054 75.4168 82.2394 76.4612 79.5346C78.5523 74.1192 81.7939 66.9743 86.3998 60.016C95.6305 46.071 110.109 33.1744 131.623 35.8587L131.994 32.8818C108.827 29.9911 93.4017 44.0029 83.8982 58.3601C79.1371 65.5529 75.8042 72.9077 73.6626 78.454C72.5906 81.2301 71.8143 83.5606 71.3048 85.2013C71.05 86.0218 70.8618 86.6702 70.7366 87.1162C70.674 87.3393 70.6272 87.5117 70.5956 87.6297C70.5798 87.6888 70.5679 87.7342 70.5597 87.7655C70.5556 87.7812 70.5525 87.7934 70.5503 87.802C70.5492 87.8063 70.5483 87.8097 70.5476 87.8122C70.5473 87.8134 70.547 87.8146 70.5469 87.8153C70.5466 87.8162 70.5464 87.817 72 88.1872ZM131.623 35.8587C146.549 37.7212 156.291 42.1231 162.569 47.5399C168.831 52.943 171.765 59.4566 172.902 65.7824C174.043 72.1343 173.37 78.2974 172.394 82.9031C171.907 85.1997 171.348 87.0923 170.913 88.4057C170.696 89.062 170.51 89.5725 170.379 89.9153C170.314 90.0866 170.263 90.2159 170.229 90.3004C170.212 90.3427 170.2 90.3737 170.192 90.3932C170.188 90.403 170.185 90.4098 170.183 90.4138C170.182 90.4157 170.182 90.417 170.181 90.4174C170.181 90.4177 170.181 90.4175 170.181 90.4176C170.182 90.4173 170.182 90.4167 171.563 91.001C172.945 91.5853 172.945 91.5843 172.946 91.5832C172.946 91.5826 172.947 91.5813 172.947 91.58C172.948 91.5775 172.949 91.5743 172.951 91.5703C172.954 91.5623 172.959 91.5514 172.965 91.5375C172.976 91.5098 172.992 91.4703 173.013 91.4195C173.054 91.3178 173.112 91.1706 173.184 90.9806C173.328 90.6007 173.529 90.0494 173.761 89.3489C174.225 87.9488 174.815 85.948 175.329 83.5253C176.353 78.6926 177.087 72.1137 175.854 65.2518C174.616 58.3637 171.393 51.1915 164.529 45.2685C157.68 39.3592 147.324 34.7946 131.994 32.8818L131.623 35.8587Z" fill="black"/>
<path d="M235.287 64.1244L236.581 63.3658L235.287 64.1244ZM250.373 136.912C250.99 137.464 251.938 137.411 252.491 136.794L261.491 126.732C262.043 126.114 261.991 125.166 261.373 124.614C260.756 124.061 259.807 124.114 259.255 124.731L251.255 133.675L242.311 125.675C241.693 125.123 240.745 125.176 240.193 125.793C239.641 126.411 239.693 127.359 240.311 127.911L250.373 136.912ZM159 22.2046C159.22 23.6884 159.219 23.6885 159.219 23.6885C159.219 23.6885 159.219 23.6886 159.219 23.6885C159.219 23.6885 159.22 23.6883 159.222 23.688C159.226 23.6875 159.232 23.6866 159.242 23.6853C159.26 23.6827 159.29 23.6786 159.331 23.6733C159.413 23.6626 159.539 23.6469 159.708 23.6281C160.045 23.5906 160.55 23.5406 161.208 23.4936C162.524 23.3995 164.448 23.3171 166.852 23.3682C171.661 23.4705 178.377 24.1071 185.973 26.2457C201.138 30.5149 219.864 40.7795 233.993 64.8829L236.581 63.3658C222.007 38.5023 202.589 27.807 186.786 23.358C178.899 21.1375 171.925 20.4755 166.915 20.3689C164.41 20.3156 162.392 20.4012 160.994 20.5012C160.294 20.5512 159.749 20.6049 159.375 20.6466C159.188 20.6675 159.044 20.6854 158.944 20.6984C158.894 20.7049 158.855 20.7102 158.828 20.714C158.814 20.7159 158.803 20.7174 158.795 20.7186C158.791 20.7191 158.788 20.7196 158.786 20.72C158.784 20.7201 158.783 20.7203 158.782 20.7204C158.781 20.7206 158.78 20.7207 159 22.2046ZM233.993 64.8829C240.518 76.0145 244.509 93.6781 246.859 108.74C248.029 116.236 248.783 123.026 249.245 127.942C249.476 130.399 249.634 132.386 249.734 133.758C249.784 134.444 249.819 134.975 249.842 135.335C249.853 135.514 249.862 135.651 249.867 135.742C249.87 135.788 249.872 135.822 249.873 135.844C249.874 135.856 249.874 135.864 249.875 135.869C249.875 135.872 249.875 135.874 249.875 135.875C249.875 135.876 249.875 135.876 249.875 135.877C249.875 135.877 249.875 135.877 251.373 135.794C252.87 135.71 252.87 135.71 252.87 135.709C252.87 135.709 252.87 135.708 252.87 135.707C252.87 135.705 252.87 135.703 252.87 135.7C252.87 135.693 252.869 135.684 252.868 135.672C252.867 135.647 252.865 135.611 252.862 135.563C252.856 135.468 252.848 135.327 252.836 135.144C252.812 134.776 252.776 134.235 252.726 133.54C252.625 132.15 252.465 130.141 252.232 127.661C251.766 122.701 251.005 115.849 249.824 108.277C247.472 93.2044 243.42 75.0334 236.581 63.3658L233.993 64.8829Z" fill="black"/>
<path d="M16.4142 204.172C15.6332 203.391 14.3668 203.391 13.5858 204.172L0.857864 216.9C0.0768156 217.681 0.0768156 218.947 0.857864 219.728C1.63891 220.509 2.90524 220.509 3.68629 219.728L15 208.414L26.3137 219.728C27.0948 220.509 28.3611 220.509 29.1421 219.728C29.9232 218.947 29.9232 217.681 29.1421 216.9L16.4142 204.172ZM17 294.35L17 205.586H13L13 294.35H17Z" fill="black"/>
</svg>
