<svg width="255" height="310" viewBox="0 0 255 310" fill="none" xmlns="http://www.w3.org/2000/svg">
<path d="M184 2.52691L184.186 1.03846L184 2.52691ZM239.11 83.5908C239.421 84.3585 240.296 84.7284 241.064 84.417L253.574 79.3424C254.341 79.031 254.711 78.1563 254.4 77.3886C254.089 76.6209 253.214 76.2511 252.446 76.5625L241.326 81.0732L236.815 69.9532C236.504 69.1855 235.629 68.8157 234.862 69.1271C234.094 69.4385 233.724 70.3132 234.035 71.0809L239.11 83.5908ZM99 79.0273C100.454 79.3975 100.454 79.3977 100.454 79.3975C100.454 79.3971 100.454 79.3966 100.454 79.3957C100.455 79.3938 100.455 79.3907 100.456 79.3862C100.459 79.3774 100.462 79.3635 100.467 79.3447C100.477 79.307 100.492 79.2494 100.513 79.1725C100.554 79.0189 100.616 78.7884 100.701 78.4863C100.871 77.8823 101.129 76.9924 101.48 75.8599C102.184 73.5944 103.261 70.3597 104.751 66.4999C107.733 58.7743 112.36 48.5737 118.938 38.6331C132.115 18.7234 152.891 0.156112 183.814 4.01536L184.186 1.03846C151.609 -3.02726 129.885 16.6557 116.437 36.9774C109.703 47.1525 104.985 57.5629 101.952 65.4194C100.435 69.3506 99.3358 72.6498 98.6153 74.9703C98.255 76.1308 97.9892 77.047 97.8127 77.6758C97.7245 77.9902 97.6586 78.2328 97.6145 78.3981C97.5924 78.4808 97.5757 78.5442 97.5644 78.5875C97.5587 78.6092 97.5544 78.6259 97.5514 78.6376C97.5499 78.6434 97.5487 78.6479 97.5479 78.6512C97.5475 78.6528 97.5471 78.6543 97.5469 78.6551C97.5466 78.6563 97.5464 78.6571 99 79.0273ZM183.814 4.01536C205.113 6.67346 219.087 12.9649 228.129 20.7687C237.156 28.5587 241.387 37.9565 243.024 47.0671C244.665 56.2038 243.696 65.0523 242.298 71.6472C241.601 74.9383 240.8 77.6514 240.176 79.5367C239.864 80.4789 239.596 81.2132 239.408 81.7083C239.314 81.9558 239.24 82.1433 239.19 82.2671C239.165 82.329 239.147 82.3749 239.134 82.4043C239.128 82.4191 239.124 82.4297 239.121 82.4361C239.12 82.4393 239.119 82.4415 239.119 82.4426C239.118 82.4432 239.118 82.4432 239.118 82.4435C239.118 82.4433 239.118 82.4428 240.5 83.027C241.882 83.6112 241.882 83.6102 241.883 83.6089C241.883 83.6081 241.884 83.6066 241.884 83.605C241.885 83.6019 241.887 83.5977 241.889 83.5925C241.894 83.582 241.9 83.5673 241.908 83.5484C241.923 83.5108 241.945 83.4564 241.974 83.386C242.03 83.2451 242.111 83.0396 242.213 82.7734C242.415 82.2413 242.697 81.4662 243.024 80.4798C243.677 78.5078 244.509 75.6865 245.233 72.2692C246.679 65.4474 247.71 56.1832 245.976 46.5366C244.238 36.8638 239.719 26.8074 230.089 18.4975C220.476 10.2012 205.887 3.74688 184.186 1.03846L183.814 4.01536Z" fill="black"/>
<path d="M16.4142 180.639C15.6332 179.857 14.3668 179.857 13.5858 180.639L0.857864 193.366C0.0768156 194.147 0.0768156 195.414 0.857864 196.195C1.63891 196.976 2.90524 196.976 3.68629 196.195L15 184.881L26.3137 196.195C27.0948 196.976 28.3611 196.976 29.1421 196.195C29.9232 195.414 29.9232 194.147 29.1421 193.366L16.4142 180.639ZM17 309.053L17 182.053H13L13 309.053H17Z" fill="black"/>
</svg>
