<svg width="81" height="87" viewBox="0 0 81 87" fill="none" xmlns="http://www.w3.org/2000/svg">
<path d="M28.4173 27.2571L27.5304 26.0474L28.4173 27.2571ZM80.7153 10.8777C81.1991 10.2053 81.0462 9.2679 80.3737 8.78409L69.4152 0.899838C68.7427 0.416019 67.8054 0.568953 67.3216 1.24142C66.8377 1.91389 66.9907 2.85124 67.6631 3.33506L77.404 10.3433L70.3958 20.0842C69.912 20.7566 70.0649 21.694 70.7374 22.1778C71.4099 22.6616 72.3472 22.5087 72.831 21.8362L80.7153 10.8777ZM3.38931 85.8915C4.84361 85.524 4.84377 85.5247 4.8439 85.5252C4.8439 85.5252 4.844 85.5256 4.84401 85.5256C4.84401 85.5256 4.84388 85.5251 4.84363 85.5241C4.84313 85.5221 4.84213 85.5181 4.84066 85.512C4.8377 85.4999 4.83283 85.4796 4.82625 85.4515C4.81309 85.3952 4.79306 85.3073 4.76771 85.1892C4.71699 84.9527 4.645 84.5952 4.56399 84.1271C4.40194 83.1907 4.20407 81.8132 4.06815 80.0785C3.79615 76.6072 3.77326 71.7187 4.77435 66.0786C6.77132 54.8279 12.8484 40.5317 29.3042 28.4669L27.5304 26.0474C10.3706 38.6284 3.93363 53.6493 1.82052 65.5543C0.766573 71.4921 0.789616 76.6412 1.07731 80.3129C1.22124 82.1497 1.43166 83.6201 1.60793 84.6387C1.69609 85.1481 1.77577 85.5449 1.83443 85.8184C1.86377 85.9551 1.88786 86.0611 1.90514 86.135C1.91378 86.1719 1.92072 86.2008 1.92577 86.2215C1.92829 86.2319 1.93034 86.2402 1.93188 86.2464C1.93266 86.2496 1.93331 86.2522 1.93383 86.2542C1.93409 86.2553 1.93439 86.2565 1.93452 86.257C1.93478 86.258 1.93501 86.2589 3.38931 85.8915ZM29.3042 28.4669C36.8816 22.9114 49.4048 18.6537 60.2128 15.7757C65.5831 14.3457 70.4702 13.2713 74.0147 12.5544C75.7864 12.1961 77.2211 11.9274 78.2113 11.7486C78.7064 11.6592 79.0902 11.5923 79.3494 11.5478C79.479 11.5256 79.5774 11.5091 79.6429 11.4981C79.6757 11.4926 79.7002 11.4885 79.7163 11.4859C79.7244 11.4846 79.7303 11.4836 79.7342 11.4829C79.7361 11.4826 79.7375 11.4824 79.7383 11.4823C79.7387 11.4822 79.7389 11.4822 79.7392 11.4821C79.7392 11.4821 79.7392 11.4821 79.4977 10.0017C79.2561 8.52127 79.2558 8.52132 79.2554 8.5214C79.255 8.52145 79.2545 8.52155 79.2538 8.52165C79.2525 8.52187 79.2506 8.52217 79.2482 8.52256C79.2435 8.52335 79.2366 8.52449 79.2275 8.52598C79.2095 8.52896 79.183 8.53336 79.1482 8.53916C79.0787 8.55078 78.9763 8.56806 78.8425 8.59098C78.5751 8.63683 78.1824 8.7053 77.6782 8.79636C76.6697 8.97848 75.2143 9.25105 73.42 9.61394C69.8325 10.3395 64.8842 11.4273 59.4408 12.8768C48.6215 15.7577 35.6045 20.1278 27.5304 26.0474L29.3042 28.4669Z" fill="black"/>
</svg>
