<svg width="227" height="140" viewBox="0 0 227 140" fill="none" xmlns="http://www.w3.org/2000/svg">
<path d="M24.1401 50.9322C23.55 49.9984 22.3147 49.7199 21.3809 50.3099L6.1648 59.926C5.23106 60.5161 4.95248 61.7514 5.54257 62.6852C6.13266 63.6189 7.36797 63.8975 8.30171 63.3074L21.8272 54.7598L30.3748 68.2852C30.9649 69.219 32.2002 69.4975 33.1339 68.9075C34.0677 68.3174 34.3462 67.0821 33.7562 66.1483L24.1401 50.9322ZM4.87581 139.018L24.4004 52.4406L20.4984 51.5606L0.973801 138.138L4.87581 139.018Z" fill="black"/>
<path d="M213.649 53.4319L212.217 53.8774L213.649 53.4319ZM211.977 110.572C212.453 111.25 213.389 111.413 214.067 110.937L225.114 103.178C225.792 102.701 225.955 101.766 225.479 101.088C225.003 100.41 224.067 100.247 223.389 100.723L213.57 107.62L206.672 97.8006C206.196 97.1227 205.261 96.9592 204.583 97.4354C203.905 97.9116 203.741 98.8471 204.217 99.525L211.977 110.572ZM164 8.89822C163.878 10.3932 163.877 10.3932 163.877 10.3931C163.877 10.3931 163.876 10.3931 163.876 10.3931C163.876 10.3931 163.877 10.3931 163.878 10.3932C163.88 10.3934 163.885 10.3938 163.892 10.3944C163.905 10.3956 163.927 10.3977 163.957 10.4007C164.018 10.4068 164.113 10.4168 164.24 10.4318C164.493 10.4617 164.875 10.5116 165.369 10.59C166.358 10.7468 167.797 11.0174 169.571 11.4702C173.119 12.3761 177.992 14.0079 183.258 16.9063C193.765 22.6888 205.89 33.5342 212.217 53.8774L215.081 52.9865C208.493 31.8019 195.793 20.3804 184.705 14.278C179.173 11.234 174.055 9.51878 170.313 8.56338C168.44 8.08543 166.909 7.7968 165.839 7.627C165.303 7.54209 164.883 7.48684 164.592 7.45247C164.446 7.43529 164.333 7.42332 164.254 7.41548C164.215 7.41155 164.184 7.40866 164.162 7.40666C164.151 7.40567 164.142 7.40489 164.136 7.40432C164.132 7.40404 164.13 7.4038 164.127 7.40362C164.126 7.40353 164.125 7.40342 164.124 7.40338C164.123 7.40329 164.122 7.40321 164 8.89822ZM212.217 53.8774C215.131 63.2485 215.048 77.064 214.186 88.7109C213.757 94.4993 213.142 99.69 212.633 103.434C212.379 105.305 212.152 106.813 211.989 107.852C211.907 108.371 211.841 108.773 211.796 109.044C211.773 109.18 211.756 109.282 211.744 109.351C211.739 109.385 211.734 109.411 211.731 109.428C211.73 109.436 211.729 109.442 211.728 109.446C211.728 109.448 211.727 109.45 211.727 109.451C211.727 109.451 211.727 109.451 211.727 109.452C211.727 109.452 211.727 109.452 213.205 109.71C214.682 109.968 214.682 109.968 214.682 109.967C214.682 109.967 214.683 109.966 214.683 109.966C214.683 109.964 214.683 109.962 214.684 109.96C214.684 109.955 214.686 109.948 214.687 109.938C214.691 109.92 214.695 109.892 214.702 109.856C214.714 109.783 214.732 109.676 214.755 109.537C214.802 109.257 214.869 108.846 214.952 108.318C215.118 107.261 215.349 105.732 215.606 103.837C216.12 100.05 216.743 94.7966 217.178 88.9324C218.041 77.2742 218.18 62.9508 215.081 52.9865L212.217 53.8774Z" fill="black"/>
</svg>
