<svg width="200" height="256" viewBox="0 0 200 256" fill="none" xmlns="http://www.w3.org/2000/svg">
<path d="M120.5 2.49784L120.597 3.99473L120.5 2.49784ZM199.05 23.394C199.821 23.0904 200.199 22.2194 199.896 21.4486L194.948 8.88807C194.644 8.11729 193.773 7.73859 193.003 8.04222C192.232 8.34585 191.853 9.21683 192.157 9.98761L196.555 21.1526L185.39 25.5507C184.619 25.8544 184.24 26.7253 184.544 27.4961C184.848 28.2669 185.719 28.6456 186.489 28.342L199.05 23.394ZM42.0002 56.4984C43.4247 56.9685 43.4245 56.9691 43.4244 56.9694C43.4244 56.9693 43.4244 56.9695 43.4244 56.9693C43.4246 56.9688 43.425 56.9675 43.4257 56.9655C43.427 56.9615 43.4294 56.9545 43.4328 56.9445C43.4395 56.9246 43.4504 56.8929 43.4655 56.8498C43.4956 56.7636 43.5426 56.6316 43.6073 56.4568C43.7368 56.1073 43.937 55.5868 44.2152 54.9185C44.7715 53.5817 45.6388 51.6553 46.8727 49.3253C49.3416 44.6635 53.2721 38.3982 59.1077 32.0096C70.759 19.2543 90.0364 5.9661 120.597 3.99473L120.404 1.00096C88.9641 3.02904 68.9915 16.7411 56.8927 29.9863C50.8534 36.5979 46.7839 43.0828 44.2215 47.9212C42.9399 50.3413 42.0337 52.3525 41.4455 53.7658C41.1513 54.4725 40.9366 55.0301 40.794 55.415C40.7228 55.6074 40.6696 55.7567 40.6335 55.8599C40.6154 55.9115 40.6017 55.9516 40.5921 55.9798C40.5873 55.9939 40.5836 56.005 40.5809 56.0131C40.5795 56.0172 40.5784 56.0205 40.5776 56.023C40.5771 56.0243 40.5767 56.0256 40.5765 56.0263C40.5761 56.0274 40.5758 56.0284 42.0002 56.4984ZM120.597 3.99473C134.72 3.08365 153.98 7.87169 169.867 12.9779C177.776 15.5202 184.79 18.1213 189.827 20.0869C192.345 21.0695 194.367 21.8928 195.758 22.4697C196.454 22.7582 196.991 22.985 197.354 23.1393C197.536 23.2165 197.674 23.2756 197.766 23.3151C197.812 23.3349 197.846 23.3498 197.869 23.3597C197.881 23.3646 197.889 23.3683 197.895 23.3707C197.897 23.3719 197.899 23.3728 197.901 23.3733C197.901 23.3736 197.902 23.3738 197.902 23.3739C197.902 23.374 197.902 23.374 198.5 21.9984C199.098 20.6228 199.098 20.6227 199.097 20.6224C199.097 20.6222 199.096 20.6219 199.095 20.6216C199.094 20.6208 199.091 20.6197 199.088 20.6183C199.082 20.6156 199.072 20.6115 199.06 20.6062C199.035 20.5955 198.999 20.5798 198.951 20.5592C198.855 20.5181 198.714 20.4574 198.528 20.3786C198.158 20.2209 197.612 19.9906 196.907 19.6985C195.499 19.1145 193.457 18.2833 190.918 17.2922C185.84 15.3106 178.766 12.6874 170.785 10.1218C154.888 5.01213 135.147 0.0498822 120.404 1.00096L120.597 3.99473Z" fill="black"/>
<path d="M16.798 127.534C16.017 126.753 14.7506 126.753 13.9696 127.534L1.24165 140.262C0.460605 141.043 0.460605 142.31 1.24165 143.091C2.0227 143.872 3.28903 143.872 4.07008 143.091L15.3838 131.777L26.6975 143.091C27.4785 143.872 28.7449 143.872 29.5259 143.091C30.307 142.31 30.307 141.043 29.5259 140.262L16.798 127.534ZM17.3838 255.932L17.3838 128.949H13.3838L13.3838 255.932H17.3838Z" fill="black"/>
</svg>
