<svg width="375" height="204" viewBox="0 0 375 204" fill="none" xmlns="http://www.w3.org/2000/svg">
<path d="M45.0812 107.356L46.3634 108.135L45.0812 107.356ZM107.208 54.9443C107.4 54.1386 106.903 53.3292 106.098 53.1365L92.9678 49.9965C92.1621 49.8038 91.3527 50.3008 91.16 51.1065C90.9674 51.9122 91.4643 52.7215 92.27 52.9142L103.941 55.7054L101.15 67.3762C100.957 68.182 101.454 68.9913 102.26 69.184C103.065 69.3767 103.875 68.8797 104.067 68.074L107.208 54.9443ZM44.3723 202.634C45.5736 201.736 45.5739 201.736 45.5742 201.737C45.5741 201.736 45.5742 201.737 45.574 201.736C45.5737 201.736 45.5729 201.735 45.5717 201.733C45.5692 201.73 45.5648 201.724 45.5586 201.715C45.5461 201.699 45.5264 201.671 45.4996 201.634C45.4462 201.56 45.365 201.446 45.2588 201.293C45.0465 200.987 44.7345 200.524 44.3461 199.913C43.5692 198.692 42.487 196.877 41.2841 194.531C38.8774 189.837 35.9938 183.026 34.1004 174.583C30.3203 157.726 30.4721 134.313 46.3634 108.135L43.799 106.578C27.4505 133.509 27.2478 157.735 31.1731 175.239C33.1326 183.977 36.1166 191.028 38.6145 195.9C39.8639 198.337 40.9932 200.232 41.8146 201.523C42.2254 202.169 42.5594 202.665 42.7932 203.002C42.9101 203.171 43.002 203.3 43.0659 203.389C43.0979 203.433 43.1229 203.467 43.1405 203.491C43.1493 203.503 43.1563 203.513 43.1614 203.519C43.1639 203.523 43.166 203.526 43.1676 203.528C43.1684 203.529 43.1692 203.53 43.1696 203.531C43.1704 203.531 43.1709 203.532 44.3723 202.634ZM46.3634 108.135C53.7077 96.0365 68.6656 82.9932 81.9516 72.8973C88.5665 67.8707 94.7167 63.6117 99.2132 60.6095C101.461 59.1087 103.294 57.9228 104.564 57.113C105.199 56.7081 105.693 56.3973 106.027 56.1881C106.195 56.0836 106.322 56.0045 106.407 55.9517C106.45 55.9254 106.482 55.9056 106.503 55.8926C106.513 55.886 106.521 55.8812 106.526 55.878C106.529 55.8765 106.531 55.8753 106.532 55.8746C106.533 55.8742 106.533 55.874 106.533 55.8738C106.533 55.8737 106.534 55.8737 105.749 54.5954C104.964 53.3171 104.963 53.3173 104.963 53.3176C104.963 53.3179 104.962 53.3183 104.961 53.3188C104.959 53.3198 104.957 53.3212 104.954 53.323C104.948 53.3267 104.94 53.332 104.928 53.3391C104.905 53.3532 104.872 53.374 104.827 53.4014C104.739 53.4563 104.608 53.5376 104.437 53.6444C104.095 53.858 103.594 54.1736 102.951 54.5835C101.665 55.4034 99.8144 56.6008 97.5473 58.1145C93.0142 61.1412 86.812 65.4361 80.1365 70.5087C66.8415 80.6115 51.4656 93.9487 43.799 106.578L46.3634 108.135Z" fill="black"/>
<path d="M303.693 32.1001L303.171 33.5064L303.693 32.1001ZM366.906 83.1963C367.734 83.2332 368.435 82.5922 368.471 81.7646L369.072 68.2779C369.109 67.4503 368.468 66.7495 367.641 66.7127C366.813 66.6758 366.112 67.3168 366.075 68.1444L365.541 80.1325L353.553 79.5983C352.725 79.5614 352.025 80.2024 351.988 81.0301C351.951 81.8577 352.592 82.5585 353.419 82.5953L366.906 83.1963ZM210 49.418C211.109 50.4278 211.109 50.4282 211.108 50.4285C211.108 50.4284 211.108 50.4286 211.109 50.4284C211.109 50.428 211.11 50.427 211.111 50.4255C211.114 50.4224 211.119 50.4169 211.126 50.4092C211.14 50.3938 211.163 50.3693 211.195 50.3361C211.257 50.2696 211.354 50.1682 211.484 50.035C211.745 49.7686 212.14 49.3749 212.666 48.878C213.719 47.884 215.296 46.4783 217.373 44.8535C221.527 41.6027 227.67 37.4834 235.603 34.0279C251.441 27.1287 274.461 22.8511 303.171 33.5064L304.215 30.6938C274.678 19.732 250.851 24.1134 234.405 31.2775C226.195 34.8536 219.836 39.1169 215.524 42.4909C213.367 44.1785 211.72 45.6456 210.607 46.6965C210.05 47.222 209.627 47.6437 209.34 47.937C209.196 48.0837 209.087 48.1983 209.012 48.2779C208.975 48.3177 208.946 48.3487 208.925 48.3705C208.915 48.3814 208.907 48.3901 208.902 48.3964C208.899 48.3995 208.896 48.4021 208.894 48.4041C208.894 48.405 208.893 48.4061 208.892 48.4066C208.891 48.4075 208.891 48.4082 210 49.418ZM303.171 33.5064C316.44 38.4307 332.076 50.6527 344.502 61.7903C350.688 67.3355 356.033 72.5695 359.832 76.4173C361.73 78.3408 363.241 79.9167 364.277 81.0106C364.794 81.5575 365.193 81.9838 365.462 82.2727C365.596 82.4171 365.698 82.5272 365.765 82.6008C365.799 82.6376 365.825 82.6653 365.842 82.6836C365.85 82.6928 365.856 82.6996 365.86 82.7041C365.862 82.7063 365.864 82.7079 365.865 82.7089C365.865 82.7094 365.866 82.7097 365.866 82.71C365.866 82.7102 365.866 82.7102 366.973 81.6978C368.08 80.6854 368.079 80.6851 368.079 80.6847C368.079 80.6843 368.078 80.6837 368.078 80.6831C368.076 80.6817 368.074 80.6797 368.072 80.6771C368.067 80.672 368.06 80.6644 368.051 80.6546C368.033 80.6348 368.006 80.6056 367.971 80.5673C367.901 80.4907 367.796 80.3776 367.659 80.23C367.384 79.9349 366.98 79.5021 366.456 78.9484C365.407 77.841 363.882 76.2498 361.967 74.3098C358.137 70.4306 352.747 65.1523 346.504 59.5563C334.07 48.4112 318.066 35.8344 304.215 30.6938L303.171 33.5064Z" fill="black"/>
</svg>
