<svg width="1440" height="638" viewBox="0 0 1440 638" fill="none" xmlns="http://www.w3.org/2000/svg">
<path fill-rule="evenodd" clip-rule="evenodd" d="M525.632 359.693L519.197 357.946C462.425 357.697 406.533 357.509 352.909 358.757C352.676 363.471 352.215 367.766 351.525 371.641L375.006 376.484C382.477 378.024 387.506 377.979 390.092 376.348C392.685 374.582 394.291 370.787 394.911 364.962C397.432 364.805 401.271 365.258 406.43 366.322C405.656 371.575 405.038 379.362 404.575 389.684C404.25 396.958 404.11 403.132 404.157 408.207C433.665 414.11 471.034 422.355 516.265 432.941C529.255 435.898 538.305 437.499 543.415 437.745C548.857 438.081 553.167 436.539 556.346 433.121C561.133 427.855 564.179 420.118 565.484 409.91C567.071 397.495 566.283 387.575 563.119 380.15C561.294 375.658 557.654 371.958 552.199 369.049C546.744 366.14 537.888 363.022 525.632 359.693ZM392.289 405.877C391.251 405.677 390.223 405.481 389.208 405.288C358.083 399.405 331.602 396.067 309.766 395.276C288.297 394.298 271.201 396.65 258.478 402.33L263.564 362.556C269.799 362.145 276.081 361.767 282.407 361.42C281.762 373.089 281.125 382.031 280.496 388.247C285.477 389.274 289.316 389.728 292.015 389.608C292.201 385.452 293.937 382.766 297.223 381.549C300.687 380.37 306.866 380.697 315.76 382.531L370.193 393.756C379.087 395.59 385.093 397.776 388.211 400.313C390.212 401.876 391.572 403.73 392.289 405.877ZM342.126 359.029C328.359 359.403 314.749 359.879 301.321 360.481C303.728 361.515 307.033 362.466 311.234 363.333L341.119 369.495C341.578 366.978 341.914 363.489 342.126 359.029ZM1113.07 294.208C1105.46 297.293 1097.74 300.23 1089.89 303.027C1089.82 303.192 1089.77 303.362 1089.74 303.539C1089.49 304.541 1089.88 306.217 1090.92 308.568L1104.04 338.326C1105.08 340.676 1106.09 342.173 1107.06 342.816C1107.97 343.425 1109.26 343.506 1110.9 343.058C1111.39 343.649 1111.94 344.625 1112.54 345.989C1110.43 346.539 1107.97 347.288 1105.16 348.236C1102.72 349.062 1100.32 349.953 1097.97 350.907C1097.37 349.543 1097.03 348.499 1096.94 347.773C1098.5 347.137 1099.41 346.318 1099.66 345.315C1099.85 344.279 1099.42 342.586 1098.38 340.236L1092.38 326.626C1089.07 327.475 1082.9 329.424 1073.87 332.472L1080.03 346.434C1081.06 348.784 1082.07 350.281 1083.04 350.924C1083.96 351.534 1085.24 351.614 1086.89 351.166C1087.38 351.757 1087.92 352.734 1088.52 354.097C1086.42 354.647 1083.96 355.396 1081.15 356.344C1078.7 357.171 1076.3 358.061 1073.96 359.015C1073.36 357.652 1073.01 356.607 1072.92 355.881C1074.48 355.245 1075.39 354.426 1075.64 353.424C1075.83 352.388 1075.41 350.695 1074.37 348.344L1061.24 318.587C1060.21 316.236 1059.23 314.756 1058.32 314.147C1057.99 313.933 1057.63 313.779 1057.23 313.686C1050.18 315.786 1043.05 317.789 1035.85 319.698C1037.81 328.169 1040.84 337.05 1044.94 346.342C1053.99 366.86 1064.35 382.05 1076 391.913C1087.66 401.776 1099.64 404.632 1111.94 400.48C1125.08 396.042 1132.44 385.654 1134 369.315C1135.24 352.798 1130.34 332.029 1119.3 307.007C1117.3 302.468 1115.22 298.202 1113.07 294.208ZM1002.46 327.776C1004.47 335.72 1007.36 343.986 1011.15 352.575C1018.66 369.59 1028.46 383.815 1040.57 395.251C1052.47 406.758 1065.64 414.529 1080.09 418.564C1094.32 422.67 1108.44 422.361 1122.43 417.637C1136.85 412.769 1147.86 404.882 1155.47 393.975C1162.98 382.819 1166.71 369.482 1166.69 353.966C1166.67 338.451 1162.74 321.81 1154.9 304.045C1151.27 295.823 1147.08 288.243 1142.32 281.303C1164.92 270.473 1186.23 258.134 1206.04 244.076L1256.5 310.031C1263.02 318.549 1266.43 325.069 1266.76 329.591C1266.8 334.046 1264.07 338.523 1258.55 343.021C1259.65 345.926 1262.09 349.848 1265.87 354.789C1273.02 348.963 1280.37 343.288 1287.92 337.766L1284.66 341.453C1276.76 350.373 1269.87 355.055 1263.98 355.499C1258.02 355.567 1250.53 351.826 1241.49 344.277L1237.24 340.423C1231.92 339.778 1227.44 341.506 1223.81 345.609C1216.7 359.417 1204.54 376.043 1187.33 395.487C1190.19 399.363 1192.82 402.388 1195.21 404.562C1197.61 406.736 1201.09 409.245 1205.65 412.089C1219 396.55 1233.49 382.841 1249.12 370.961C1253.13 374.429 1260.03 380.562 1269.83 389.358C1248.18 408.448 1219.42 428.259 1185.11 447.988C1184.68 433.979 1178.3 420.223 1165.95 406.722C1158.08 407.916 1151.49 411.435 1146.19 417.277C1155.83 430.876 1161.05 442.714 1161.86 452.79C1162.05 455.697 1161.84 458.507 1161.25 461.219C1146.57 469.072 1131.06 476.884 1114.82 484.603C1107.45 481.211 1099.51 475.413 1091.01 467.207C1089.77 467.987 1088.22 469.209 1086.38 470.874C1081.63 475.173 1078.59 479.664 1077.27 484.346C1081.45 488.91 1085.74 492.795 1090.14 496C1056.53 511.102 1020.21 525.738 981.969 539.506C980.133 535.034 978.75 531.04 977.82 527.522C971.987 526.188 966.084 525.586 960.11 525.717C954.136 525.848 948.981 526.648 944.644 528.115C936.884 530.741 931.982 535.392 929.938 542.07C928.648 546.287 928.696 551.311 930.082 557.143C930.09 557.178 930.098 557.212 930.107 557.247C913.581 562.612 896.78 567.797 879.761 572.773C876.705 562.096 874.363 553.188 872.735 546.049C868.694 546.657 865.716 547.556 863.8 548.748C865.348 554.116 865.172 558.208 863.272 561.023C861.229 563.859 856.599 565.82 849.383 566.906L805.221 573.547C798.005 574.633 792.749 574.158 789.453 572.125C786.012 570.113 783.518 566.423 781.971 561.055C779.556 560.514 776.329 560.548 772.288 561.156C775.739 571.661 779.506 583.95 783.588 598.023C771.485 600.841 759.327 603.536 747.132 606.099C742.763 600.318 738.001 594.983 732.847 590.095C719.623 577.397 705.32 568.808 689.938 564.327C674.327 559.924 659.086 560.233 644.215 565.254C620.192 573.365 605.21 588.565 599.27 610.855C597.555 617.074 596.578 623.562 596.34 630.319C587.516 631.274 578.71 632.14 569.929 632.913C573.31 624.721 579.213 612.596 587.641 596.539C596.697 579.284 604.772 565.105 611.865 554.003C602.879 548.604 595.631 545.122 590.12 543.556C585.801 551.786 579.778 556.024 572.051 556.269C564.002 556.322 551.955 551.528 535.909 541.887L437.706 482.882C421.659 473.24 411.723 464.826 407.897 457.638C403.75 450.258 403.836 442.453 408.155 434.224C406.022 432.037 403.236 429.693 399.795 427.19C431.841 433.079 469.504 441.39 512.785 452.121C525.739 455.354 534.814 458.104 540.008 460.371C545.202 462.638 548.677 466.293 550.431 471.337C552.552 476.195 553.457 483.863 553.145 494.341C557.607 496.98 564.641 499.603 574.247 502.212C575.546 484.01 579.459 449.389 585.986 398.35C587.903 383.355 589.674 369.968 591.299 358.188L591.344 358.188L619.315 421.681C622.942 429.915 624.443 435.842 623.817 439.459C622.981 442.959 619.875 445.807 614.501 448.002C614.826 450.541 616.041 454.199 618.145 458.975C626.208 455.682 634.447 452.612 642.865 449.767C652.525 446.501 660.982 443.926 668.238 442.041C666.134 437.265 664.229 433.84 662.523 431.768C656.858 433.304 652.443 432.999 649.278 430.852C645.902 428.588 642.4 423.338 638.772 415.103L613.695 358.179C628.883 358.151 644.08 358.074 659.258 357.922C659.694 358.744 660.123 359.55 660.547 360.341C668.536 375.238 676.2 387.596 683.538 397.415C690.665 407.116 697.812 414.161 704.978 418.551C714.039 424.003 722.433 425.423 730.161 422.81C733.196 421.784 735.771 420.251 737.885 418.212C739.999 416.173 741.489 414.155 742.354 412.16C741.897 410.044 740.98 407.421 739.601 404.292C738.005 400.668 736.205 397.303 734.202 394.195C729.946 396.77 725.885 398.71 722.022 400.016C717.33 401.602 713.172 402.062 709.549 401.394C705.715 400.609 701.961 398.567 698.288 395.267C691.435 389.068 683.709 378.908 675.109 364.784C673.788 362.651 672.399 360.319 670.941 357.79C705.754 357.35 740.439 356.48 774.683 354.872C775.966 358.373 776.473 361.075 776.205 362.975C775.741 365.495 773.283 367.508 768.832 369.014C770.582 372.99 772.312 376.028 774.023 378.127C777.111 377.397 780.81 377.012 785.119 376.971C789.368 376.794 793.11 377.103 796.344 377.899C797.526 376.711 798.158 375.316 798.239 373.713C798.26 371.973 797.396 369.116 795.646 365.14C795.042 363.769 794.083 361.888 792.769 359.497C795.653 362.774 799.012 365.34 802.843 367.194C809.346 370.349 816.306 370.672 823.724 368.162C830.572 365.845 835.091 362.11 837.282 356.959C838.053 355.058 838.473 353.037 838.541 350.896C843.441 350.508 848.326 350.1 853.198 349.672L941.573 436.395L810.667 420.649C809.603 424.846 808.11 429.534 806.188 434.712C804.615 438.948 802.743 443.322 800.574 447.833C803.948 449.402 807.08 450.514 809.969 451.167C811.455 447.166 813.786 444.662 816.962 443.655C820.095 442.766 824.614 443.694 830.519 446.44C832.768 447.486 834.504 448.362 835.725 449.068L910.759 491.411C917.57 495.268 922.698 498.55 926.144 501.257C929.45 503.898 931.57 506.402 932.505 508.768C933.44 511.135 933.523 513.796 932.756 516.751C934.927 518.451 937.911 520.183 941.707 521.948C943.295 516.339 945.706 509.18 948.939 500.471C952.042 492.116 954.918 485.036 957.568 479.23C954.194 477.661 951.04 476.609 948.107 476.073C945.884 480.283 943.575 482.728 941.179 483.408C938.784 484.088 935.126 483.284 930.205 480.996C927.393 479.689 923.944 477.878 919.858 475.563L849.885 435.574L968.893 448.064C970.62 446.521 972.008 444.338 973.056 441.513L881.623 350.765L951.413 376.594C955.761 378.202 959.482 379.725 962.575 381.163C969.042 384.17 973.213 387.145 975.088 390.087C976.779 393.081 977.027 396.854 975.832 401.404C978.003 403.104 980.917 404.803 984.572 406.503C986.248 400.658 988.375 394.264 990.953 387.321C993.531 380.378 995.926 374.592 998.14 369.963C994.625 368.329 991.493 367.217 988.744 366.629C987.099 369.728 985.175 371.801 982.973 372.847C980.771 373.893 977.457 373.939 973.031 372.984C968.42 372.082 961.695 369.99 952.857 366.709L896.299 345.263C932.853 340.968 968.387 335.283 1002.46 327.776ZM945.188 552.276C944.746 549.873 944.716 547.675 945.099 545.682C946.028 540.642 948.661 537.389 952.997 535.921C958.133 534.184 963.016 535.446 967.645 539.708C968.872 540.876 970.034 542.096 971.131 543.366C962.572 546.382 953.922 549.353 945.188 552.276ZM797.045 353.71C804.511 353.283 811.952 352.817 819.365 352.31C819.358 352.339 819.35 352.367 819.342 352.396C818.488 355.52 816.635 357.565 813.782 358.531C811.157 359.419 808.079 359.279 804.549 358.11C802.076 357.291 799.574 355.825 797.045 353.71ZM1312.43 310.065L1350.55 266.995C1349.5 262.635 1346.2 256.816 1340.63 249.54L1281.51 172.261C1279.35 175.041 1277.16 177.779 1274.93 180.476C1277.92 182.955 1280.47 186.421 1282.59 190.873C1284.72 195.324 1286.93 201.652 1289.22 209.858L1295.08 230.959C1296.32 235.413 1297.72 238.446 1299.26 240.056C1300.91 241.653 1303.6 242.189 1307.36 241.665C1308.3 245.064 1308.76 247.801 1308.74 249.874C1306.3 250.459 1303.64 251.5 1300.76 252.999C1297.85 254.381 1295.53 255.923 1293.8 257.626C1292.39 257.215 1291.23 256.463 1290.33 255.372C1289.39 254.163 1288.45 251.859 1287.51 248.459C1287.18 247.287 1286.82 245.633 1286.43 243.496C1286.25 246.809 1285.38 249.792 1283.82 252.446C1281.17 256.957 1276.72 259.649 1270.47 260.524C1264.7 261.331 1259.72 260.322 1255.54 257.497C1251.45 254.659 1248.59 250.309 1246.96 244.448C1245.04 237.531 1245.57 231.733 1248.57 227.051C1251.53 222.252 1255.32 218.617 1259.93 216.146C1264.54 213.674 1269.78 211.481 1275.64 209.565C1273.65 202.414 1272.09 197.517 1270.96 194.875C1270 192.62 1268.85 190.719 1267.49 189.171C1254.72 203.601 1240.86 216.807 1226.02 228.892L1276.88 295.376C1283.4 303.894 1288.91 308.907 1293.43 310.414C1297.67 311.855 1302.81 310.668 1308.85 306.851C1309.93 307.644 1311.13 308.716 1312.43 310.065ZM1296.81 150.961C1434.47 -51.3595 1465.64 -21.3982 1442.3 74.9048L1435.04 72.5043C1431.84 71.3323 1427.9 69.9968 1423.22 68.4977C1406.59 63.1733 1394.06 61.5067 1385.63 63.4979C1377.36 65.5407 1372.49 70.3611 1371.04 77.9592C1369.59 85.5573 1371.95 92.9111 1378.13 100.021C1384.3 107.13 1394.04 113.547 1407.34 119.271C1403.92 119.204 1400.54 119.879 1397.18 121.297C1393.99 122.767 1389.9 125.342 1384.91 129.023C1379.9 132.843 1376.05 135.495 1373.37 136.982C1370.71 138.331 1367.65 139.11 1364.18 139.319C1360.74 139.39 1356.09 138.634 1350.23 137.049C1349.49 140.917 1349.34 143.947 1349.77 146.14C1362.2 150.12 1372.09 153.947 1379.44 157.62C1384.44 156.58 1388.22 155.154 1390.8 153.339C1393.37 151.524 1397.32 147.879 1402.65 142.402L1406.15 138.903C1409.95 135.136 1413.04 132.458 1415.4 130.868C1417.76 129.278 1420.23 128.456 1422.81 128.403C1423.8 128.352 1424.89 128.398 1426.08 128.541C1419.77 146.4 1412.34 165.201 1403.99 184.304C1399.39 179.917 1395.12 175.752 1391.17 171.81C1386.59 176.983 1383.74 181.312 1382.62 184.798C1389.69 191.742 1393.93 197.949 1395.36 203.419C1390.91 213.001 1386.24 222.606 1381.38 232.153L1370.01 245.007C1367.26 242.503 1364.26 239.129 1361.01 234.885L1296.81 150.961ZM712.039 613.082C685.678 618.033 659.22 622.33 632.842 625.882C632.876 616.548 634.405 608.492 637.428 601.716C641.526 592.531 647.807 586.51 656.272 583.651C669.084 579.326 681.678 582.251 694.052 592.428C700.453 597.832 706.449 604.717 712.039 613.082ZM1082.33 306.038C1082.2 305.952 1082.06 305.875 1081.92 305.808C1076.64 307.61 1071.3 309.352 1065.92 311.034C1065.83 311.23 1065.76 311.434 1065.72 311.647C1065.47 312.649 1065.86 314.326 1066.9 316.676L1072.53 329.44L1090.89 323.241L1085.26 310.478C1084.22 308.128 1083.25 306.648 1082.33 306.038ZM368.419 461.678C375.54 448.11 381.515 435.818 386.346 424.804C336.11 416.23 301.18 414.253 281.556 418.873C273.076 420.853 266.277 424.43 261.16 429.606C256.373 434.872 253.292 442.885 251.916 453.645L251.546 456.541C246.379 459.42 240.151 459.87 232.864 457.891C216.017 450.253 193.825 442.427 166.285 434.414C161.607 435.674 156.247 437.324 150.206 439.364C144.397 441.325 138.711 443.44 133.147 445.708C131.703 442.432 130.869 439.923 130.648 438.18C134.357 436.668 136.502 434.711 137.084 432.308C137.52 429.824 136.493 425.758 134.002 420.109L117.093 381.768C23.5359 402.494 -48.4047 440.776 -84.1391 511.096C-32.276 545.726 -21.3521 540.799 -5.67025 533.726C12.5074 525.527 37.0778 514.445 139.215 558.748C140.486 557.532 141.798 556.268 143.151 554.955C148.571 549.728 152.864 546.093 156.029 544.049C159.222 541.79 162.942 540.567 167.189 540.38C171.436 540.194 177.414 540.924 185.122 542.57C181.406 540.668 177.829 537.687 174.389 533.626C170.695 529.497 165.574 522.077 159.027 511.366C151.571 499.516 146.478 491.88 143.748 488.459C140.792 484.753 137.4 482.381 133.574 481.342C130.513 480.51 128.065 481.074 126.231 483.032C124.424 484.775 122.568 488.96 120.663 495.589C113.466 494.081 107.044 491.667 101.398 488.348C103.834 479.63 105.522 471.603 106.462 464.265C107.098 459.302 107.426 455.706 107.448 453.479C112.687 453.785 118.496 454.804 124.873 456.536C131.25 458.268 136.482 460.694 140.57 463.813C144.658 466.933 148.493 470.989 152.077 475.982C155.406 480.906 160.444 488.973 167.19 500.184C168.245 502.257 170.081 505.436 172.7 509.72C180.756 523.073 187.1 532.277 191.732 537.331C196.136 542.1 202.406 545.701 210.541 548.133L213.526 524.826C214.908 514.036 214.062 506.213 210.988 501.359C207.942 496.289 202.465 492.68 194.558 490.533C193.697 486.95 193.654 482.137 194.427 476.094C205.568 479.789 219.429 483.888 236.009 488.391C252.844 492.962 266.788 496.414 277.839 498.745C277.065 504.788 275.833 509.254 274.143 512.145C266.236 509.998 260.234 510.489 256.138 513.62C252.069 516.535 249.344 523.387 247.962 534.177L244.977 557.484C252.657 559.347 259.141 559.21 264.43 557.073C269.746 554.72 277.942 549.465 289.017 541.307C292.52 538.685 295.02 536.684 296.517 535.304C305.585 528.388 312.409 523.541 316.987 520.765C321.311 517.92 325.766 516.114 330.351 515.35C332.956 514.915 335.85 514.884 339.033 515.255C343.073 507.557 346.647 501.149 349.755 496.033L368.419 461.678ZM177.832 371.025C170.418 372.05 163.102 373.152 155.891 374.336C149.315 376.444 141.562 379.006 132.63 382.022L147.428 415.575C147.474 415.68 147.52 415.784 147.566 415.887C147.618 416.002 147.669 416.117 147.72 416.23C148.363 412.156 149.473 408.788 151.049 406.127C165.113 410.213 178.735 413.649 191.916 416.434C193.054 415.43 193.773 414.306 194.073 413.063C194.51 410.579 193.482 406.513 190.991 400.864L177.832 371.025ZM192.418 369.123C208.786 367.111 225.6 365.445 242.804 364.068L235.215 423.417C226.563 422.49 217.687 421.235 208.589 419.651C214.677 417.621 220.048 416.001 224.702 414.791C223.257 411.515 221.948 409.167 220.775 407.746C216.866 408.806 213.822 408.601 211.642 407.13C209.317 405.579 206.908 401.979 204.417 396.331L192.418 369.123ZM358.065 520.533C360.073 521.338 361.986 522.192 363.805 523.095C363.273 525.183 362.69 528.71 362.054 533.673C361.114 541.011 360.702 549.384 360.816 558.795C357.994 558.856 355.063 558.649 352.026 558.172C352.193 558.988 352.383 559.795 352.597 560.593C356.301 573.643 364.892 584.218 378.371 592.317C394.096 601.765 408.736 603.228 422.29 596.707C435.844 590.185 447.358 577.898 456.832 559.846C458.086 557.457 460.204 552.618 463.184 545.33L444.294 533.98C443.709 535.349 443.095 536.898 442.453 538.628C441.426 541.393 440.58 543.938 439.912 546.266C438.457 545.589 437.297 544.912 436.432 544.235C436.908 542.423 436.81 540.921 436.136 539.729C435.39 538.558 433.729 537.373 431.154 536.176C429.922 535.603 428.441 534.997 426.709 534.356L398.92 524.072L435.327 560.206C434.91 561.33 434.357 562.2 433.669 562.814L386.284 557.841L414.145 573.764C415.772 574.685 417.145 575.406 418.265 575.927C420.224 576.838 421.681 577.158 422.635 576.887C423.589 576.617 424.508 575.643 425.393 573.967C426.561 574.18 427.817 574.599 429.16 575.224C428.105 577.535 426.96 580.355 425.724 583.682C424.437 587.149 423.477 590 422.845 592.233C421.333 591.53 420.145 590.841 419.28 590.164C419.586 588.987 419.553 587.928 419.181 586.985C418.808 586.043 417.964 585.046 416.648 583.994C415.276 582.917 413.234 581.61 410.522 580.074L380.645 563.214C380.159 562.933 379.468 562.584 378.572 562.168C376.221 561.074 374.422 560.705 373.174 561.059C371.91 561.46 370.981 562.457 370.39 564.05C369.239 563.79 367.992 563.347 366.649 562.722C367.513 560.926 368.258 559.185 368.884 557.498C369.65 555.436 370.244 553.57 370.668 551.898L422.791 558.168L382.881 519.004C383.728 517.255 384.473 515.513 385.117 513.779C385.917 511.624 386.494 509.804 386.848 508.321C388.36 509.023 389.52 509.7 390.329 510.351C389.702 512.038 389.698 513.464 390.315 514.631C390.932 515.797 392.332 516.887 394.516 517.903C395.355 518.293 396.036 518.582 396.557 518.769L427.284 530.42C430.804 531.727 433.481 532.56 435.317 532.919C437.079 533.299 438.399 533.281 439.276 532.865C439.765 532.632 440.22 532.272 440.641 531.785L376.053 492.978C368.833 501.908 363.969 508.763 361.461 513.542C360.216 515.913 359.084 518.244 358.065 520.533ZM329.983 534.899C327.09 534.62 324.318 535.245 321.668 536.775C318.02 538.464 311.252 542.879 301.363 550.019C292.605 556.573 286.119 560.841 281.906 562.823C277.438 564.736 273.235 565.605 269.299 565.429C276.896 567.939 282.652 570.395 286.568 572.798C290.483 575.202 293.65 578.295 296.069 582.078C298.516 585.645 301.62 591.29 305.382 599.011C310.414 609.396 314.683 617.868 318.188 624.428C332.428 627.151 346.993 629.425 361.839 631.272C359.68 630.206 357.519 629.023 355.356 627.723C337.705 617.118 326.949 602.624 323.089 584.242C320.295 570.244 322.594 553.797 329.983 534.899ZM280.453 615.938C266.277 612.239 252.497 608.031 239.163 603.287C239.256 602.29 239.369 601.266 239.504 600.214L243.36 570.109C252.232 572.965 259.215 578.211 264.308 585.847C269.138 592.846 274.52 602.877 280.453 615.938ZM205.23 589.594C201.566 587.926 197.944 586.209 194.365 584.444C186.768 580.698 179.481 577.177 172.489 573.87C177.102 569.73 181.321 566.445 185.147 564.015C192.042 559.635 199.968 558.549 208.924 560.758L205.23 589.594ZM1440.38 82.5263C1437.35 94.0652 1433.61 106.436 1429.24 119.382C1428.05 119.057 1427.13 118.791 1426.48 118.585C1415.51 115.07 1406.94 110.569 1400.8 105.082C1394.65 99.5955 1392.23 93.4676 1393.52 86.6984C1394.63 80.8963 1398.02 77.0696 1403.69 75.2184C1409.51 73.4189 1417.91 74.2767 1428.89 77.7918C1431.49 78.6243 1435.32 80.2025 1440.38 82.5263ZM409.601 635.717C426.309 630.454 441.872 617.975 456.29 598.279C455.75 604.939 456.954 612.296 459.902 620.353C461.757 625.036 464.513 630.765 468.169 637.539C448.339 637.527 428.787 636.934 409.601 635.717ZM514.152 636.568C512.824 634.8 511.439 632.968 509.996 631.073L502.186 620.618C493.783 609.284 487.85 600.481 484.387 594.21C480.924 587.939 479.274 582.234 479.439 577.095C479.422 571.498 481.224 565.248 484.847 558.346L517.1 577.725C532.825 587.174 542.831 595.455 547.117 602.57C551.543 609.419 552.084 616.03 548.74 622.401C551.991 625.733 556.761 629.433 563.048 633.501C546.641 634.858 530.328 635.888 514.152 636.568ZM689.37 435.358C703.211 429.924 721.621 430.728 744.6 437.769C761.834 443.05 777.294 450.657 790.979 460.589C788.541 465.581 786.368 473.524 784.458 484.417C780.931 484.484 776.388 483.666 770.829 481.962C771.937 472.299 770.516 464.813 766.565 459.503C762.429 454.136 755.821 450.062 746.74 447.28C732.841 443.021 721.201 443.143 711.82 447.648C702.253 452.095 695.61 460.472 691.89 472.778L754.712 492.027C756.205 495.764 756.46 500.434 755.478 506.036C737.214 499.947 715.295 492.985 689.721 485.149C688.384 498.349 691.27 509.728 698.382 519.285C705.521 528.688 716.317 535.603 730.772 540.032C741.335 543.269 749.566 543.659 755.464 541.203C761.176 538.691 765.514 532.887 768.475 523.792C773.533 525.014 777.752 527.126 781.131 530.129C779.811 534.316 778.755 538.666 777.964 543.179C777.473 545.98 777.004 549.771 776.556 554.553C760.034 555.23 743.898 553.155 728.146 548.328C704.796 541.174 687.508 530.629 676.282 516.695C664.871 502.704 660.72 486.839 663.83 469.099C666.831 451.981 675.345 440.734 689.37 435.358ZM1277.65 216.774C1273.22 218.123 1269.62 219.54 1266.83 221.026C1264.02 222.394 1261.83 224.588 1260.27 227.607C1258.77 230.496 1258.68 234.284 1259.98 238.973C1261.12 243.076 1262.8 246.068 1265.03 247.95C1267.25 249.831 1269.56 250.604 1271.97 250.267C1274.18 249.958 1276.15 248.769 1277.87 246.701C1279.6 244.633 1280.66 241.623 1281.06 237.67C1281.55 233.703 1281.04 228.965 1279.5 223.456L1277.65 216.774ZM1048.79 504.729C1048.38 503.332 1047.8 502.108 1047.07 501.056C1042.79 502.326 1038.33 502.659 1033.71 502.053C1029.08 501.448 1024.7 500.004 1020.56 497.721C1011.68 492.819 1006.33 486.756 1004.53 479.533C1002.89 472.275 1003.65 464.515 1006.78 456.256C1019.69 462.725 1036.85 471.869 1058.28 483.688C1060.3 482.986 1062.04 481.74 1063.5 479.95C1067.22 469.806 1067.7 460.342 1064.95 451.557C1062.37 442.737 1055.54 435.271 1044.46 429.16C1036.91 424.997 1029.47 423.035 1022.15 423.275C1014.87 423.412 1008.33 425.386 1002.54 429.197C996.87 433.076 992.453 438.359 989.291 445.049C986.031 451.944 984.548 458.976 984.842 466.144C985.136 473.313 987.366 480.122 991.53 486.572C995.865 492.985 1002.23 498.509 1010.63 503.142C1017.57 506.97 1024.12 509.35 1030.28 510.282C1036.61 511.178 1042.91 510.504 1049.19 508.259C1049.46 507.369 1049.33 506.192 1048.79 504.729ZM1024.41 434.062C1029.48 432.443 1034.44 432.977 1039.31 435.663C1044.55 438.551 1047.63 442.91 1048.56 448.741C1049.65 454.536 1048.57 460.881 1045.31 467.776L1010.25 448.437C1014.63 440.472 1019.35 435.681 1024.41 434.062Z" fill="#BDA995"/>
</svg>
