<svg width="1440" height="692" viewBox="0 0 1440 692" fill="none" xmlns="http://www.w3.org/2000/svg">
<path fill-rule="evenodd" clip-rule="evenodd" d="M1477.08 98.8515C1471.25 89.4822 1462.66 81.386 1451.31 74.5628C1442.14 69.0534 1432.37 65.2064 1422 63.0218C1416.86 61.9775 1411.22 61.3193 1405.08 61.0471C1422.15 45.7318 1436.72 33.6168 1449.03 24.353C1451.23 24.6092 1453.46 24.9685 1455.74 25.4308C1468.64 28.1128 1483.42 34.0923 1500.09 43.3694C1494.99 59.0315 1486.95 78.0363 1477.08 98.8515ZM1416.65 212.638C1398.71 215.701 1380.41 211.625 1361.74 200.411C1341.46 188.22 1330.47 172.041 1328.78 151.873C1328.18 144.075 1329.13 135.388 1331.62 125.81C1324.38 131.333 1317.02 136.654 1309.55 141.78C1312.02 145.6 1313.7 149.176 1314.6 152.507C1292.01 166.889 1272.5 182.185 1256.09 198.395L1345.31 332.043C1352.22 320.941 1361.17 306.412 1371.32 289.636L1371.32 239.912C1371.32 234.641 1370.52 231.11 1368.94 229.318C1367.46 227.421 1364.62 226.367 1360.4 226.156C1359.87 224.68 1359.61 222.414 1359.61 219.357C1365.41 219.673 1371.79 219.831 1378.75 219.831C1385.19 219.831 1391.57 219.673 1397.9 219.357C1397.9 222.414 1397.63 224.68 1397.11 226.156C1392.89 226.367 1389.99 227.421 1388.4 229.318C1386.93 231.11 1386.19 234.641 1386.19 239.912L1386.19 264.844C1395.92 248.485 1406.27 230.815 1416.65 212.638ZM1094.13 236.38C1114.65 231.002 1134.87 224.956 1154.7 218.148C1158.19 219.66 1162.11 220.675 1166.45 221.193C1173 221.974 1178.87 221.559 1184.07 219.947C1189.39 218.234 1194.31 215.062 1198.83 210.432C1198.82 209.492 1198.42 208.446 1197.63 207.294C1196.95 206.156 1196.18 205.242 1195.33 204.553C1192.19 207.467 1188.68 209.574 1184.8 210.873C1180.92 212.171 1177.03 212.588 1173.12 212.122C1172.75 212.077 1172.38 212.028 1172.01 211.973C1191.14 204.888 1209.88 197.052 1228.17 188.377L1228.31 188.587C1234.29 198.597 1236.41 206.807 1234.67 213.215C1232.53 219.545 1225.35 226.794 1213.11 234.962L1058.22 338.369C1053.57 341.472 1049.34 343.942 1045.53 345.778C1045.65 344.385 1045.71 342.816 1045.71 341.071C1039.38 341.389 1029.35 341.597 1015.61 341.697C1013.6 339.708 1011.58 337.353 1009.56 334.631C1005.82 335.581 1000.97 337.959 994.997 341.765L994.588 341.765C966.34 341.765 947.303 341.533 937.478 341.071C937.478 345.541 937.862 348.855 938.63 351.014C944.31 351.476 948.301 352.324 950.604 353.557C953.06 354.636 954.519 356.409 954.979 358.875C955.44 361.342 955.594 365.581 955.44 371.593C954.519 401.652 952.83 423.695 950.374 437.723C948.071 451.596 944.924 462.001 940.932 468.938C938.783 472.638 936.02 475.335 932.642 477.031C929.418 478.572 925.196 479.343 919.977 479.343C915.678 479.343 910.919 478.881 905.699 477.956C905.085 481.039 904.778 484.276 904.778 487.667C904.778 490.596 905.008 492.985 905.469 494.835C907.158 496.222 909.461 497.456 912.378 498.535C915.294 499.614 918.442 500.153 921.819 500.153C930.416 500.153 937.939 496.685 944.387 489.748C949.453 484.199 953.367 476.491 956.131 466.626C959.048 456.606 961.197 444.428 962.579 430.092C963.96 415.602 965.189 395.948 966.263 371.13C966.57 365.118 967.031 360.956 967.645 358.644C968.259 356.178 969.717 354.328 972.02 353.095C975.551 351.245 980.157 350.32 985.837 350.32C991.183 350.32 995.518 350.874 998.842 351.981C1001.2 355.284 1003.81 358.984 1006.67 363.082C1006.91 365.293 1007.02 367.976 1007.02 371.13L1007.02 468.707C1007.02 476.414 1005.87 481.655 1003.57 484.43C1001.42 487.051 997.274 488.515 991.134 488.823C990.41 490.856 990.028 493.916 989.986 498.002C979.867 501.918 969.624 505.853 959.269 509.799C957.985 509.562 956.685 509.381 955.367 509.254C941.179 507.782 926.006 512.903 909.847 524.617C906.776 526.844 903.869 529.175 901.128 531.61C886.597 536.973 871.911 542.325 857.109 547.644C855.188 545.581 853.45 543.616 851.893 541.749L760.854 581.118C756.413 582.608 751.968 584.091 747.521 585.567L788.423 478.008C784.624 474.738 781.052 471.424 777.707 468.064C773.548 463.887 770.248 460.301 767.809 457.306C765.354 459.75 763.626 461.923 762.623 463.825C765.878 467.094 767.502 470.179 767.494 473.08C767.486 475.981 765.709 479.197 762.164 482.727C760.801 484.085 759.665 485.125 758.756 485.849L705.873 529.828C699.785 534.804 694.971 538.242 691.43 540.14C688.071 542.039 685.213 542.805 682.857 542.439C680.501 542.072 677.92 540.754 675.116 538.483C673.028 539.658 670.847 541.377 668.575 543.64C672.554 547.092 677.211 551.496 682.546 556.853C687.88 562.21 692.581 567.204 696.648 571.834C699.011 569.48 700.74 567.307 701.833 565.314C698.761 561.683 697.274 558.372 697.372 555.38C697.653 552.389 699.883 548.811 704.065 544.647C706.065 542.656 708.564 540.439 711.562 537.996L759.673 498.77L724.543 593.118C710.475 597.694 696.398 602.188 682.343 606.58C680.275 606.812 678.19 607.214 676.088 607.788C673.239 608.613 670.474 609.714 667.793 611.093C624.843 624.312 582.179 636.531 540.637 647.249C535.573 645.938 530.434 645.638 525.222 646.35C524.556 648.122 523.971 649.875 523.469 651.608C521.537 652.091 519.607 652.57 517.68 653.046C495.739 641.956 478.893 631.81 467.14 622.607C462.02 620.072 457.182 619.765 452.626 621.688L450.466 626.05C445.589 634.778 440.427 639.883 434.981 641.365C429.423 642.512 421.079 640.33 409.948 634.818L269.038 565.032C257.907 559.52 251.226 554.261 248.992 549.255C246.647 543.915 247.468 536.66 251.455 527.491C248.892 524.829 244.383 521.899 237.927 518.702C232.945 530.442 226.576 544.142 218.82 559.802C212.062 573.449 205.025 586.818 197.709 599.911C204.165 603.108 209.228 604.919 212.898 605.344C217.775 596.616 222.993 591.678 228.551 590.53C233.997 589.049 242.285 591.064 253.416 596.576L394.326 666.361C400.953 669.643 406.054 672.972 409.63 676.349C356.73 685.855 307.75 691.418 264.923 691.701L217.851 668.389C206.721 662.876 200.039 657.617 197.806 652.611C195.461 647.271 196.281 640.016 200.268 630.847C197.705 628.185 193.196 625.256 186.741 622.058C181.758 633.799 175.389 647.499 167.633 663.159C164.771 668.938 161.859 674.668 158.897 680.348C-132.441 628.133 -38.1827 550.759 99.0201 438.134C130.341 412.424 163.9 384.876 195.621 355.371C297.745 293.503 461.356 288.678 640.795 283.386L640.797 283.386C657.574 282.891 674.488 282.392 691.504 281.843C690.567 285.377 689.417 289.043 688.055 292.841C686.272 297.811 684.345 302.474 682.276 306.831C684.59 308.851 687.393 310.452 690.684 311.633C692.031 312.116 693.105 312.416 693.907 312.534C700.162 301.69 705.82 294.626 710.882 291.342C716.148 287.962 722.371 287.56 729.552 290.137C736.882 292.767 741.757 297.065 744.175 303.032C746.593 308.999 746.317 316.124 743.345 324.407C739.941 333.895 734.2 340.249 726.121 343.47C718.191 346.744 708.251 346.917 696.299 343.989C695.173 344.775 694.205 346.297 693.394 348.556C693.124 349.309 692.814 350.643 692.465 352.558C705.78 357.335 714.968 364.201 720.029 373.156C725.09 382.111 725.541 392.387 721.38 403.983C717.598 414.524 712.062 421.717 704.773 425.561C697.633 429.459 689.276 429.69 679.702 426.255C671.025 423.142 665.585 418.301 663.383 411.731C661.33 405.215 661.297 396.364 663.284 385.178L660.224 383.825C657.68 382.913 654.499 382.367 650.68 382.186C649.454 387.016 647.949 391.915 646.166 396.885C644.167 402.457 642.085 407.319 639.92 411.472C643.464 416.653 648.353 421.382 654.586 425.658C660.82 429.935 667.751 433.441 675.381 436.179C692.286 442.244 706.808 442.95 718.948 438.296C731.141 433.492 739.885 423.71 745.18 408.952C749.286 397.506 749.515 387.22 745.867 378.092C742.422 368.867 735.312 361.386 724.537 355.65C734.407 357.321 742.965 356.058 750.213 351.859C757.515 347.509 762.922 340.44 766.434 330.651C770.378 319.658 769.589 309.856 764.066 301.245C758.598 292.484 748.982 285.634 735.219 280.696C734.878 280.574 734.538 280.453 734.198 280.335C764.862 279.142 795.749 277.661 826.646 275.624C822.773 279.059 818.797 282.915 814.719 287.191C798.882 303.794 790.069 318.202 788.278 330.415C786.584 342.527 790.899 353.507 801.224 363.355C811.747 373.392 823.177 378.204 835.515 377.791C848.048 377.372 859.723 371.493 870.538 360.155C880.388 349.828 885.095 339.527 884.659 329.251C884.319 318.873 879.682 309.423 870.748 300.901C866.082 296.45 860.841 292.901 855.024 290.254C849.307 287.701 842.227 285.781 833.785 284.495C837.867 280.215 841.947 276.807 846.023 274.27C856.667 273.484 867.306 272.625 877.932 271.683C878.588 271.943 879.246 272.22 879.907 272.515C888.385 276.348 897.786 283.188 908.11 293.036C909.897 294.74 911.432 295.914 912.714 296.557C914.193 297.194 915.761 297.24 917.419 296.694C923.703 290.701 929.758 285.745 935.581 281.826C934.953 278.907 933.253 276.416 930.482 274.352C927.378 276.612 924.7 277.731 922.446 277.708C920.289 277.584 917.871 276.244 915.19 273.687C913.305 271.889 911.402 270.201 909.481 268.623C935.814 265.841 962.015 262.475 987.95 258.356L1035.41 271.072C1047.51 274.313 1055.4 278.24 1059.09 282.852C1062.54 287.399 1063.26 293.414 1061.26 300.899C1064.56 303.078 1069.6 305.076 1076.38 306.891C1079.7 292.031 1085.62 268.528 1094.13 236.38ZM1030.58 482.131C1045.7 476.165 1060.47 470.272 1074.83 464.486C1066.8 452.262 1057.53 438.269 1047 422.508C1040.39 412.597 1034.28 403.495 1028.67 395.202L1028.67 468.707C1028.67 474.646 1029.31 479.121 1030.58 482.131ZM1219.26 404.454C1251.89 390.468 1278.56 378.74 1297.62 370.258C1277.5 375.88 1251.38 387.278 1219.26 404.454ZM484.304 660.993C474.706 657.077 465.054 653.617 455.348 650.616C453.389 654.296 450.189 660.551 445.747 669.381C458.424 666.776 471.285 663.975 484.304 660.993ZM1505.93 10.4986C1504.79 1.13629 1498.84 -2.47015 1486.59 1.74866C1493 4.09413 1499.45 7.01079 1505.93 10.4986ZM1411.71 192.806C1400.5 198.209 1389.05 197.393 1377.34 190.36C1364.86 182.858 1358.74 170.952 1358.98 154.642C1359.22 138.332 1367.86 116.005 1384.89 87.6623L1392.15 76.2434C1405.84 75.5637 1417.36 78.0372 1426.72 83.6637C1438.62 90.8141 1446.81 101.266 1451.29 115.019C1455.89 128.573 1452.53 144.765 1441.22 163.594C1432.88 177.468 1423.05 187.206 1411.71 192.806ZM811.75 359.474C817.707 365.156 824.347 367.139 831.67 365.424C839.09 363.607 846.18 359.156 852.94 352.069C862.114 342.452 866.249 333.346 865.347 324.751C864.541 316.055 861.11 308.819 855.054 303.043C850.289 298.498 843.831 295.528 835.681 294.135L829.883 299.915C816.074 314.392 808.012 326.423 805.695 336.007C803.378 345.592 805.397 353.414 811.75 359.474ZM205.868 473.083C201.557 478.863 199.377 483.444 199.327 486.825C199.364 490.091 201.141 493.036 204.658 495.66C203.932 497.817 202.362 500.514 199.948 503.751C195.214 499.68 189.159 494.894 181.783 489.393C173.726 483.384 167.98 479.368 164.544 477.346C166.958 474.108 169.096 471.834 170.957 470.524C173.68 472.555 176.542 472.98 179.542 471.799C182.655 470.703 186.324 467.322 190.549 461.657L199.215 450.039C196.265 447.838 193.58 446.465 191.161 445.92C188.941 445.345 186.461 445.474 183.72 446.308C180.978 447.142 177.121 448.763 172.146 451.17L167.558 453.415C160.496 456.964 155.451 459.229 152.424 460.21C149.397 461.191 145.519 461.537 140.789 461.248C136.232 456.23 129.585 450.462 120.847 443.945C121.487 441.904 123.014 439.264 125.428 436.027C129.686 438.843 133.294 440.634 136.254 441.402C139.299 442.054 142.263 442.106 145.145 441.557C148.113 440.892 152.611 439.479 158.638 437.317C164.579 435.271 169.247 433.984 172.642 433.458C176.15 433.016 179.341 433.237 182.214 434.12C173.544 425.855 168.222 417.837 166.247 410.067C164.272 402.297 165.656 395.232 170.398 388.874C175.141 382.515 181.501 379.433 189.48 379.627C197.573 379.905 207.463 384.403 219.151 393.12C222.442 395.574 225.179 397.706 227.362 399.514L242.041 410.732C248.736 415.725 254.709 419.911 259.961 423.288C257.546 426.525 255.409 428.799 253.548 430.11C250.03 427.486 246.658 426.68 243.431 427.692C240.29 428.588 236.564 431.926 232.253 437.706L205.868 473.083ZM185.493 402.021C181.268 407.686 180.503 413.683 183.2 420.012C185.896 426.341 191.103 432.383 198.819 438.139C199.84 438.9 201.912 440.266 205.035 442.235L228.445 410.847C224.651 406.938 221.732 404.221 219.689 402.698C211.973 396.943 205.222 394.156 199.435 394.338C193.762 394.604 189.114 397.166 185.493 402.021ZM1237.03 268.352C1251.64 258.81 1262.7 255.796 1270.22 259.308C1273.88 261.069 1277.8 264.571 1282.01 269.812C1285.97 275.217 1293.13 285.666 1303.47 301.16L1333.05 345.464C1319.31 343.434 1303.36 345.508 1285.2 351.684C1266.79 357.73 1245.6 367.176 1221.64 380.022C1220.91 377.524 1221.09 375.175 1222.2 372.975C1223.63 369.936 1227.66 366.524 1234.29 362.739L1274.87 339.573C1281.5 335.787 1286.55 334.014 1290.03 334.251C1293.37 334.565 1296.1 336.577 1298.22 340.289C1300.55 339.752 1303.58 338.423 1307.29 336.304C1301.97 327.91 1293.6 313.717 1282.19 293.722C1274.67 280.552 1266.71 272.157 1258.32 268.537C1251.06 265.522 1243.97 265.46 1237.03 268.352ZM1212.91 384.77C1210.5 380.012 1207.32 374.183 1203.39 367.283C1198.12 358.064 1193.93 351.174 1190.79 346.612C1194.64 344.416 1197.66 343.088 1199.86 342.627C1203.13 347.743 1206.28 350.789 1209.3 351.765C1212.25 352.621 1216.51 351.459 1222.08 348.279L1239.58 338.286C1237.07 334.801 1234.54 330.844 1232.01 326.414C1218.48 302.71 1216.78 285.606 1226.91 275.101L1081.01 372.504C1071.96 378.549 1065.75 383.565 1062.4 387.552C1059.05 391.54 1057.65 395.8 1058.2 400.333C1058.98 407.861 1063.01 417.073 1070.28 427.967C1076.26 436.924 1082.58 443.207 1089.23 446.815C1093.61 449.139 1098.09 449.479 1102.65 447.834C1106.96 446.352 1114.06 442.667 1123.92 436.78C1159.9 414.951 1189.56 397.614 1212.91 384.77ZM1246.24 287.576C1257.25 281.292 1266.89 285.394 1275.16 299.881C1277.34 303.712 1278.65 306.775 1279.08 309.069C1279.44 311.244 1278.94 313.28 1277.56 315.178C1276.11 316.956 1273.47 318.943 1269.62 321.138L1247.34 333.857C1245.71 331.614 1243.7 328.397 1241.3 324.207C1237.68 317.861 1235.89 311.184 1235.93 304.175C1235.91 297.046 1239.34 291.513 1246.24 287.576ZM544.141 390.184C557.067 390.184 566.97 393.266 573.85 399.431C580.834 405.597 584.327 414.426 584.327 425.921C584.327 437.833 580.626 447.133 573.225 453.821C565.928 460.509 555.712 463.853 542.578 463.853C533.717 463.853 524.909 462.024 516.152 458.367C516.361 455.232 516.465 452.724 516.465 450.843C516.465 447.813 516.309 444.835 515.996 441.909C518.081 440.655 520.53 440.132 523.345 440.341C524.075 446.715 525.847 451.261 528.661 453.978C531.58 456.695 536.01 458.053 541.952 458.053C550.083 458.053 556.494 455.754 561.185 451.156C565.876 446.454 568.482 439.767 569.003 431.093C554.618 431.093 542.265 431.25 531.945 431.564C531.945 427.802 532.518 424.876 533.665 422.786L569.003 422.786C568.169 414.217 565.407 407.582 560.716 402.88C556.129 398.177 549.927 395.826 542.108 395.826C537.001 395.826 533.092 397.133 530.381 399.745C527.775 402.357 526.316 406.851 526.003 413.225C522.876 413.225 520.374 412.859 518.498 412.128C518.498 404.813 518.081 399.327 517.247 395.67C525.482 392.012 534.447 390.184 544.141 390.184ZM600.751 557.801C600.751 559.993 601.062 561.483 601.684 562.272C602.35 563.018 603.571 563.434 605.348 563.522C605.57 564.135 605.681 565.078 605.681 566.349C603.016 566.217 600.329 566.152 597.62 566.152C594.51 566.152 591.823 566.217 589.558 566.349C589.558 565.078 589.669 564.135 589.891 563.522C591.668 563.434 592.867 563.018 593.489 562.272C594.155 561.483 594.488 559.993 594.488 557.801L594.488 544.783C584.494 544.783 577.721 544.892 574.167 545.111L574.167 557.801C574.167 559.993 574.478 561.483 575.1 562.272C575.766 563.018 576.988 563.434 578.765 563.522C578.987 564.135 579.098 565.078 579.098 566.349C576.433 566.217 573.746 566.152 571.036 566.152C567.927 566.152 565.24 566.217 562.974 566.349C562.974 565.078 563.086 564.135 563.308 563.522C565.084 563.434 566.284 563.018 566.905 562.272C567.572 561.483 567.905 559.993 567.905 557.801L567.905 530.055C567.905 527.863 567.572 526.394 566.905 525.649C566.284 524.86 565.084 524.422 563.308 524.334C563.086 523.721 562.974 522.778 562.974 521.507C565.417 521.638 568.105 521.704 571.036 521.704C573.746 521.704 576.433 521.638 579.098 521.507C579.098 522.778 578.987 523.721 578.765 524.334C576.988 524.422 575.766 524.86 575.1 525.649C574.478 526.394 574.167 527.863 574.167 530.055L574.167 541.955L594.488 541.955L594.488 530.055C594.488 527.863 594.155 526.394 593.489 525.649C592.867 524.86 591.668 524.422 589.891 524.334C589.669 523.721 589.558 522.778 589.558 521.507C592.001 521.638 594.688 521.704 597.62 521.704C600.329 521.704 603.016 521.638 605.681 521.507C605.681 522.778 605.57 523.721 605.348 524.334C603.571 524.422 602.35 524.86 601.684 525.649C601.062 526.394 600.751 527.863 600.751 530.055L600.751 557.801ZM642.016 483.393C627.938 468.231 608.581 460.649 583.944 460.649C568.693 460.649 554.967 464.265 542.766 471.497C530.8 478.728 521.414 488.759 514.61 501.589C507.805 514.185 504.403 528.298 504.403 543.927C504.403 560.49 507.688 575.069 514.258 587.666C520.828 600.263 530.096 610.06 542.062 617.058C554.028 623.823 567.989 627.205 583.944 627.205C599.43 627.205 613.156 623.59 625.123 616.358C637.324 609.127 646.709 599.213 653.279 586.616C660.083 574.019 663.485 559.79 663.485 543.927C663.485 518.734 656.329 498.556 642.016 483.393ZM550.157 493.541C557.196 482.81 567.285 477.445 580.425 477.445C589.106 477.445 597.084 480.361 604.358 486.193C611.631 492.025 617.38 500.306 621.603 511.036C626.061 521.767 628.29 534.13 628.29 548.126C628.29 567.255 624.771 582.417 617.732 593.614C610.693 604.811 600.369 610.41 586.76 610.41C572.213 610.41 560.716 603.995 552.269 591.165C544.056 578.102 539.95 559.907 539.95 536.579C539.95 518.617 543.353 504.271 550.157 493.541ZM445.128 562.01C443.458 558.159 443.805 551.823 446.168 543.003L476.089 431.33C478.452 422.509 481.296 416.937 484.621 414.613C488.173 412.161 493.597 411.724 500.894 413.301C502.456 411.072 503.923 407.4 505.294 402.284C494.348 399.918 470.778 393.887 434.585 384.189L405.414 376.373C368.32 366.435 344.893 359.874 335.131 356.691C333.76 361.807 333.194 365.721 333.432 368.432C340.541 370.715 344.93 373.781 346.6 377.632C348.497 381.355 348.264 387.627 345.901 396.448L315.98 508.121C313.616 516.942 310.659 522.578 307.107 525.03C303.782 527.353 298.472 527.727 291.174 526.15C289.612 528.378 288.146 532.051 286.775 537.167C296.1 539.098 307.065 541.752 319.67 545.13C330.654 548.073 341.477 551.256 352.139 554.68C353.51 549.564 354.076 545.65 353.838 542.939C346.729 540.657 342.227 537.654 340.329 533.931C338.659 530.08 339.006 523.744 341.369 514.923L371.29 403.251C374.221 392.313 378.291 386.124 383.502 384.684C385.994 384.028 389.448 384.102 393.864 384.907C398.46 385.76 406.25 387.659 417.234 390.602C428.218 393.545 435.824 395.772 440.051 397.282C444.458 398.841 447.577 400.528 449.407 402.342C453.199 406.194 453.63 413.589 450.699 424.527L420.779 536.2C418.415 545.021 415.457 550.657 411.906 553.109C408.581 555.433 403.27 555.806 395.973 554.229C394.411 556.458 392.945 560.13 391.574 565.246C400.899 567.177 411.864 569.832 424.469 573.209C435.453 576.152 446.276 579.335 456.938 582.759C458.309 577.643 458.875 573.73 458.636 571.019C451.528 568.736 447.025 565.733 445.128 562.01ZM376.829 461.168C377.466 457.242 377.352 454.413 376.486 452.682C375.519 450.934 373.054 449.738 369.092 449.095C369.578 446.098 370.269 443.772 371.164 442.114C373.839 442.336 376.928 442.255 380.432 441.87C383.919 441.587 386.881 441.008 389.317 440.131C390.554 440.862 391.393 441.794 391.835 442.926C392.26 444.162 392.229 446.277 391.743 449.274C391.575 450.307 391.239 451.737 390.733 453.564C392.304 450.955 394.425 448.808 397.098 447.121C401.63 444.252 407.199 443.353 413.803 444.426C419.898 445.415 424.439 447.637 427.423 451.091C430.306 454.529 431.328 458.83 430.489 463.996C429.499 470.092 426.526 474.594 421.57 477.5C416.598 480.51 411.293 482.353 405.657 483.028C400.02 483.704 393.876 483.978 387.222 483.852C386.199 490.155 385.697 494.527 385.718 496.97C385.722 499.515 386.25 501.722 387.302 503.59C389.237 507.085 392.135 509.146 395.995 509.773C400.567 510.516 404.23 509.149 406.985 505.672C409.638 502.18 411.418 498.28 412.326 493.974C416.187 494.6 418.769 495.391 420.074 496.345C419.805 497.362 419.469 499.11 419.066 501.59C418.328 506.136 418.004 510.06 418.093 513.362C413.677 514.872 409.031 515.867 404.156 516.348C399.282 516.829 394.914 516.756 391.053 516.129C384.144 515.007 379.078 512.169 375.855 507.616C373.82 504.741 372.68 501.162 372.437 496.881C372.177 492.703 372.634 486.998 373.809 479.765L376.829 461.168ZM388.254 477.498C393.232 477.67 397.421 477.555 400.823 477.153C404.209 476.855 407.314 475.715 410.138 473.735C412.844 471.841 414.532 468.828 415.203 464.695C415.791 461.079 415.372 458.201 413.947 456.061C412.521 453.921 410.539 452.644 407.999 452.232C405.662 451.852 403.2 452.248 400.611 453.418C398.023 454.588 395.698 456.703 393.637 459.762C391.475 462.804 389.999 466.753 389.211 471.609L388.254 477.498ZM652.011 365.107C651.332 363.969 650.568 363.056 649.718 362.367C646.576 365.281 643.064 367.387 639.183 368.686C635.302 369.985 631.41 370.401 627.507 369.936C619.126 368.936 613.316 365.423 610.076 359.398C606.964 353.271 605.654 345.715 606.144 336.728C618.153 337.574 634.26 339.203 654.465 341.614C655.922 340.143 657.018 338.277 657.753 336.015C658.249 325.033 656.3 315.991 651.908 308.889C647.644 301.685 640.289 297.459 629.842 296.212C622.724 295.363 616.239 296.527 610.387 299.705C604.549 302.767 599.765 307.247 596.033 313.145C592.417 319.057 590.16 325.776 589.261 333.304C588.335 341.064 588.877 348.235 590.886 354.818C592.895 361.4 596.376 366.867 601.33 371.217C606.412 375.465 612.914 378.061 620.835 379.006C627.379 379.787 633.25 379.372 638.45 377.761C643.777 376.047 648.697 372.875 653.209 368.245C653.204 367.305 652.805 366.259 652.011 365.107ZM614.882 308.875C618.566 305.321 622.705 303.818 627.297 304.366C632.234 304.955 635.796 307.788 637.985 312.865C640.302 317.841 640.998 324.208 640.072 331.967L607.008 328.022C608.573 318.811 611.198 312.429 614.882 308.875ZM866.243 460.439C866.243 465.326 866.944 468.734 868.345 470.663C869.873 472.592 873.12 473.556 878.087 473.556C878.087 477.285 877.705 480.243 876.941 482.429C873.63 482.687 869.873 483.394 865.67 484.551C861.468 485.58 857.965 486.866 855.164 488.409C853.508 487.766 852.298 486.802 851.534 485.516C850.77 484.101 850.388 481.529 850.388 477.8C850.388 476.514 850.515 474.714 850.77 472.399C849.369 475.871 847.204 478.893 844.275 481.465C839.308 485.837 832.686 488.023 824.408 488.023C816.767 488.023 810.781 486.223 806.451 482.622C802.249 479.022 800.147 474.006 800.147 467.576C800.147 459.989 802.885 453.945 808.362 449.444C813.838 444.814 819.951 441.535 826.7 439.606C833.45 437.677 840.9 436.134 849.051 434.977C849.051 427.132 848.796 421.731 848.287 418.773C847.777 415.687 846.695 413.115 845.039 411.057C841.983 407.199 838.035 405.27 833.195 405.27C827.464 405.27 823.262 407.649 820.587 412.408C818.04 417.166 816.639 422.245 816.385 427.646C811.545 427.646 808.234 427.196 806.451 426.296C806.579 425.01 806.642 422.824 806.642 419.738C806.642 414.079 806.26 409.257 805.496 405.27C810.59 402.57 816.066 400.448 821.925 398.905C827.783 397.362 833.132 396.59 837.971 396.59C846.631 396.59 853.381 399.033 858.22 403.92C861.276 407.006 863.378 411.122 864.524 416.265C865.67 421.281 866.243 428.289 866.243 437.291L866.243 460.439ZM849.051 442.885C842.938 443.657 837.844 444.621 833.768 445.779C829.693 446.808 826.127 448.801 823.071 451.759C820.142 454.588 818.677 458.574 818.677 463.718C818.677 468.219 819.76 471.627 821.925 473.942C824.09 476.257 826.764 477.414 829.948 477.414C832.877 477.414 835.806 476.45 838.735 474.521C841.664 472.592 844.084 469.57 845.994 465.454C848.032 461.339 849.051 456.26 849.051 450.216L849.051 442.885Z" fill="#BDA995"/>
</svg>
