<svg width="1440" height="472" viewBox="0 0 1440 472" fill="none" xmlns="http://www.w3.org/2000/svg">
<path fill-rule="evenodd" clip-rule="evenodd" d="M95.2119 135.354C90.4648 131.292 85.8112 127.097 81.2534 122.766C77.2273 118.941 73.2787 115.217 69.4066 111.593C70.1309 122.571 71.2003 130.568 72.615 135.585C74.2902 141.424 78.3058 146.613 84.662 151.152L95.2119 135.354ZM121.245 155.677C128.745 161.012 136.438 166.071 144.316 170.866C138.44 172.599 133.814 173.71 130.438 174.199C124.404 174.889 118.275 173.304 112.052 169.443L121.245 155.677ZM160.104 179.99C172.006 186.517 184.291 192.49 196.929 197.945C184.374 211.112 176.318 223.612 172.762 235.443C167.552 253.439 170.744 269.702 182.339 284.233C193.935 298.763 209.14 306.088 227.956 306.208C246.772 306.327 268.152 298.996 292.095 284.214C288.372 290.211 285.963 297.323 284.868 305.548C284.033 313.565 284.161 324.922 285.253 339.619C286.555 354.58 287.073 365.626 286.807 372.757C286.456 377.813 285.339 382.777 283.456 387.648C221.675 367.824 171.067 346.016 137.252 324.032C102.536 301.462 66.5698 268.309 33.4872 231.712C37.2753 234.153 41.2561 236.767 45.4301 239.554C58.8208 248.497 69.6739 256.187 77.9895 262.625C81.8041 256.913 84.2258 252.188 85.2549 248.45C78.9653 244.25 75.6265 239.365 75.2382 233.797C74.9862 228.024 78.2661 220.037 85.0778 209.837L104.082 181.378C110.911 186.528 114.751 193.517 115.603 202.345C116.591 210.97 116.416 223.094 115.076 238.719C113.682 250.472 113.005 260.492 113.045 268.778C113.085 277.064 114.585 284.703 117.544 291.694C128.509 296.361 141.397 303.64 156.208 313.531C159.13 311.352 162.498 307.407 166.312 301.695C159.011 295.934 153.946 290.339 151.117 284.911C148.222 279.142 146.618 272.319 146.305 264.44C145.992 256.562 146.306 243.792 147.245 226.131C147.68 217.572 147.667 211.221 147.207 207.078C146.882 202.732 145.505 198.863 143.077 195.471C140.648 192.079 136.526 188.147 130.712 183.674C134.3 184.89 138.671 185.154 143.825 184.466C147.468 183.86 152.894 182.368 160.104 179.99ZM16.2367 212.021C9.02356 203.53 1.99463 194.927 -4.80213 186.296C1.91077 183.222 9.81372 179.289 18.9066 174.497C32.8252 167.273 44.1266 162.431 52.8104 159.97C61.4944 157.51 69.455 158.549 76.6924 163.087L57.6876 191.546C50.876 201.746 44.7556 207.836 39.3268 209.815C34.0341 211.59 28.2429 210.378 21.9534 206.178C20.1757 207.563 18.2701 209.511 16.2367 212.021ZM-26.058 158.185C-114.282 36.5661 -145.738 -72.9978 14.3755 62.362C14.1764 62.5978 13.9763 62.8339 13.7753 63.0705C13.6091 63.266 13.4424 63.4618 13.275 63.6579C16.8517 68.4062 21.6167 72.4732 27.5701 75.8588C27.9338 75.4377 28.2911 75.0284 28.6421 74.6309C37.0005 81.9344 45.8246 89.8375 55.1301 98.3673C55.2006 99.377 55.2714 100.416 55.3425 101.485C55.9797 113.71 56.9679 122.334 58.3069 127.358C59.443 132.246 61.2601 136.115 63.7585 138.963C57.3994 135.306 52.188 133.006 48.1244 132.062C44.0608 131.119 39.9595 131.33 35.8203 132.695C31.8175 133.857 25.9465 136.279 18.2075 139.96C2.25415 147.595 -9.42114 152.778 -16.8181 155.508C-20.006 156.684 -23.0859 157.577 -26.058 158.185ZM321.978 234.488C308.181 231.998 294.623 229.139 281.328 225.882L286.116 238.739C285.191 239.668 284.266 240.326 283.339 240.714L242.323 223.798L260.173 245.733C261.22 247.007 262.13 248.029 262.905 248.8C264.261 250.151 265.441 250.825 266.446 250.823C267.45 250.822 268.762 250.163 270.381 248.847C271.348 249.348 272.296 250.061 273.226 250.987C271.145 252.844 268.737 255.147 266.001 257.894C263.15 260.757 260.896 263.136 259.24 265.032C258.194 263.991 257.438 263.045 256.973 262.196C257.82 261.19 258.3 260.204 258.413 259.238C258.527 258.272 258.234 257.133 257.535 255.821C256.797 254.47 255.556 252.733 253.812 250.611L234.567 227.287C234.257 226.901 233.792 226.4 233.172 225.783C231.545 224.163 230.075 223.353 228.761 223.356C227.409 223.396 226.078 224.074 224.769 225.39C223.84 224.851 222.911 224.118 221.981 223.192C223.638 221.76 225.161 220.348 226.547 218.955C228.243 217.252 229.687 215.685 230.881 214.254L275.613 233.598L271.756 223.455C253.467 218.661 235.7 213.083 218.519 206.639C215.373 211.673 213.234 216.647 212.103 221.562C209.316 234.597 212.349 246.663 221.204 257.759C231.534 270.704 244.688 275.991 260.665 273.619C276.642 271.248 293.469 263.009 311.145 248.904C313.484 247.037 317.822 243.143 324.159 237.221L321.978 234.488ZM826.299 224.587C847.472 222.11 868.589 219.576 889.594 217.056C892.297 216.732 894.998 216.408 897.697 216.084C893.094 227.638 890.792 240.805 890.792 255.585C890.792 272.561 894.434 287.79 901.716 301.271C908.747 314.753 918.791 325.363 931.849 333.102C944.656 340.841 959.346 344.711 975.919 344.711C992.995 344.711 1007.94 341.091 1020.74 333.851C1033.55 326.362 1043.47 315.876 1050.5 302.395C1057.53 288.914 1061.05 273.31 1061.05 255.585C1061.05 238.858 1057.41 223.754 1050.12 210.273C1048.11 206.479 1045.89 202.913 1043.45 199.577C1064.64 197.451 1085.54 195.534 1106.09 193.911L1133.74 297.1C1136.27 306.541 1136.64 313.321 1134.85 317.443C1132.82 321.427 1128 324.641 1120.39 327.084C1120.14 329.985 1120.74 334.174 1122.21 339.649C1133.62 335.984 1145.21 332.577 1156.96 329.428C1170.45 325.813 1182.19 322.973 1192.17 320.906C1190.7 315.43 1189.13 311.5 1187.46 309.115C1179.65 310.803 1173.96 310.403 1170.41 307.916C1166.6 305.292 1163.44 299.26 1160.91 289.82L1134.66 191.835C1145.29 191.135 1155.81 190.526 1166.22 190.02C1166.06 191.448 1165.85 192.944 1165.59 194.509C1165.16 197.163 1164.8 199.034 1164.52 200.122C1165.91 201.143 1168.68 201.989 1172.81 202.66C1173.78 198.052 1175.69 193.878 1178.52 190.14C1178.72 189.899 1178.91 189.667 1179.11 189.445C1185.06 189.204 1190.98 188.999 1196.85 188.833C1197.91 189.799 1198.82 190.978 1199.59 192.369C1200.72 194.368 1201.28 196.73 1201.28 199.454C1201.31 202.068 1200.77 206.747 1199.67 213.492C1192.55 213.357 1185.98 213.651 1179.95 214.374C1173.91 215.097 1168.24 217.069 1162.91 220.291C1157.61 223.401 1154.43 228.219 1153.37 234.743C1152.47 240.272 1153.57 244.875 1156.65 248.554C1159.84 252.251 1164.7 254.629 1171.23 255.688C1178.3 256.836 1184.25 255.874 1189.11 252.803C1191.97 250.998 1194.24 248.699 1195.92 245.908C1195.38 247.863 1195.02 249.394 1194.84 250.499C1194.32 253.706 1194.28 255.97 1194.74 257.293C1195.21 258.504 1196.11 259.502 1197.43 260.284C1200.04 259.345 1203.21 258.725 1206.94 258.423C1210.69 258.011 1214 257.924 1216.86 258.162C1217.82 256.388 1218.56 253.898 1219.08 250.691C1214.84 250.002 1212.2 248.723 1211.16 246.852C1210.24 244.999 1210.12 241.972 1210.8 237.77L1214.03 217.866C1215.29 210.126 1215.78 204.02 1215.5 199.549C1215.25 195.177 1214.13 191.489 1212.13 188.487C1216.38 188.415 1220.61 188.366 1224.81 188.339L1245.9 267.049C1248.43 276.49 1248.8 283.27 1247.01 287.392C1244.98 291.376 1240.16 294.59 1232.55 297.033C1232.3 299.934 1232.9 304.123 1234.37 309.598C1245.78 305.933 1257.36 302.526 1269.12 299.377C1269.85 299.181 1270.57 298.988 1271.29 298.797L1162.13 352.858C1150.22 358.757 1141.29 361.092 1135.34 359.864C1129.51 358.279 1123.99 352.815 1118.77 343.474L1116.46 338.805C1111.58 336.748 1106.41 337.076 1100.93 339.79C1087.46 350.335 1067.74 362.039 1041.77 374.899C1042.72 379.202 1043.84 382.67 1045.15 385.304C1046.45 387.938 1048.65 391.173 1051.73 395.011C1072.1 384.625 1092.71 376.209 1113.55 369.765C1117.82 377.787 1127.6 397.242 1142.89 428.127L1145.69 433.771C1128.89 438.726 1111.48 443.139 1093.56 447.038C1094.55 446.528 1095.62 446.059 1096.76 445.629C1096.6 441.875 1095.35 436.879 1093 430.64C1083.83 434.85 1072.02 439.674 1057.56 445.111C1043.1 450.548 1031.03 454.703 1021.36 457.577C1021.62 458.263 1021.88 458.93 1022.14 459.576C993.944 463.448 964.873 466.28 935.203 468.16L935.203 463.834C935.203 458.194 936.051 454.414 937.747 452.497C939.33 450.466 942.383 449.338 946.906 449.112C947.321 447.953 947.584 446.337 947.694 444.266C963.119 449.021 979.871 448 997.951 441.202C1015.92 434.447 1028.88 424.36 1036.83 410.94C1044.49 397.381 1045.13 382.134 1038.77 365.199C1030.33 364.048 1022.08 365.371 1014 369.17C1017.17 384.254 1016.77 396.486 1012.8 405.864C1008.74 415.02 1000.68 421.863 988.632 426.394C976.583 430.925 966.343 430.96 957.915 426.5C949.183 421.899 941.588 412.674 935.131 398.825C933.514 399.179 931.391 399.85 928.761 400.839C921.97 403.393 916.802 406.607 913.258 410.483C919.079 425.964 928.604 436.522 941.833 442.155C938.431 442.281 934.525 442.343 930.114 442.343L917.902 442.174C915.189 442.061 911.174 442.005 905.86 442.005C894.779 442.005 886.015 443.866 879.57 447.589C873.012 451.199 869.733 457.573 869.733 466.711C869.733 468.109 869.815 469.466 869.979 470.782C853 471.091 835.898 471.123 818.721 470.894C818.201 463.866 815.299 458.181 810.015 453.838C804.154 448.884 797.612 445.374 790.388 443.31C783.165 441.245 775.191 439.594 766.468 438.355C766.468 429.96 766.741 424.179 767.286 421.014C767.831 417.711 768.99 414.958 770.762 412.756C774.033 408.627 778.258 406.563 783.437 406.563C789.57 406.563 794.068 409.109 796.93 414.201C799.656 419.293 801.156 424.73 801.428 430.51C806.607 430.51 810.151 430.028 812.059 429.065C811.923 427.689 811.855 425.349 811.855 422.046C811.855 415.99 812.264 410.829 813.081 406.563C807.63 403.672 801.769 401.402 795.499 399.75C789.23 398.098 783.505 397.273 778.326 397.273C769.058 397.273 761.834 399.888 756.655 405.118C753.384 408.421 751.135 412.825 749.909 418.33C748.682 423.697 748.068 431.198 748.068 440.832L748.068 465.606C748.068 466.645 748.039 467.622 747.98 468.536C704.516 466.244 661.006 462.441 618.229 457.379C618.423 456.541 618.59 455.666 618.729 454.753C611.854 452.883 606.813 449.655 603.608 445.069C600.403 440.484 599.62 432.828 601.259 422.102L603.277 408.894L677.232 420.197C684.071 421.242 688.567 423.24 690.72 426.191C692.69 429.277 693.332 434.126 692.647 440.738C694.433 441.83 697.474 442.705 701.768 443.361C702.734 433.843 704.013 423.881 705.603 413.475C707.218 402.909 708.79 394.22 710.319 387.409C705.866 386.729 702.385 386.606 699.877 387.042C699.119 392.005 697.137 395.388 693.932 397.192C690.567 398.971 684.909 399.253 676.957 398.038L628.29 390.6C620.338 389.385 615.102 387.438 612.581 384.759C609.902 382.056 608.942 378.223 609.7 373.26C607.437 372.095 604.079 371.172 599.625 370.491C598.512 380.97 596.879 393.254 594.726 407.342C591.549 428.126 589.078 443.508 587.312 453.486C583.664 452.999 580.022 452.503 576.387 451.999C578.03 444.042 578.851 435.587 578.851 426.633C578.851 408.471 574.92 392.07 567.059 377.432C559.198 362.522 548.354 350.866 534.529 342.462C520.433 334.059 504.574 329.857 486.954 329.857C458.49 329.857 436.126 338.667 419.861 356.287C404.902 372.227 396.709 392.937 395.282 418.416C369.257 412.28 344.273 405.759 320.592 398.936C323.464 397.24 326.231 395.697 328.893 394.306C332.376 383.743 333.91 374.735 333.495 367.283C333.079 359.831 330.955 347.039 327.123 328.908L324.771 317.164C322.282 304.448 320.911 294.731 320.657 288.015C320.403 281.299 321.593 275.593 324.227 270.896C326.91 265.728 331.631 260.447 338.39 255.054L359.577 281.605C369.908 294.55 375.386 304.881 376.012 312.597C376.899 320.106 374.223 326.349 367.984 331.328C369.847 336.328 373.73 342.526 379.633 349.924C386.279 343.323 398.829 332.659 417.285 317.931C434.181 304.448 448.664 293.54 460.733 285.205C454.83 277.808 449.648 272.646 445.186 269.721C437.128 276.151 429.382 278.441 421.948 276.589C414.303 274.474 405.21 266.811 394.669 253.602L386.537 243.411C434.332 248.176 484.324 249.435 535.616 248.297C526.445 262.738 523.405 277.256 526.497 291.851C529.773 307.876 540.197 322.258 557.77 334.997C569.625 343.591 583.183 349.688 598.445 353.287C601.207 348.891 603.5 345.434 605.324 342.918C608.263 338.864 611.361 335.031 614.617 331.42C613.044 327.72 610.273 324.645 606.305 322.195C599.147 330.015 592.367 334.378 585.966 335.283C579.426 336.087 572.181 333.607 564.232 327.844C553.353 319.958 547.006 310.665 545.189 299.964C543.474 289.123 546.474 277.648 554.189 265.538C573.435 279.491 589.81 291.681 603.313 302.11C606.961 297.077 609.032 292.607 609.525 288.698L562.246 254.424C564.622 251.738 567.043 249.335 569.509 247.216C587.585 246.471 605.796 245.464 624.103 244.242C624.194 244.308 624.285 244.373 624.376 244.439C631.21 249.394 635.173 254.933 636.266 261.056C637.219 267.079 634.813 274.506 629.049 283.337C633.233 286.371 636.935 288.308 640.155 289.149C647.249 279.363 653.128 272.427 657.791 268.343C652.433 259.106 645.661 250.762 637.475 243.314C682.766 240.047 728.588 235.54 774.37 230.5L801.496 301.834L689.154 253.253C686.156 256.848 682.529 260.783 678.271 265.059C674.788 268.557 670.965 272.105 666.802 275.701C669.137 278.026 671.471 279.866 673.803 281.221C677.093 277.917 680.436 276.213 683.832 276.111C687.13 276.106 690.823 278.138 694.909 282.207C696.466 283.757 697.633 285.016 698.412 285.985L746.744 344.562C751.125 349.892 754.242 354.253 756.094 357.646C757.85 360.942 758.585 363.803 758.301 366.229C758.016 368.655 756.81 371.131 754.682 373.657C755.852 375.79 757.751 378.164 760.378 380.78C764.537 376.019 770.197 370.043 777.357 362.852C784.227 355.953 790.276 350.171 795.502 345.505C793.167 343.18 790.785 341.389 788.356 340.131C784.29 343.436 780.996 345.091 778.473 345.095C775.95 345.099 772.987 343.406 769.581 340.015C767.636 338.077 765.349 335.51 762.72 332.312L717.891 277.223L820.901 319.706C823.227 318.732 825.552 317.079 827.874 314.746L795.62 228.124C800.833 227.533 806.043 226.936 811.251 226.335L839.339 249.237C842.548 251.851 845.223 254.224 847.363 256.355C851.838 260.812 854.226 264.64 854.526 267.842C854.631 271.044 853.04 274.587 849.752 278.474C850.922 280.606 852.772 282.932 855.301 285.451C859.654 280.496 864.685 275.152 870.394 269.418C876.103 263.685 881.087 258.971 885.346 255.278C882.914 252.856 880.58 251.016 878.345 249.758C875.344 252.188 872.582 253.6 870.061 253.992C867.539 254.384 864.481 253.564 860.885 251.532C857.096 249.5 851.943 245.821 845.428 240.495L826.299 224.587ZM769.079 469.529C767.339 465.398 766.468 460.443 766.468 454.664L766.468 446.819C773.011 447.645 778.462 448.677 782.824 449.916C787.185 451.017 791.002 453.15 794.273 456.316C797.408 459.343 798.975 463.61 798.975 469.115C798.975 469.594 798.963 470.062 798.941 470.517C789.002 470.272 779.045 469.941 769.079 469.529ZM1301.97 283.605L1312.94 278.172C1324.85 272.272 1332 266.644 1334.39 261.286C1336.9 255.571 1336.02 247.807 1331.76 237.994C1334.26 235.391 1338.51 232.55 1344.49 229.47C1340.1 226.335 1336.74 224.074 1334.38 222.687C1336.97 219.223 1339.25 216.789 1341.24 215.386C1344.16 217.56 1347.22 218.015 1350.43 216.751C1353.76 215.578 1357.69 211.96 1362.21 205.897L1367.18 199.232C1358.88 197.656 1350.39 196.271 1341.72 195.062L1337.61 197.077C1330.05 200.875 1324.65 203.299 1321.41 204.348C1318.17 205.398 1314.02 205.768 1308.96 205.459C1304.83 200.913 1299.1 195.792 1291.76 190.096C1279.44 189.311 1266.84 188.8 1253.98 188.535L1273.07 259.769C1275.6 269.209 1278.76 275.241 1282.56 277.865C1286.12 280.352 1291.81 280.752 1299.62 279.064C1300.42 280.217 1301.21 281.731 1301.97 283.605ZM535.799 445.956C527.499 444.636 519.249 443.273 511.054 441.867L511.054 410.269C511.054 406.937 511.554 404.704 512.554 403.571C513.487 402.371 515.286 401.705 517.952 401.571C518.286 400.638 518.452 399.205 518.452 397.273C514.786 397.473 506.089 397.573 492.359 397.573L481.562 397.573C468.166 397.573 459.469 397.473 455.47 397.273C455.47 399.205 455.636 400.638 455.97 401.571C458.635 401.705 460.468 402.371 461.468 403.571C462.401 404.704 462.868 406.937 462.868 410.269L462.868 433.001C453.743 431.206 444.709 429.36 435.773 427.468C436.168 412.856 438.726 399.837 443.445 388.411C448.325 375.941 454.966 366.317 463.37 359.54C471.773 352.763 480.99 349.375 491.02 349.375C506.201 349.375 517.857 355.61 525.99 368.079C533.851 380.549 537.782 397.221 537.782 418.094C537.782 428.212 537.121 437.499 535.799 445.956ZM472.265 434.826C481.969 436.687 491.77 438.49 501.657 440.233L501.657 410.269C501.657 406.137 500.824 403.571 499.157 402.571C498.358 402.105 497.158 401.805 495.558 401.671C493.892 401.538 491.026 401.471 486.961 401.471C482.895 401.471 480.063 401.538 478.463 401.671C476.797 401.805 475.564 402.105 474.764 402.571C473.098 403.571 472.265 406.137 472.265 410.269L472.265 434.826ZM939.965 211.045C964.483 208.152 988.782 205.356 1012.77 202.774C1019.59 214.13 1023 229.112 1023 247.721C1023 272.686 1018.61 292.159 1009.82 306.14C1000.78 319.871 988.475 326.736 972.906 326.736C958.341 326.736 947.293 320.744 939.759 308.761C932.226 296.778 928.459 280.55 928.459 260.079C928.459 245.1 930.845 231.868 935.616 220.384C936.928 217.05 938.378 213.937 939.965 211.045ZM1161.08 429.024C1157.28 420.031 1155.52 413.431 1155.78 409.222C1156.39 401.467 1164.08 393.932 1178.85 386.616L1329.66 311.931C1341.57 306.031 1350.44 303.874 1356.27 305.46C1362.22 306.688 1367.8 311.973 1373.02 321.314C1376.95 320.859 1382.37 318.921 1389.28 315.499C1381.45 301.488 1373.92 287.179 1366.68 272.574C1359.06 257.177 1352.69 243.551 1347.56 231.694C1349.2 232.889 1350.96 234.185 1352.83 235.581C1360.73 241.469 1367.21 246.591 1372.27 250.947C1374.86 247.483 1376.54 244.596 1377.31 242.288C1373.55 239.48 1371.65 236.328 1371.61 232.833C1371.66 229.214 1373.99 224.312 1378.61 218.125L1389.17 203.96C1447.93 218.175 1496.17 243.306 1529.96 284.205C1484.44 321.457 1472.56 318.284 1455.52 313.729C1432.61 307.606 1400.36 298.985 1264.46 382.705C1234.16 401.373 1199.33 416.694 1161.08 429.024ZM887.06 470.377C897.855 470.06 908.592 469.628 919.259 469.077L919.259 449.958C917.111 449.394 914.793 449.112 912.305 449.112C905.521 449.112 899.641 450.917 894.666 454.527C889.881 457.816 887.346 463.099 887.06 470.377ZM957.933 270.433C957.933 272.778 957.6 274.373 956.935 275.218C956.221 276.015 954.914 276.461 953.013 276.555C952.775 277.211 952.656 278.22 952.656 279.58C955.508 279.44 958.384 279.369 961.284 279.369C964.612 279.369 967.487 279.44 969.912 279.58C969.912 278.22 969.793 277.211 969.555 276.555C967.654 276.461 966.37 276.015 965.705 275.218C964.992 274.373 964.635 272.778 964.635 270.433L964.635 256.5C975.331 256.5 982.58 256.617 986.383 256.852L986.383 270.433C986.383 272.778 986.05 274.373 985.385 275.218C984.672 276.015 983.365 276.461 981.463 276.555C981.225 277.211 981.107 278.22 981.107 279.58C983.959 279.44 986.835 279.369 989.734 279.369C993.062 279.369 995.938 279.44 998.362 279.58C998.362 278.22 998.243 277.211 998.005 276.555C996.104 276.461 994.821 276.015 994.155 275.218C993.442 274.373 993.086 272.778 993.086 270.433L993.086 240.737C993.086 238.392 993.442 236.82 994.155 236.023C994.821 235.178 996.104 234.709 998.005 234.615C998.243 233.959 998.362 232.95 998.362 231.589C995.748 231.73 992.872 231.801 989.734 231.801C986.835 231.801 983.959 231.73 981.107 231.589C981.107 232.95 981.225 233.959 981.463 234.615C983.365 234.709 984.672 235.178 985.385 236.023C986.05 236.82 986.383 238.392 986.383 240.737L986.383 253.474L964.635 253.474L964.635 240.737C964.635 238.392 964.992 236.82 965.705 236.023C966.37 235.178 967.654 234.709 969.555 234.615C969.793 233.959 969.912 232.95 969.912 231.589C967.297 231.73 964.421 231.801 961.284 231.801C958.384 231.801 955.508 231.73 952.656 231.589C952.656 232.95 952.775 233.959 953.013 234.615C954.914 234.709 956.221 235.178 956.935 236.023C957.6 236.82 957.933 238.392 957.933 240.737L957.933 270.433ZM1198.57 220.293C1193.24 220.109 1188.76 220.232 1185.12 220.662C1181.5 220.981 1178.17 222.201 1175.15 224.32C1172.25 226.347 1170.45 229.572 1169.73 233.995C1169.1 237.865 1169.55 240.945 1171.07 243.236C1172.6 245.526 1174.72 246.892 1177.44 247.334C1179.94 247.74 1182.58 247.317 1185.35 246.064C1188.12 244.811 1190.6 242.548 1192.81 239.275C1195.12 236.019 1196.7 231.793 1197.55 226.596L1198.57 220.293ZM876.066 405.394C876.351 404.004 876.406 402.731 876.232 401.574C871.646 401.608 867.351 400.738 863.346 398.964C859.342 397.189 855.966 394.709 853.217 391.524C847.316 384.685 845.26 377.715 847.048 370.616C849.011 363.529 853.43 356.611 860.303 349.864C869.182 359.199 880.735 372.111 894.962 388.6C897.174 388.489 899.387 387.805 901.601 386.549C909.919 378.228 914.905 369.676 916.56 360.894C918.391 352.124 915.628 343.476 908.272 334.951C903.26 329.142 897.295 325.382 890.377 323.67C883.554 321.876 876.539 321.963 869.334 323.93C862.21 325.992 855.576 329.673 849.433 334.973C843.101 340.437 838.353 346.494 835.19 353.146C832.026 359.798 830.832 366.63 831.607 373.643C832.557 380.668 835.821 387.412 841.398 393.877C846.006 399.217 850.946 403.126 856.217 405.605C861.664 408.097 867.841 409.141 874.748 408.738C875.423 407.992 875.862 406.877 876.066 405.394ZM887.311 334.16C892.787 334.011 897.143 335.81 900.376 339.557C903.852 343.586 904.622 348.396 902.687 353.987C900.928 359.591 896.882 365.125 890.55 370.589L867.27 343.607C875.154 337.458 881.834 334.309 887.311 334.16Z" fill="#BDA995"/>
</svg>
