<svg width="406" height="155" viewBox="0 0 406 155" fill="none" xmlns="http://www.w3.org/2000/svg">
<path d="M19.748 41.3027H11.7439V73.1561H0V0.679688H11.7439V29.7079H19.748V0.679688H31.4919V73.1513H19.748V41.3027Z" fill="black"/>
<path d="M51.5486 73.9324H49.2596C39.9079 73.9324 34.9182 69.1595 34.9182 60.1969V45.6853H46.559V58.3504C46.559 61.6626 47.7009 63.4175 50.4067 63.4175C53.2101 63.4175 54.2492 61.6626 54.2492 57.1837V55.5301C54.2492 50.3666 53.7297 48.5153 49.4705 43.3518L41.986 34.3845C36.9964 28.3484 35.5458 23.6719 35.5458 16.4642V14.126C35.5458 4.47885 40.7412 0 49.99 0H52.1762C61.8417 0 65.5814 3.99192 65.5814 12.5639V24.4481H54.2544V14.0247C54.2544 11.5901 53.7348 9.73873 50.9314 9.73873C48.1279 9.73873 47.5003 11.3924 47.5003 14.8058V16.1702C47.5003 20.2633 48.3337 22.5003 52.2791 27.2733L59.7635 36.3322C65.0618 42.7588 66.7233 46.4615 66.7233 54.643V56.9812C66.7233 67.6022 61.8365 73.9324 51.5486 73.9324Z" fill="black"/>
<path d="M96.7588 0.679688V11.1995H81.7897V30.1948H93.5335V41.2015H81.7897V62.1446H97.3812V73.1513H70.0459V0.679688H96.7588Z" fill="black"/>
<path d="M129.084 59.5171H120.56L119.001 73.1561H108.502L117.962 0.679688H131.887L141.97 73.1513H130.642L129.084 59.5171ZM127.834 48.7032L124.716 21.9169L121.702 48.7032H127.834Z" fill="black"/>
<path d="M155.584 73.1513H143.84V0.679688H162.857C170.65 0.679688 174.601 3.79898 174.601 11.8792V24.7373C174.601 30.7782 171.587 33.1164 169.508 33.9891C172.106 35.0594 174.601 37.0071 174.601 41.8813V67.3033C174.601 70.2249 175.223 71.5893 175.743 72.6596V73.1465H164.102C163.582 72.3655 162.96 71.1023 162.96 67.2068V45.3911C162.96 42.1754 162.338 40.811 158.598 40.811H155.584V73.1513ZM155.584 30.4889H158.701C161.926 30.4889 162.96 28.5412 162.96 25.3254V15.1962C162.96 12.0769 162.235 10.5197 158.701 10.5197H155.584V30.4889Z" fill="black"/>
<path d="M198.303 11.1995V73.1513H186.662V11.1995H176.791V0.679688H208.18V11.1995H198.303Z" fill="black"/>
<path d="M239.767 59.5171H231.244L229.685 73.1561H219.186L228.646 0.679688H242.571L252.653 73.1513H241.326L239.767 59.5171ZM238.522 48.7032L235.405 21.9169L232.391 48.7032H238.522Z" fill="black"/>
<path d="M265.127 0.679688L275.209 39.5479V0.679688H285.913V73.1513H276.351L265.127 31.4628V73.1513H254.525V0.679688H265.127Z" fill="black"/>
<path d="M290.282 0.679688H308.261C318.343 0.679688 321.46 6.03598 321.46 14.608V58.7311C321.46 67.5972 317.926 73.1464 308.261 73.1464H290.282V0.679688ZM302.026 62.6314H304.83C308.364 62.6314 309.403 60.8765 309.403 56.981V16.17C309.403 11.9805 308.261 10.5196 305.349 10.5196H302.026V62.6314Z" fill="black"/>
<path d="M0 79.4497H18.2574C28.4962 79.4497 31.6619 84.8892 31.6619 93.5943V138.403C31.6619 147.407 28.0731 153.042 18.2574 153.042H0V79.4497ZM11.9261 142.364H14.7783C18.3671 142.364 19.4224 140.582 19.4224 136.626V95.1758C19.4224 90.9211 18.2627 89.4376 15.306 89.4376H11.9261V142.364Z" fill="black"/>
<path d="M63.0111 79.4497V90.1328H47.8148V109.423H59.7409V120.601H47.8148V141.869H63.6484V153.047H35.8887V79.4497H63.0111Z" fill="black"/>
<path d="M82.6428 153.839H80.3182C70.8211 153.839 65.7539 148.992 65.7539 139.891V125.153H77.5756V138.015C77.5756 141.379 78.7353 143.161 81.4779 143.161C84.3249 143.161 85.3854 141.379 85.3854 136.831V135.151C85.3854 129.908 84.8577 128.027 80.5323 122.784L72.9316 113.682C67.8644 107.547 66.386 102.798 66.386 95.4787V93.1041C66.386 83.3121 71.6621 78.7588 81.0547 78.7588H83.2697C93.0854 78.7588 96.8832 82.8127 96.8832 91.5178V103.587H85.3801V93.0013C85.3801 90.5288 84.8525 88.6488 82.0003 88.6488C79.1532 88.6488 78.5159 90.3281 78.5159 93.7945V95.18C78.5159 99.3368 79.3622 101.609 83.3689 106.456L90.9697 115.655C96.3503 122.182 98.0429 125.942 98.0429 134.25V136.625C98.0533 147.411 93.0958 153.839 82.6428 153.839Z" fill="black"/>
<path d="M113.353 153.047H101.427V79.4497H113.353V153.047Z" fill="black"/>
<path d="M128.872 154.04C121.908 154.04 117.473 148.204 117.473 140.586V94.5876C117.473 86.377 120.853 78.7588 132.142 78.7588H134.467C147.239 78.7588 148.717 86.5729 148.717 95.278V102.793H137.11V94.4897C137.11 91.2241 136.264 89.4419 133.312 89.4419C130.779 89.4419 129.619 91.2241 129.619 94.4897V137.521C129.619 140.982 131.097 142.765 133.521 142.765C136.582 142.765 137.956 140.787 137.956 138.015V119.616H132.576V108.341H149.25V153.051H142.496C142.391 152.655 141.441 148.997 140.49 145.829C139.644 148.302 135.637 154.04 129.619 154.04H128.872Z" fill="black"/>
<path d="M164.124 79.4497L174.363 118.921V79.4497H185.234V153.047H175.523L164.124 110.711V153.047H153.358V79.4497H164.124Z" fill="black"/>
<path d="M216.37 153.839H214.045C204.548 153.839 199.481 148.992 199.481 139.891V125.153H211.303V138.015C211.303 141.379 212.463 143.161 215.21 143.161C218.057 143.161 219.113 141.379 219.113 136.831V135.151C219.113 129.908 218.585 128.027 214.26 122.784L206.659 113.682C201.592 107.547 200.113 102.798 200.113 95.4787V93.1041C200.113 83.3121 205.389 78.7588 214.782 78.7588H217.002C226.818 78.7588 230.616 82.8127 230.616 91.5178V103.587H219.113V93.0013C219.113 90.5288 218.585 88.6488 215.738 88.6488C212.891 88.6488 212.254 90.3281 212.254 93.7945V95.18C212.254 99.3368 213.1 101.609 217.107 106.456L224.707 115.655C230.088 122.182 231.775 125.942 231.775 134.25V136.625C231.78 147.411 226.818 153.839 216.37 153.839Z" fill="black"/>
<path d="M254.681 138.113V121.002H266.398V138.015C266.398 145.927 263.655 153.942 252.147 153.942H249.509C237.478 153.942 234.84 145.83 234.84 138.412V93.5007C234.84 85.9853 238.325 78.7637 249.086 78.7637H251.828C264.914 78.7637 266.393 86.8764 266.393 94.098V107.254H254.675V94.2939C254.675 91.1262 253.62 89.4468 250.663 89.4468C247.707 89.4468 246.97 91.0282 246.97 94.2939V138.015C246.97 141.281 248.13 143.058 250.768 143.058C253.625 143.058 254.681 141.08 254.681 138.113Z" fill="black"/>
<path d="M290.248 120.704H282.12V153.052H270.194V79.4497H282.12V108.929H290.248V79.4497H302.175V153.047H290.248V120.704Z" fill="black"/>
<path d="M338.905 136.63C338.905 146.916 335.212 153.942 323.709 153.942H321.703C310.304 153.942 306.292 146.921 306.292 136.63V95.6745C306.292 85.4859 310.409 78.7588 321.593 78.7588H323.599C335.206 78.7588 338.9 85.4859 338.9 95.5766V136.63H338.905ZM326.77 95.0821C326.77 91.2241 325.396 89.4419 322.654 89.4419C319.592 89.4419 318.433 91.322 318.433 95.0821V137.418C318.433 140.586 319.383 143.058 322.758 143.058C325.924 143.058 326.77 140.586 326.77 137.418V95.0821Z" fill="black"/>
<path d="M375.32 136.63C375.32 146.916 371.627 153.942 360.118 153.942H358.113C346.714 153.942 342.702 146.921 342.702 136.63V95.6745C342.702 85.4859 346.819 78.7588 358.008 78.7588H360.014C371.621 78.7588 375.315 85.4859 375.315 95.5766V136.63H375.32ZM363.18 95.0821C363.18 91.2241 361.806 89.4419 359.063 89.4419C356.002 89.4419 354.842 91.322 354.842 95.0821V137.418C354.842 140.586 355.788 143.058 359.168 143.058C362.333 143.058 363.18 140.586 363.18 137.418V95.0821Z" fill="black"/>
<path d="M391.357 79.4497V141.668H405.922V153.042H379.431V79.4497H391.357Z" fill="black"/>
</svg>
