<svg width="1440" height="339" viewBox="0 0 1440 339" fill="none" xmlns="http://www.w3.org/2000/svg">
<path fill-rule="evenodd" clip-rule="evenodd" d="M595.524 94.9917C613.293 94.3725 631.22 93.7267 649.264 93.0765L649.287 93.0757L649.291 93.0756L649.292 93.0755L649.293 93.0755L649.294 93.0755L649.294 93.0755L649.295 93.0755L649.295 93.0755L649.296 93.0755L649.334 93.0741C660.412 92.675 671.534 92.2743 682.691 91.8772L682.691 105.268C682.691 110.498 681.942 114.145 680.442 116.21C678.807 118.274 675.331 119.306 670.016 119.306C670.016 123.298 670.425 126.463 671.242 128.803C674.786 129.078 678.807 129.835 683.305 131.074C687.802 132.175 691.55 133.551 694.549 135.203C696.321 134.514 697.616 133.482 698.433 132.106C699.251 130.592 699.66 127.839 699.66 123.848C699.66 122.472 699.524 120.545 699.251 118.068C700.75 121.784 703.067 125.018 706.202 127.771C711.518 132.45 718.605 134.79 727.464 134.79C735.642 134.79 742.048 132.863 746.682 129.009C751.18 125.156 753.429 119.788 753.429 112.907C753.429 104.786 750.498 98.3179 744.638 93.5009C743.103 92.204 741.523 91.006 739.895 89.9071C822.72 87.1842 906.549 85.137 987.574 85.8424C989.552 90.6105 992.456 94.725 996.286 98.1857C1004.1 105.343 1015.03 108.922 1029.09 108.922C1038.57 108.922 1048 106.965 1057.37 103.05C1057.14 99.6955 1057.03 97.0115 1057.03 94.9985C1057.03 92.3635 1057.14 89.7654 1057.36 87.2042C1064.97 87.4426 1072.53 87.7119 1080.06 88.0142C1081.32 92.2132 1082.66 95.3169 1084.06 97.3251C1091.87 95.6374 1097.68 96.1055 1101.48 98.7295C1105.04 101.216 1108.08 107.18 1110.61 116.62L1142.63 236.135C1145.16 245.576 1145.53 252.356 1143.75 256.478C1141.71 260.462 1136.9 263.676 1129.29 266.119C1129.03 269.02 1129.64 273.209 1131.11 278.684C1142.52 275.019 1154.1 271.612 1165.86 268.463C1179.35 264.848 1191.08 262.008 1201.06 259.941C1199.59 254.465 1198.02 250.535 1196.35 248.15C1188.54 249.838 1182.86 249.438 1179.3 246.951C1175.5 244.327 1172.33 238.295 1169.8 228.855L1137.78 109.34C1135.69 101.525 1135.2 95.4002 1136.31 90.9649C1167.2 92.9952 1197.24 95.6965 1226.15 99.2083L1254.79 206.084C1257.32 215.525 1257.69 222.305 1255.9 226.427C1253.87 230.411 1249.05 233.625 1241.45 236.068C1241.19 238.969 1241.8 243.158 1243.26 248.633C1254.68 244.968 1266.26 241.561 1278.01 238.412C1278.74 238.216 1279.47 238.023 1280.19 237.832L1171.03 291.893C1167.7 293.54 1164.61 294.91 1161.75 296.002C1152.84 294.711 1143.8 293.542 1134.64 292.486C1132.26 289.892 1129.93 286.567 1127.67 282.51L1125.35 277.841C1120.48 275.783 1115.3 276.111 1109.82 278.825C1105.74 282.022 1101.08 285.325 1095.85 288.734C1041.52 284.415 983.53 283.473 923.877 284.482C922.405 280.963 920.168 277.464 917.167 273.986C912.155 268.177 906.19 264.417 899.272 262.704C892.449 260.911 885.434 260.998 878.229 262.965C871.105 265.027 864.471 268.708 858.328 274.008C853.775 277.936 850.042 282.171 847.127 286.714C831.357 287.34 815.533 288.056 799.688 288.838C801.326 287.313 802.895 285.881 804.397 284.54C802.062 282.215 799.68 280.424 797.251 279.166C793.185 282.471 789.891 284.126 787.368 284.13C784.845 284.134 781.882 282.44 778.476 279.05C776.531 277.112 774.244 274.545 771.615 271.347L726.786 216.258L829.796 258.741C832.122 257.767 834.447 256.114 836.769 253.781L796.745 146.291L848.234 188.271C851.443 190.886 854.118 193.259 856.258 195.39C860.733 199.847 863.121 203.675 863.421 206.877C863.526 210.078 861.935 213.622 858.647 217.508C859.817 219.641 861.667 221.967 864.196 224.486C868.549 219.531 873.58 214.186 879.289 208.453C884.998 202.72 889.982 198.006 894.241 194.313C891.808 191.891 889.475 190.051 887.24 188.793C884.239 191.223 881.477 192.635 878.956 193.027C876.434 193.419 873.376 192.599 869.78 190.567C865.991 188.535 860.838 184.856 854.323 179.53L797.726 132.463C796.754 131.688 795.538 130.575 794.079 129.121C790.285 125.343 788.383 121.902 788.375 118.797C788.367 115.692 790.104 112.391 793.587 108.892C792.515 106.857 790.665 104.531 788.038 101.915C785.427 105.121 781.896 108.959 777.445 113.429C773.865 117.025 770.042 120.572 765.976 124.071L810.391 240.869L698.049 192.288C695.051 195.883 691.424 199.818 687.166 204.094C683.683 207.592 679.86 211.139 675.697 214.736C678.032 217.061 680.366 218.901 682.698 220.255C685.988 216.952 689.331 215.248 692.727 215.146C696.025 215.141 699.718 217.173 703.804 221.242C705.361 222.791 706.528 224.051 707.307 225.02L755.639 283.597C757.825 286.256 759.695 288.674 761.252 290.85C729.394 292.603 697.57 294.539 666.061 296.455L666.06 296.455L666.059 296.456C632.503 298.497 599.306 300.516 566.809 302.269C560.301 293.941 552.506 287.017 543.424 281.497C529.328 273.094 513.469 268.892 495.849 268.892C467.385 268.892 445.021 277.702 428.756 295.322C425.169 299.145 421.971 303.241 419.162 307.612C392.468 307.879 366.797 307.607 342.405 306.613C342.4 306.514 342.395 306.416 342.39 306.318C341.974 298.866 339.85 286.074 336.018 267.943L333.666 256.199C331.177 243.483 329.806 233.766 329.552 227.05C329.298 220.334 330.488 214.628 333.122 209.931C335.805 204.763 340.526 199.482 347.284 194.089L368.472 220.64C378.803 233.585 384.281 243.916 384.907 251.632C385.794 259.141 383.118 265.384 376.879 270.363C378.742 275.363 382.625 281.561 388.528 288.959C395.174 282.358 407.724 271.694 426.18 256.966C443.076 243.483 457.559 232.575 469.628 224.24C463.725 216.843 458.543 211.681 454.081 208.756C446.023 215.186 438.277 217.476 430.843 215.624C423.198 213.509 414.105 205.846 403.564 192.637L339.052 111.795C335.438 107.266 332.434 103.064 330.041 99.1872C351.625 99.6394 374.008 99.7822 397.062 99.6842C405.745 105.285 411.732 109.687 415.022 112.891C418.693 116.465 420.061 120.937 419.127 126.306C418.627 131.592 415.57 139.29 409.956 149.401C412.757 153.144 417.955 157.55 425.549 162.62C433.305 149.742 446.984 128.458 466.588 98.7686C480.505 98.4795 494.604 98.1332 508.859 97.7427L508.859 114.117C508.859 122.366 507.709 127.975 505.409 130.944C502.944 133.749 498.426 135.316 491.854 135.646C491.032 137.956 490.622 141.503 490.622 146.287C500.48 145.792 510.42 145.545 520.442 145.545C531.943 145.545 541.884 145.792 550.263 146.287C550.263 141.503 549.852 137.956 549.031 135.646C542.459 135.316 538.023 133.749 535.722 130.944C533.258 127.975 532.026 122.366 532.026 114.117L532.026 97.0752C548.726 96.572 565.62 96.0187 582.67 95.4356C583.766 101.42 585.04 106.904 586.492 111.89C589.449 122.448 593.639 130.697 599.061 136.636C605.961 144.06 614.012 147.772 623.213 147.772C626.828 147.772 630.196 147.194 633.317 146.039C636.439 144.885 638.904 143.565 640.711 142.08C641.204 140.1 641.45 137.543 641.45 134.409C641.45 130.779 641.122 127.315 640.465 124.015C634.878 125.005 629.785 125.5 625.185 125.5C619.598 125.5 615.08 124.675 611.63 123.025C608.015 121.211 605.058 118.324 602.757 114.364C599.958 109.5 597.548 103.043 595.524 94.9917ZM701.091 91.2274C707.555 91.0013 714.029 90.7773 720.51 90.5565C723.619 91.7697 726.414 93.577 728.895 95.9782C732.03 99.0061 733.598 103.273 733.598 108.778C733.598 113.595 732.439 117.242 730.122 119.719C727.805 122.197 724.943 123.435 721.535 123.435C718.401 123.435 715.266 122.403 712.131 120.339C708.996 118.274 706.407 115.04 704.362 110.636C702.181 106.232 701.091 100.795 701.091 94.3267L701.091 91.2274ZM878.706 285.587L876.165 282.642C884.049 276.493 890.729 273.344 896.206 273.195C901.682 273.046 906.037 274.845 909.271 278.592C910.883 280.46 911.913 282.496 912.361 284.7C901.192 284.934 889.969 285.233 878.706 285.587ZM-7.9231 94.5429C-0.526124 91.8129 11.149 86.6303 27.1025 78.995C34.8416 75.3136 40.7125 72.892 44.7153 71.7303C48.8544 70.3646 52.9558 70.1536 57.0194 71.0974C61.083 72.0411 66.2944 74.3413 72.6536 77.9979C70.1552 75.1496 68.3379 71.2812 67.2019 66.3928C66.2717 62.903 65.511 57.6758 64.9194 50.7113C63.1855 49.5132 61.5106 48.288 59.8955 47.0351C-58.4995 -44.8126 -67.8879 11.9414 -15.9525 96.9581C-13.3568 96.3655 -10.6803 95.5604 -7.9231 94.5429ZM3.23511 125.722C10.1296 122.593 18.3184 118.529 27.8015 113.532C41.7202 106.308 53.0215 101.466 61.7054 99.0052C70.3893 96.5448 78.35 97.5836 85.5873 102.122L66.5826 130.581C59.771 140.781 53.6506 146.871 48.2217 148.85C42.9291 150.625 37.1379 149.413 30.8484 145.213C28.7313 146.862 26.433 149.31 23.9534 152.555C16.5338 143.541 9.61267 134.558 3.23511 125.722ZM35.9454 166.649C41.588 170.195 47.7146 174.175 54.3251 178.589C67.7158 187.532 78.569 195.222 86.8844 201.66C90.699 195.947 93.1208 191.223 94.1499 187.485C87.8604 183.285 84.5215 178.4 84.1332 172.831C83.8812 167.058 87.161 159.072 93.9728 148.871L112.977 120.413C119.806 125.563 123.646 132.552 124.498 141.38C125.486 150.005 125.311 162.129 123.971 177.754C122.577 189.507 121.9 199.526 121.94 207.813C121.98 216.099 123.48 223.738 126.439 230.729C137.404 235.396 150.292 242.675 165.103 252.566C168.025 250.387 171.393 246.442 175.207 240.73C167.906 234.969 162.841 229.374 160.012 223.945C157.117 218.177 155.513 211.354 155.2 203.475C154.887 195.597 155.201 182.827 156.14 165.165C156.575 156.606 156.562 150.256 156.102 146.113C155.777 141.767 154.401 137.898 151.972 134.506C149.543 131.114 145.421 127.182 139.607 122.709C143.195 123.925 147.566 124.189 152.72 123.501C157.67 122.677 165.914 120.218 177.45 116.122C190.342 111.752 198.925 109.224 203.197 108.537C207.403 107.511 211.027 108.014 214.071 110.046C216.505 111.672 217.582 114.014 217.301 117.071C217.168 119.68 215.612 124.054 212.632 130.192C196.144 145.869 185.819 160.631 181.657 174.478C176.447 192.474 179.639 208.737 191.234 223.268C202.83 237.798 218.035 245.123 236.851 245.243C255.667 245.362 277.047 238.031 300.99 223.249C297.267 229.246 294.858 236.358 293.763 244.583C292.928 252.6 293.056 263.957 294.147 278.654C295.028 288.772 295.55 297.099 295.713 303.636C232.776 297.979 181.077 285.776 146.147 263.067C104.099 235.732 66.4971 201.401 35.9454 166.649ZM246.035 102.761C243.376 100.309 240.329 97.9357 236.892 95.6408C236.314 95.2546 235.738 94.8874 235.165 94.5392C241.625 95.0847 248.203 95.5811 254.893 96.0309L249.445 100.275C248.352 101.06 247.215 101.889 246.035 102.761ZM206.656 91.7135C200.948 93.2447 192.212 96.1491 180.45 100.427C178.346 101.381 174.986 102.678 170.372 104.316C155.851 109.368 145.504 112.341 139.333 113.234C133.299 113.924 127.17 112.339 120.947 108.478L135.66 86.4454C137.098 84.2929 138.501 82.328 139.871 80.5506C159.908 85.2468 182.279 88.9082 206.656 91.7135ZM106.407 70.9449L93.557 90.1873C87.2008 85.6476 83.1852 80.4586 81.51 74.6202C80.4934 71.0146 79.655 65.87 78.995 59.1865C87.2201 63.5217 96.3794 67.4292 106.407 70.9449ZM1256.36 103.238C1284.89 107.403 1312.18 112.455 1337.96 118.54C1337.63 118.652 1337.3 118.766 1336.96 118.883C1330.51 121.196 1325.69 122.709 1322.52 123.42C1319.43 124.008 1316.26 123.953 1313 123.255C1309.83 122.433 1305.97 120.516 1301.41 117.503C1298.83 120.967 1297.2 123.792 1296.51 125.977C1305.86 132.951 1312.98 139.124 1317.85 144.494C1322.92 144.803 1327.07 144.433 1330.31 143.383C1333.55 142.334 1338.94 139.91 1346.5 136.112L1351.41 133.709C1356.74 131.133 1360.87 129.398 1363.8 128.505C1366.73 127.613 1369.39 127.474 1371.76 128.091C1374.35 128.674 1377.22 130.143 1380.38 132.498L1371.11 144.932C1366.59 150.995 1362.66 154.613 1359.33 155.786C1356.12 157.05 1353.05 156.595 1350.14 154.421C1348.15 155.824 1345.86 158.258 1343.28 161.722C1345.63 163.109 1349 165.37 1353.38 168.505C1347.4 171.585 1343.16 174.427 1340.65 177.029C1344.92 186.842 1345.8 194.606 1343.29 200.321C1340.9 205.679 1333.75 211.307 1321.83 217.207L1310.86 222.64C1310.1 220.766 1309.32 219.252 1308.51 218.099C1300.7 219.787 1295.02 219.387 1291.46 216.9C1287.66 214.276 1284.49 208.244 1281.96 198.804L1256.36 103.238ZM472.265 298.575C469.331 300.941 466.612 303.654 464.108 306.713C486.442 306.065 509.348 305.134 532.691 304.013C524.706 293.611 513.78 288.41 499.915 288.41C489.885 288.41 480.668 291.798 472.265 298.575ZM1043.98 98.3535C1046.5 95.9231 1048.24 92.1254 1049.19 86.9604C1034.01 86.5295 1018.68 86.219 1003.25 86.0142C1004.65 89.6697 1006.62 92.7763 1009.17 95.334C1014.19 100.255 1021.05 102.715 1029.76 102.715C1036.11 102.715 1040.86 101.261 1043.98 98.3535ZM1355.98 338.039L1376.62 327.821C1388.53 321.922 1395.68 316.293 1398.07 310.936C1400.58 305.221 1399.7 297.456 1395.43 287.643C1398.18 284.795 1403 281.659 1409.91 278.238C1415.24 290.802 1422.06 305.464 1430.36 322.224L1430.43 322.369C1469.12 303.951 1502.87 269.903 1538.86 223.24C1507.61 185.43 1460.67 157.531 1402.43 137.141L1387.5 157.16C1382.89 163.347 1380.56 168.249 1380.5 171.868C1380.54 175.363 1382.44 178.515 1386.21 181.323C1385.43 183.631 1383.75 186.518 1381.17 189.982C1376.1 185.626 1369.62 180.504 1361.73 174.616C1359.85 173.22 1358.1 171.924 1356.46 170.729C1361.58 182.586 1367.95 196.212 1375.58 211.61C1382.81 226.215 1390.34 240.523 1398.17 254.534C1391.26 257.956 1385.84 259.894 1381.92 260.349C1376.7 251.008 1371.11 245.723 1365.16 244.495C1359.34 242.909 1350.47 245.066 1338.55 250.966L1224.06 307.669C1241.24 311.717 1257.71 316.384 1273.35 321.74C1304.12 332.273 1331.31 337.559 1355.98 338.039ZM269.56 212.654C253.583 215.026 240.429 209.739 230.099 196.794C221.245 185.698 218.211 173.632 220.998 160.597C224.046 147.355 234.407 133.681 252.083 119.576C256.762 115.842 264.673 110.826 275.815 104.529L314.167 152.588C313.329 153.137 312.543 153.469 311.808 153.583C310.804 153.739 309.587 153.413 308.155 152.604C306.646 151.795 304.594 150.33 302 148.209L279.465 129.468C279.078 129.16 278.594 128.716 278.013 128.138C276.502 126.633 275.745 125.263 275.741 124.027C275.738 122.79 276.43 121.476 277.817 120.083C277.39 119.272 276.653 118.346 275.607 117.305C274.568 118.581 273.162 120.109 271.389 121.889C269.964 123.321 268.442 124.733 266.823 126.127L284.508 172.633L239.776 153.289C238.582 154.72 237.138 156.287 235.443 157.99C234.055 159.383 232.533 160.795 230.876 162.227C231.806 163.153 232.735 163.886 233.663 164.425C234.973 163.109 236.304 162.431 237.656 162.391C238.97 162.389 240.44 163.198 242.067 164.818C242.687 165.435 243.152 165.936 243.462 166.322L262.707 189.646C264.451 191.768 265.692 193.505 266.43 194.856C267.129 196.168 267.422 197.307 267.308 198.273C267.195 199.239 266.715 200.225 265.868 201.231C266.333 202.08 267.089 203.026 268.135 204.067C269.791 202.171 272.045 199.792 274.896 196.929C277.632 194.182 280.04 191.879 282.121 190.022C281.191 189.096 280.243 188.383 279.276 187.882C277.657 189.198 276.345 189.857 275.34 189.858C274.336 189.86 273.156 189.186 271.8 187.835C271.025 187.064 270.115 186.042 269.068 184.768L251.218 162.833L292.234 179.749C293.161 179.361 294.086 178.703 295.011 177.774L279.074 134.974L299.576 151.69C300.854 152.731 301.919 153.676 302.771 154.524C304.553 156.299 305.503 157.823 305.623 159.098C305.665 160.373 305.031 161.784 303.722 163.331C304.188 164.18 304.924 165.106 305.932 166.109C307.665 164.136 309.668 162.008 311.941 159.726C313.585 158.075 315.077 156.637 316.419 155.411L333.054 176.256C326.717 182.178 322.379 186.072 320.04 187.939C302.364 202.044 285.537 210.283 269.56 212.654ZM587.307 157.511C602.492 155.936 618.731 161.417 636.025 173.953C648.995 183.356 659.215 194.498 666.686 207.378C662.023 211.462 656.144 218.398 649.05 228.184C645.83 227.343 642.128 225.406 637.944 222.372C643.708 213.541 646.113 206.114 645.161 200.091C644.068 193.967 640.105 188.429 633.271 183.474C622.811 175.892 612.233 173.021 601.536 174.864C590.699 176.606 580.567 182.804 571.141 193.459L618.42 227.733C617.927 231.642 615.856 236.112 612.208 241.145C598.705 230.716 582.33 218.526 563.084 204.573C555.369 216.683 552.369 228.158 554.084 238.999C555.901 249.7 562.248 258.993 573.127 266.879C581.076 272.642 588.321 275.122 594.861 274.318C601.262 273.413 608.042 269.05 615.2 261.23C619.168 263.68 621.939 266.755 623.512 270.455C620.256 274.066 617.158 277.899 614.219 281.953C612.395 284.469 610.102 287.926 607.341 292.322C592.078 288.723 578.52 282.626 566.665 274.032C549.092 261.293 538.668 246.911 535.392 230.886C531.976 214.76 536.045 198.728 547.599 182.791C558.747 167.412 571.984 158.986 587.307 157.511ZM966.828 209.468C966.828 211.813 966.495 213.408 965.83 214.253C965.117 215.05 963.809 215.496 961.908 215.59C961.67 216.246 961.551 217.255 961.551 218.616C964.403 218.475 967.279 218.404 970.179 218.404C973.507 218.404 976.383 218.475 978.807 218.616C978.807 217.255 978.688 216.246 978.45 215.59C976.549 215.496 975.265 215.05 974.6 214.253C973.887 213.408 973.53 211.813 973.53 209.468L973.53 195.535C984.226 195.535 991.475 195.652 995.278 195.887L995.278 209.468C995.278 211.813 994.945 213.408 994.28 214.253C993.567 215.05 992.259 215.496 990.358 215.59C990.12 216.246 990.002 217.255 990.002 218.616C992.854 218.475 995.73 218.404 998.629 218.404C1001.96 218.404 1004.83 218.475 1007.26 218.616C1007.26 217.255 1007.14 216.246 1006.9 215.59C1005 215.496 1003.72 215.05 1003.05 214.253C1002.34 213.408 1001.98 211.813 1001.98 209.468L1001.98 179.772C1001.98 177.427 1002.34 175.855 1003.05 175.058C1003.72 174.213 1005 173.744 1006.9 173.65C1007.14 172.994 1007.26 171.985 1007.26 170.625C1004.64 170.765 1001.77 170.836 998.629 170.836C995.73 170.836 992.854 170.765 990.002 170.625C990.002 171.985 990.12 172.994 990.358 173.65C992.259 173.744 993.567 174.213 994.28 175.058C994.945 175.855 995.278 177.427 995.278 179.772L995.278 192.509L973.53 192.509L973.53 179.772C973.53 177.427 973.887 175.855 974.6 175.058C975.265 174.213 976.549 173.744 978.45 173.65C978.688 172.994 978.807 171.985 978.807 170.625C976.192 170.765 973.316 170.836 970.179 170.836C967.279 170.836 964.403 170.765 961.551 170.625C961.551 171.985 961.67 172.994 961.908 173.65C963.809 173.744 965.117 174.213 965.83 175.058C966.495 175.855 966.828 177.427 966.828 179.772L966.828 209.468ZM922.664 129.835C937.731 113.608 958.448 105.494 984.814 105.494C1001.14 105.494 1015.83 109.364 1028.88 117.103C1041.69 124.842 1051.74 135.577 1059.02 149.308C1066.3 162.789 1069.94 177.893 1069.94 194.62C1069.94 212.345 1066.43 227.949 1059.39 241.43C1052.36 254.911 1042.44 265.397 1029.64 272.886C1016.83 280.126 1001.89 283.746 984.814 283.746C968.241 283.746 953.551 279.877 940.744 272.137C927.686 264.398 917.642 253.788 910.611 240.307C903.329 226.825 899.687 211.596 899.687 194.62C899.687 167.658 907.346 146.063 922.664 129.835ZM1020.97 140.695C1013.44 129.211 1002.64 123.469 988.581 123.469C979.29 123.469 970.752 126.59 962.968 132.831C955.183 139.072 949.031 147.935 944.511 159.419C939.74 170.903 937.354 184.135 937.354 199.114C937.354 219.585 941.121 235.813 948.654 247.796C956.188 259.779 967.237 265.771 981.801 265.771C997.37 265.771 1009.67 258.906 1018.71 245.175C1027.5 231.194 1031.9 211.721 1031.9 186.756C1031.9 167.533 1028.26 152.179 1020.97 140.695ZM1219.69 176.805C1219.01 181.007 1219.13 184.034 1220.06 185.887C1221.09 187.758 1223.73 189.037 1227.97 189.726C1227.45 192.933 1226.71 195.423 1225.76 197.197C1222.89 196.959 1219.59 197.046 1215.84 197.458C1212.1 197.76 1208.94 198.381 1206.33 199.319C1205 198.537 1204.11 197.54 1203.63 196.328C1203.18 195.006 1203.21 192.741 1203.73 189.534C1203.91 188.429 1204.27 186.898 1204.81 184.943C1203.13 187.735 1200.86 190.033 1198 191.838C1193.15 194.909 1187.19 195.871 1180.12 194.723C1173.6 193.664 1168.74 191.286 1165.55 187.589C1162.46 183.91 1161.37 179.307 1162.26 173.778C1163.32 167.254 1166.51 162.436 1171.81 159.326C1177.13 156.104 1182.81 154.132 1188.84 153.409C1194.87 152.687 1201.45 152.393 1208.57 152.527C1209.66 145.782 1210.2 141.103 1210.18 138.489C1210.18 135.765 1209.61 133.403 1208.48 131.404C1206.41 127.663 1203.31 125.457 1199.18 124.786C1194.29 123.992 1190.37 125.455 1187.42 129.175C1184.58 132.913 1182.67 137.087 1181.7 141.696C1177.57 141.025 1174.81 140.178 1173.41 139.157C1173.7 138.069 1174.06 136.198 1174.49 133.544C1175.28 128.679 1175.63 124.48 1175.53 120.946C1180.26 119.33 1185.23 118.265 1190.45 117.75C1195.66 117.235 1200.34 117.314 1204.47 117.985C1211.86 119.185 1217.29 122.222 1220.73 127.095C1222.91 130.172 1224.13 134.002 1224.39 138.584C1224.67 143.055 1224.18 149.161 1222.93 156.902L1219.69 176.805ZM1207.47 159.328C1202.14 159.144 1197.65 159.267 1194.01 159.697C1190.39 160.016 1187.07 161.236 1184.04 163.355C1181.15 165.382 1179.34 168.607 1178.62 173.03C1177.99 176.9 1178.44 179.98 1179.97 182.271C1181.49 184.561 1183.62 185.927 1186.33 186.369C1188.83 186.775 1191.47 186.352 1194.24 185.099C1197.01 183.847 1199.5 181.584 1201.7 178.31C1204.02 175.054 1205.6 170.828 1206.44 165.631L1207.47 159.328Z" fill="#BDA995"/>
</svg>
