<svg width="1440" height="472" viewBox="0 0 1440 472" fill="none" xmlns="http://www.w3.org/2000/svg">
<path fill-rule="evenodd" clip-rule="evenodd" d="M100.212 135.355C95.4651 131.292 90.8113 127.097 86.2534 122.766C82.2275 118.941 78.2791 115.217 74.4071 111.594C75.1313 122.571 76.2008 130.568 77.6155 135.585C79.2906 141.424 83.3063 146.613 89.6625 151.152L100.212 135.355ZM126.246 155.677C133.746 161.012 141.439 166.072 149.316 170.866C143.441 172.599 138.815 173.711 135.439 174.2C129.404 174.889 123.276 173.304 117.053 169.443L126.246 155.677ZM165.104 179.99C177.006 186.517 189.291 192.49 201.93 197.945C189.374 211.112 181.319 223.612 177.763 235.443C172.552 253.439 175.744 269.702 187.34 284.233C198.935 298.763 214.141 306.088 232.957 306.208C251.773 306.327 273.152 298.996 297.095 284.214C293.372 290.212 290.963 297.323 289.869 305.548C289.034 313.566 289.162 324.923 290.253 339.619C291.555 354.58 292.073 365.626 291.807 372.757C291.456 377.813 290.339 382.777 288.457 387.648C226.675 367.825 176.067 346.016 142.252 324.032C107.536 301.462 71.5695 268.309 38.4867 231.711C42.275 234.153 46.2563 236.767 50.4305 239.555C63.8213 248.497 74.6744 256.187 82.99 262.625C86.8044 256.913 89.2263 252.188 90.2554 248.45C83.9658 244.25 80.627 239.366 80.2386 233.797C79.9867 228.024 83.2665 220.037 90.0782 209.837L109.083 181.378C115.912 186.528 119.752 193.517 120.604 202.346C121.592 210.97 121.416 223.094 120.077 238.719C118.682 250.472 118.005 260.492 118.045 268.778C118.086 277.065 119.585 284.703 122.545 291.694C133.509 296.361 146.397 303.64 161.208 313.531C164.13 311.352 167.498 307.407 171.313 301.695C164.012 295.934 158.947 290.34 156.118 284.911C153.222 279.142 151.618 272.319 151.306 264.441C150.993 256.562 151.306 243.792 152.246 226.131C152.681 217.572 152.668 211.221 152.207 207.078C151.883 202.732 150.506 198.863 148.077 195.471C145.648 192.079 141.527 188.147 135.713 183.674C139.301 184.891 143.672 185.155 148.825 184.466C152.468 183.86 157.895 182.368 165.104 179.99ZM21.2369 212.021C14.0237 203.53 6.99499 194.928 0.198119 186.296C6.91113 183.222 14.8141 179.289 23.907 174.497C37.8257 167.273 49.127 162.431 57.8109 159.97C66.4948 157.51 74.4554 158.549 81.6927 163.087L62.6881 191.546C55.8765 201.746 49.7561 207.836 44.3271 209.815C39.0345 211.591 33.2434 210.378 26.9539 206.178C25.176 207.563 23.2704 209.511 21.2369 212.021ZM-21.0579 158.186C-109.283 36.5661 -140.738 -72.998 19.3759 62.3623C19.0122 62.7928 18.6455 63.2247 18.2755 63.658C21.8522 68.4063 26.6171 72.4733 32.5704 75.8589C32.9341 75.4379 33.2915 75.0286 33.6423 74.6311C42.0007 81.9347 50.825 89.8379 60.1305 98.3677C60.2009 99.3773 60.2719 100.416 60.3429 101.485C60.9802 113.71 61.9684 122.334 63.3074 127.358C64.4434 132.246 66.2606 136.115 68.759 138.963C62.3999 135.307 57.1885 133.006 53.1249 132.063C49.0613 131.119 44.9598 131.33 40.8208 132.696C36.818 133.857 30.947 136.279 23.208 139.96C7.25452 147.596 -4.42066 152.778 -11.8176 155.508C-15.0056 156.685 -18.0857 157.577 -21.0579 158.186ZM326.978 234.488C313.181 231.998 299.623 229.139 286.329 225.882L291.116 238.739C290.191 239.668 289.266 240.326 288.34 240.714L247.323 223.798L265.174 245.734C266.22 247.007 267.131 248.029 267.906 248.801C269.261 250.151 270.442 250.825 271.446 250.823C272.45 250.822 273.762 250.163 275.381 248.847C276.348 249.348 277.297 250.061 278.227 250.987C276.145 252.844 273.737 255.147 271.002 257.894C268.151 260.757 265.897 263.137 264.241 265.032C263.195 263.991 262.439 263.045 261.973 262.196C262.82 261.191 263.301 260.205 263.414 259.239C263.527 258.273 263.234 257.133 262.535 255.821C261.798 254.47 260.557 252.733 258.812 250.611L239.568 227.287C239.258 226.901 238.793 226.4 238.173 225.783C236.546 224.163 235.076 223.354 233.762 223.356C232.41 223.396 231.079 224.075 229.769 225.39C228.84 224.851 227.911 224.118 226.981 223.192C228.639 221.76 230.161 220.348 231.548 218.955C233.243 217.253 234.688 215.686 235.881 214.254L280.613 233.598L276.756 223.455C258.468 218.661 240.7 213.083 223.52 206.639C220.373 211.673 218.235 216.648 217.104 221.562C214.316 234.598 217.35 246.663 226.205 257.759C236.535 270.704 249.689 275.991 265.666 273.619C281.643 271.248 298.469 263.009 316.145 248.904C318.484 247.037 322.823 243.143 329.159 237.221L326.978 234.488ZM831.299 224.587C852.471 222.11 873.588 219.577 894.592 217.056L894.594 217.056L902.697 216.084C898.094 227.638 895.793 240.805 895.793 255.585C895.793 272.561 899.434 287.79 906.716 301.271C913.747 314.753 923.792 325.363 936.85 333.102C949.656 340.842 964.346 344.711 980.92 344.711C997.995 344.711 1012.94 341.091 1025.74 333.851C1038.55 326.362 1048.47 315.876 1055.5 302.395C1062.53 288.914 1066.05 273.31 1066.05 255.585C1066.05 238.858 1062.41 223.754 1055.12 210.273C1053.11 206.479 1050.89 202.913 1048.45 199.577C1069.64 197.451 1090.54 195.534 1111.09 193.911L1138.74 297.101C1141.27 306.541 1141.64 313.322 1139.85 317.443C1137.82 321.427 1133 324.641 1125.39 327.084C1125.14 329.985 1125.74 334.174 1127.21 339.649C1138.62 335.985 1150.21 332.578 1161.96 329.428C1175.45 325.814 1187.19 322.973 1197.17 320.906C1195.7 315.431 1194.13 311.5 1192.46 309.115C1184.65 310.803 1178.96 310.404 1175.41 307.917C1171.61 305.293 1168.44 299.261 1165.91 289.82L1139.66 191.835C1150.29 191.135 1160.81 190.526 1171.22 190.02C1171.06 191.448 1170.85 192.944 1170.59 194.51C1170.16 197.163 1169.8 199.034 1169.52 200.122C1170.91 201.144 1173.68 201.99 1177.81 202.661C1178.78 198.052 1180.69 193.878 1183.52 190.14C1183.72 189.899 1183.91 189.667 1184.11 189.445C1190.06 189.204 1195.98 188.999 1201.85 188.833C1202.91 189.8 1203.82 190.978 1204.59 192.369C1205.72 194.368 1206.28 196.73 1206.29 199.454C1206.31 202.068 1205.77 206.748 1204.67 213.493C1197.55 213.358 1190.98 213.652 1184.95 214.375C1178.91 215.097 1173.24 217.069 1167.91 220.291C1162.61 223.402 1159.43 228.219 1158.37 234.743C1157.47 240.272 1158.57 244.876 1161.65 248.554C1164.85 252.251 1169.7 254.629 1176.23 255.688C1183.3 256.836 1189.26 255.874 1194.11 252.803C1196.97 250.998 1199.24 248.7 1200.92 245.908C1200.38 247.863 1200.02 249.394 1199.84 250.5C1199.32 253.706 1199.28 255.971 1199.74 257.293C1200.21 258.505 1201.11 259.502 1202.43 260.284C1205.04 259.346 1208.21 258.726 1211.94 258.424C1215.69 258.011 1219 257.924 1221.86 258.162C1222.82 256.388 1223.56 253.898 1224.08 250.691C1219.84 250.002 1217.2 248.723 1216.16 246.852C1215.24 245 1215.12 241.972 1215.8 237.77L1219.03 217.867C1220.29 210.127 1220.78 204.021 1220.5 199.549C1220.25 195.177 1219.13 191.489 1217.13 188.487C1221.38 188.415 1225.61 188.366 1229.81 188.339L1250.9 267.05C1253.43 276.49 1253.8 283.271 1252.01 287.392C1249.98 291.376 1245.16 294.59 1237.55 297.033C1237.3 299.934 1237.9 304.123 1239.37 309.598C1250.78 305.934 1262.36 302.527 1274.12 299.377C1274.44 299.292 1274.76 299.207 1275.07 299.122C1275.48 299.013 1275.89 298.905 1276.29 298.798L1167.13 352.858C1155.22 358.757 1146.29 361.093 1140.34 359.864C1134.51 358.279 1128.99 352.816 1123.77 343.474L1121.46 338.806C1116.58 336.748 1111.41 337.076 1105.93 339.79C1092.46 350.336 1072.74 362.039 1046.77 374.899C1047.72 379.202 1048.84 382.67 1050.15 385.304C1051.45 387.938 1053.65 391.173 1056.73 395.011C1077.1 384.625 1097.71 376.209 1118.55 369.765C1122.82 377.787 1132.6 397.242 1147.9 428.128L1150.69 433.771C1133.89 438.726 1116.48 443.139 1098.56 447.038C1099.56 446.528 1100.62 446.059 1101.76 445.63C1101.6 441.876 1100.35 436.879 1098 430.64C1088.83 434.851 1077.02 439.674 1062.56 445.111C1048.1 450.548 1036.03 454.703 1026.36 457.577C1026.62 458.263 1026.88 458.93 1027.14 459.576C998.945 463.448 969.873 466.28 940.203 468.16L940.203 463.834C940.203 458.194 941.051 454.415 942.747 452.497C944.33 450.466 947.383 449.338 951.906 449.112C952.321 447.953 952.584 446.338 952.694 444.266C968.119 449.022 984.871 448 1002.95 441.202C1020.92 434.447 1033.88 424.36 1041.83 410.941C1049.49 397.381 1050.13 382.134 1043.77 365.2C1035.33 364.048 1027.08 365.371 1019 369.17C1022.17 384.254 1021.77 396.486 1017.8 405.865C1013.74 415.021 1005.68 421.864 993.633 426.395C981.583 430.925 971.344 430.96 962.915 426.5C954.183 421.899 946.589 412.674 940.132 398.826C938.514 399.18 936.391 399.851 933.762 400.839C926.97 403.393 921.802 406.608 918.259 410.483C924.08 425.965 933.605 436.522 946.833 442.155C943.431 442.281 939.525 442.344 935.115 442.344L922.903 442.175C920.189 442.062 916.175 442.005 910.86 442.005C899.779 442.005 891.016 443.867 884.571 447.59C878.012 451.2 874.733 457.573 874.733 466.711C874.733 468.109 874.815 469.466 874.98 470.782C858.001 471.091 840.898 471.123 823.721 470.894C823.201 463.866 820.299 458.181 815.015 453.838C809.155 448.884 802.612 445.374 795.389 443.31C788.165 441.245 780.192 439.594 771.469 438.355C771.469 429.96 771.741 424.179 772.287 421.014C772.832 417.711 773.99 414.958 775.762 412.756C779.033 408.627 783.258 406.563 788.438 406.563C794.571 406.563 799.069 409.109 801.931 414.201C804.657 419.294 806.156 424.73 806.429 430.51C811.608 430.51 815.152 430.029 817.06 429.065C816.923 427.689 816.855 425.349 816.855 422.046C816.855 415.99 817.264 410.829 818.082 406.563C812.63 403.673 806.769 401.402 800.5 399.75C794.23 398.099 788.506 397.273 783.327 397.273C774.058 397.273 766.835 399.888 761.656 405.118C758.384 408.421 756.136 412.825 754.909 418.33C753.682 423.698 753.069 431.198 753.069 440.832L753.069 465.606C753.069 466.645 753.039 467.622 752.98 468.536C709.516 466.244 666.006 462.441 623.229 457.379C623.423 456.541 623.59 455.666 623.73 454.753C616.854 452.883 611.814 449.655 608.608 445.069C605.403 440.484 604.62 432.828 606.259 422.102L608.278 408.894L682.233 420.197C689.071 421.243 693.568 423.24 695.721 426.191C697.69 429.277 698.333 434.126 697.648 440.738C699.434 441.831 702.474 442.705 706.768 443.361C707.735 433.843 709.013 423.881 710.603 413.475C712.218 402.909 713.79 394.221 715.32 387.41C710.866 386.729 707.386 386.607 704.878 387.042C704.119 392.005 702.137 395.388 698.932 397.192C695.568 398.972 689.909 399.254 681.957 398.038L633.29 390.6C625.338 389.385 620.102 387.438 617.582 384.759C614.903 382.056 613.942 378.223 614.701 373.26C612.437 372.095 609.079 371.172 604.626 370.492C603.513 380.97 601.879 393.254 599.726 407.342C596.55 428.126 594.079 443.508 592.313 453.486C588.664 452.999 585.022 452.503 581.387 451.999C583.03 444.042 583.851 435.587 583.851 426.634C583.851 408.471 579.921 392.071 572.059 377.432C564.198 362.523 553.355 350.866 539.529 342.462C525.433 334.059 509.575 329.857 491.954 329.857C463.491 329.857 441.126 338.667 424.861 356.288C409.903 372.227 401.71 392.937 400.283 418.416C374.258 412.28 349.274 405.759 325.592 398.936C328.464 397.24 331.231 395.697 333.893 394.306C337.377 383.743 338.911 374.735 338.495 367.283C338.079 359.831 335.956 347.04 332.124 328.909L329.772 317.164C327.283 304.448 325.911 294.732 325.657 288.016C325.403 281.299 326.593 275.593 329.228 270.896C331.911 265.728 336.632 260.447 343.39 255.054L364.578 281.605C374.908 294.55 380.386 304.881 381.013 312.597C381.899 320.106 379.223 326.35 372.985 331.328C374.847 336.328 378.73 342.527 384.633 349.924C391.279 343.323 403.83 332.659 422.285 317.932C439.181 304.449 453.664 293.54 465.734 285.205C459.831 277.808 454.648 272.647 450.186 269.721C442.128 276.151 434.382 278.441 426.948 276.589C419.303 274.474 410.21 266.811 399.669 253.602L391.537 243.411C439.333 248.176 489.324 249.435 540.616 248.297C531.445 262.738 528.406 277.256 531.497 291.851C534.773 307.876 545.198 322.258 562.771 334.997C574.625 343.591 588.184 349.688 603.446 353.287C606.208 348.891 608.5 345.435 610.325 342.918C613.264 338.864 616.362 335.031 619.618 331.42C618.045 327.72 615.274 324.645 611.306 322.195C604.147 330.015 597.367 334.378 590.967 335.283C584.427 336.087 577.182 333.607 569.232 327.845C558.354 319.958 552.006 310.665 550.19 299.964C548.475 289.123 551.474 277.648 559.189 265.539C578.435 279.491 594.81 291.681 608.313 302.11C611.962 297.077 614.032 292.607 614.525 288.698L567.246 254.424C569.623 251.738 572.044 249.335 574.51 247.216C592.586 246.471 610.796 245.464 629.103 244.242C629.195 244.308 629.286 244.373 629.377 244.439C636.211 249.394 640.174 254.933 641.266 261.056C642.219 267.079 639.813 274.506 634.049 283.337C638.233 286.371 641.935 288.308 645.155 289.149C652.25 279.363 658.128 272.427 662.791 268.343C657.434 259.106 650.661 250.762 642.475 243.314C687.767 240.047 733.589 235.54 779.37 230.5L806.497 301.835L694.155 253.253C691.157 256.848 687.529 260.783 683.271 265.059C679.788 268.557 675.965 272.105 671.803 275.701C674.138 278.026 676.471 279.866 678.804 281.221C682.094 277.917 685.436 276.213 688.832 276.111C692.131 276.106 695.823 278.138 699.909 282.207C701.466 283.757 702.634 285.016 703.413 285.985L751.745 344.562C756.125 349.892 759.242 354.253 761.095 357.646C762.85 360.942 763.586 363.803 763.301 366.229C763.017 368.655 761.81 371.131 759.683 373.657C760.853 375.79 762.751 378.164 765.378 380.78C769.537 376.019 775.197 370.043 782.357 362.852C789.228 355.953 795.276 350.171 800.503 345.505C798.168 343.18 795.786 341.389 793.357 340.131C789.291 343.437 785.996 345.091 783.474 345.095C780.951 345.099 777.987 343.406 774.582 340.015C772.636 338.077 770.349 335.51 767.721 332.312L722.891 277.223L825.902 319.706C828.228 318.732 830.552 317.079 832.874 314.746L800.621 228.124C805.833 227.533 811.044 226.936 816.252 226.335L844.34 249.237C847.549 251.851 850.223 254.224 852.364 256.356C856.839 260.812 859.226 264.641 859.526 267.842C859.632 271.044 858.041 274.587 854.752 278.474C855.922 280.606 857.772 282.932 860.302 285.451C864.654 280.496 869.685 275.152 875.394 269.418C881.103 263.685 886.087 258.971 890.346 255.278C887.914 252.856 885.58 251.016 883.345 249.758C880.344 252.189 877.583 253.6 875.061 253.992C872.54 254.384 869.481 253.564 865.886 251.532C862.096 249.5 856.944 245.821 850.429 240.495L831.299 224.587ZM774.079 469.529C772.339 465.398 771.469 460.443 771.469 454.664L771.469 446.819C778.011 447.645 783.463 448.677 787.824 449.916C792.186 451.017 796.002 453.15 799.273 456.316C802.408 459.344 803.975 463.61 803.975 469.115C803.975 469.594 803.964 470.062 803.941 470.517C794.002 470.272 784.045 469.941 774.079 469.529ZM1306.97 283.606L1317.94 278.172C1329.85 272.272 1337 266.644 1339.39 261.286C1341.9 255.571 1341.02 247.807 1336.76 237.994C1339.26 235.392 1343.51 232.55 1349.49 229.47C1345.11 226.335 1341.74 224.074 1339.38 222.688C1341.97 219.223 1344.25 216.79 1346.25 215.387C1349.16 217.561 1352.22 218.016 1355.43 216.752C1358.77 215.578 1362.69 211.96 1367.21 205.898L1372.19 199.232C1363.88 197.656 1355.39 196.271 1346.72 195.063L1342.61 197.077C1335.05 200.875 1329.65 203.299 1326.41 204.349C1323.17 205.398 1319.02 205.769 1313.96 205.46C1309.83 200.913 1304.1 195.792 1296.76 190.096C1284.44 189.311 1271.84 188.8 1258.98 188.535L1278.07 259.769C1280.6 269.209 1283.76 275.242 1287.56 277.866C1291.12 280.353 1296.81 280.752 1304.62 279.064C1305.42 280.217 1306.21 281.731 1306.97 283.606ZM540.8 445.956C532.5 444.636 524.249 443.273 516.055 441.867L516.055 410.269C516.055 406.937 516.555 404.704 517.554 403.571C518.487 402.371 520.287 401.705 522.953 401.572C523.286 400.639 523.453 399.206 523.453 397.273C519.787 397.473 511.089 397.573 497.36 397.573L486.563 397.573C473.167 397.573 464.469 397.473 460.47 397.273C460.47 399.206 460.637 400.639 460.97 401.572C463.636 401.705 465.469 402.371 466.469 403.571C467.402 404.704 467.868 406.937 467.868 410.269L467.868 433.001C458.744 431.206 449.709 429.36 440.774 427.468C441.169 412.856 443.726 399.837 448.446 388.411C453.325 375.941 459.967 366.318 468.37 359.541C476.774 352.764 485.991 349.375 496.021 349.375C511.201 349.375 522.858 355.61 530.99 368.08C538.852 380.549 542.782 397.221 542.782 418.094C542.782 428.212 542.122 437.499 540.8 445.956ZM477.266 434.826C486.97 436.687 496.771 438.49 506.657 440.233L506.657 410.269C506.657 406.137 505.824 403.571 504.158 402.571C503.358 402.105 502.159 401.805 500.559 401.672C498.893 401.538 496.027 401.472 491.961 401.472C487.896 401.472 485.063 401.538 483.464 401.672C481.797 401.805 480.565 402.105 479.765 402.571C478.099 403.571 477.266 406.137 477.266 410.269L477.266 434.826ZM944.965 211.045C969.484 208.152 993.782 205.356 1017.77 202.774C1024.59 214.13 1028 229.112 1028 247.721C1028 272.686 1023.61 292.159 1014.82 306.14C1005.78 319.871 993.475 326.736 977.906 326.736C963.342 326.736 952.293 320.744 944.76 308.761C937.226 296.778 933.46 280.55 933.46 260.079C933.46 245.1 935.845 231.868 940.616 220.384C941.928 217.05 943.378 213.937 944.965 211.045ZM1166.08 429.024C1162.28 420.031 1160.52 413.431 1160.78 409.223C1161.39 401.467 1169.08 393.932 1183.85 386.617L1334.66 311.931C1346.57 306.031 1355.44 303.874 1361.27 305.46C1367.22 306.688 1372.8 311.973 1378.02 321.314C1381.95 320.859 1387.37 318.921 1394.28 315.499C1386.45 301.488 1378.92 287.18 1371.68 272.575C1364.06 257.178 1357.69 243.551 1352.57 231.695C1354.2 232.89 1355.96 234.185 1357.83 235.582C1365.73 241.469 1372.21 246.591 1377.27 250.948C1379.86 247.483 1381.54 244.597 1382.31 242.288C1378.55 239.48 1376.65 236.329 1376.61 232.833C1376.66 229.215 1378.99 224.312 1383.61 218.126L1394.17 203.96C1452.93 218.175 1501.17 243.306 1534.96 284.205C1489.44 321.457 1477.56 318.284 1460.52 313.729C1437.61 307.606 1405.36 298.985 1269.46 382.705C1239.16 401.373 1204.33 416.694 1166.08 429.024ZM892.061 470.377C902.855 470.06 913.592 469.628 924.26 469.077L924.26 449.959C922.111 449.395 919.793 449.112 917.306 449.112C910.521 449.112 904.641 450.917 899.666 454.527C894.882 457.816 892.346 463.099 892.061 470.377ZM962.933 270.433C962.933 272.778 962.601 274.373 961.935 275.218C961.222 276.015 959.915 276.461 958.013 276.555C957.776 277.211 957.657 278.22 957.657 279.581C960.509 279.44 963.385 279.369 966.285 279.369C969.612 279.369 972.488 279.44 974.912 279.581C974.912 278.22 974.793 277.211 974.556 276.555C972.654 276.461 971.371 276.015 970.705 275.218C969.992 274.373 969.636 272.778 969.636 270.433L969.636 256.5C980.331 256.5 987.581 256.617 991.383 256.852L991.383 270.433C991.383 272.778 991.051 274.373 990.385 275.218C989.672 276.015 988.365 276.461 986.463 276.555C986.226 277.211 986.107 278.22 986.107 279.581C988.959 279.44 991.835 279.369 994.735 279.369C998.062 279.369 1000.94 279.44 1003.36 279.581C1003.36 278.22 1003.24 277.211 1003.01 276.555C1001.1 276.461 999.821 276.015 999.156 275.218C998.443 274.373 998.086 272.778 998.086 270.433L998.086 240.737C998.086 238.392 998.443 236.82 999.156 236.023C999.821 235.178 1001.1 234.709 1003.01 234.615C1003.24 233.959 1003.36 232.95 1003.36 231.59C1000.75 231.73 997.872 231.801 994.735 231.801C991.835 231.801 988.959 231.73 986.107 231.59C986.107 232.95 986.226 233.959 986.463 234.615C988.365 234.709 989.672 235.178 990.385 236.023C991.051 236.82 991.383 238.392 991.383 240.737L991.383 253.474L969.636 253.474L969.636 240.737C969.636 238.392 969.992 236.82 970.705 236.023C971.371 235.178 972.654 234.709 974.556 234.615C974.793 233.959 974.912 232.95 974.912 231.59C972.298 231.73 969.422 231.801 966.285 231.801C963.385 231.801 960.509 231.73 957.657 231.59C957.657 232.95 957.776 233.959 958.013 234.615C959.915 234.709 961.222 235.178 961.935 236.023C962.601 236.82 962.933 238.392 962.933 240.737L962.933 270.433ZM1203.57 220.293C1198.24 220.109 1193.76 220.232 1190.12 220.662C1186.5 220.982 1183.17 222.201 1180.15 224.321C1177.25 226.347 1175.45 229.572 1174.73 233.995C1174.1 237.865 1174.55 240.945 1176.07 243.236C1177.6 245.526 1179.72 246.892 1182.44 247.334C1184.94 247.74 1187.58 247.317 1190.35 246.064C1193.12 244.812 1195.6 242.549 1197.81 239.275C1200.12 236.019 1201.7 231.793 1202.55 226.596L1203.57 220.293ZM881.067 405.394C881.351 404.004 881.407 402.731 881.233 401.574C876.646 401.609 872.351 400.739 868.347 398.964C864.342 397.189 860.966 394.709 858.218 391.524C852.317 384.685 850.26 377.716 852.049 370.616C854.012 363.529 858.43 356.611 865.303 349.864C874.182 359.199 885.736 372.112 899.962 388.6C902.175 388.489 904.388 387.805 906.601 386.549C914.919 378.228 919.906 369.676 921.561 360.894C923.391 352.124 920.628 343.476 913.272 334.951C908.261 329.142 902.296 325.382 895.378 323.67C888.554 321.876 881.54 321.963 874.335 323.931C867.21 325.992 860.577 329.673 854.433 334.973C848.101 340.437 843.354 346.494 840.19 353.146C837.027 359.798 835.832 366.63 836.607 373.643C837.557 380.668 840.821 387.412 846.399 393.877C851.006 399.217 855.946 403.126 861.218 405.605C866.664 408.097 872.841 409.141 879.748 408.738C880.423 407.992 880.863 406.878 881.067 405.394ZM892.311 334.16C897.788 334.011 902.143 335.81 905.376 339.557C908.852 343.586 909.623 348.396 907.688 353.988C905.928 359.592 901.883 365.125 895.55 370.589L872.27 343.608C880.154 337.459 886.835 334.31 892.311 334.16Z" fill="#BDA995"/>
</svg>
