<svg width="1440" height="338" viewBox="0 0 1440 338" fill="none" xmlns="http://www.w3.org/2000/svg">
<path fill-rule="evenodd" clip-rule="evenodd" d="M604.466 9.55867C676.292 15.0876 751.067 22.9 826.037 32.6932C826.019 38.5215 827.183 44.7025 829.527 51.2364C835.194 67.0313 844.552 77.4996 857.602 82.6414C870.593 87.6219 886.135 86.8666 904.227 80.3754C912.393 77.4458 919.811 73.6927 926.482 69.1162C933.154 64.5397 938.386 59.4788 942.179 53.9336C941.381 52.4027 940.593 50.7817 939.816 49.0705C960.865 52.3846 981.819 55.8448 1002.61 59.4442C1001.99 62.5237 1001.68 65.8416 1001.68 69.3977C1001.68 82.1467 1005.64 92.0999 1013.56 99.2572C1021.37 106.415 1032.3 109.993 1046.36 109.993C1055.84 109.993 1065.27 108.036 1074.64 104.122C1074.42 100.767 1074.3 98.0829 1074.3 96.0699C1074.3 92.8268 1074.47 89.6396 1074.81 86.5082C1072.57 85.1662 1069.95 84.6071 1066.94 84.8307C1066.16 91.6525 1064.26 96.5173 1061.25 99.4249C1058.13 102.333 1053.39 103.786 1047.03 103.786C1038.32 103.786 1031.46 101.326 1026.44 96.4054C1021.42 91.3729 1018.63 84.2156 1018.08 74.9335C1033.47 74.9335 1046.69 75.1013 1057.74 75.4367C1057.74 73.0705 1057.52 71.0133 1057.1 69.2652C1077.83 73.1531 1098.34 77.1777 1118.57 81.3318C1108.86 83.7832 1101.55 85.5411 1096.63 86.6054C1098.09 92.0809 1099.66 96.0111 1101.33 98.3962C1109.14 96.7085 1114.95 97.1766 1118.75 99.8006C1122.31 102.287 1125.35 108.251 1127.88 117.691L1159.9 237.206C1162.43 246.647 1162.8 253.428 1161.02 257.549C1158.99 261.533 1154.17 264.747 1146.56 267.19C1146.3 270.091 1146.91 274.28 1148.38 279.755C1159.79 276.091 1171.37 272.684 1183.13 269.534C1196.62 265.919 1208.35 263.079 1218.33 261.012C1216.86 255.536 1215.3 251.606 1213.62 249.221C1205.81 250.909 1200.13 250.509 1196.57 248.022C1192.77 245.398 1189.61 239.366 1187.08 229.926L1155.05 110.411C1152.43 100.6 1152.32 93.4524 1154.75 88.968C1186.09 95.7635 1216.62 102.871 1246.1 110.262L1272.06 207.155C1274.59 216.596 1274.96 223.377 1273.18 227.498C1271.14 231.482 1266.33 234.696 1258.72 237.139C1258.46 240.04 1259.07 244.229 1260.54 249.704C1271.95 246.04 1283.53 242.633 1295.29 239.483C1296.02 239.287 1296.74 239.094 1297.46 238.903L1188.3 292.964C1176.39 298.863 1167.46 301.199 1161.51 299.971C1155.68 298.385 1150.16 292.922 1144.94 283.581L1142.63 278.912C1137.75 276.855 1132.57 277.183 1127.09 279.896C1113.62 290.442 1093.91 302.145 1067.94 315.006C1068.88 319.309 1070.01 322.777 1071.31 325.41C1072.5 327.804 1074.42 330.695 1077.08 334.083C1074.36 333.882 1071.63 333.674 1068.89 333.46C1070 324.66 1068.68 315.275 1064.93 305.306C1056.5 304.154 1048.24 305.477 1040.17 309.276C1041.88 317.419 1042.55 324.731 1042.18 331.211C1007.9 328.131 971.633 324.174 933.906 319.696C938.589 313.585 941.53 307.353 942.727 301C944.557 292.23 941.794 283.582 934.438 275.057C929.427 269.248 923.462 265.488 916.544 263.776C909.72 261.982 902.706 262.069 895.501 264.037C888.376 266.098 881.743 269.779 875.599 275.079C869.267 280.543 864.52 286.601 861.356 293.252C858.719 298.798 857.45 304.469 857.55 310.265C839.641 307.99 821.503 305.655 803.189 303.295L803.523 302.958C810.394 296.059 816.442 290.277 821.669 285.611C819.334 283.286 816.952 281.495 814.523 280.237C810.457 283.543 807.162 285.197 804.64 285.201C802.117 285.205 799.153 283.512 795.748 280.121C793.802 278.184 791.515 275.616 788.887 272.418L744.057 217.329L847.068 259.812C849.394 258.838 851.718 257.185 854.04 254.853L814.017 147.362L865.506 189.343C868.715 191.957 871.389 194.33 873.53 196.462C878.005 200.918 880.392 204.747 880.692 207.948C880.798 211.15 879.207 214.694 875.918 218.58C877.088 220.712 878.938 223.038 881.468 225.557C885.82 220.602 890.851 215.258 896.56 209.524C902.269 203.791 907.253 199.077 911.512 195.384C909.08 192.962 906.746 191.122 904.511 189.864C901.51 192.295 898.749 193.706 896.227 194.098C893.706 194.49 890.647 193.67 887.052 191.638C883.262 189.606 878.11 185.927 871.595 180.601L814.998 133.534C814.026 132.76 812.81 131.646 811.35 130.193C807.556 126.415 805.655 122.973 805.646 119.868C805.638 116.764 807.375 113.462 810.859 109.964C809.786 107.928 807.936 105.602 805.31 102.986C802.699 106.192 799.167 110.03 794.716 114.5C791.136 118.096 787.313 121.643 783.248 125.142L827.663 241.941L715.321 193.36C712.323 196.954 708.695 200.889 704.437 205.165C700.954 208.663 697.131 212.211 692.969 215.807C695.304 218.132 697.637 219.972 699.97 221.327C703.26 218.023 706.602 216.32 709.998 216.217C713.297 216.212 716.989 218.244 721.075 222.313C722.632 223.863 723.8 225.122 724.579 226.091L772.911 284.668C777.291 289.998 780.408 294.359 782.261 297.752C782.821 298.804 783.277 299.811 783.63 300.775C734.005 294.384 683.224 287.896 632.267 281.963C634.974 278.3 637.813 274.82 640.784 271.526C639.211 267.826 636.44 264.751 632.472 262.301C625.313 270.121 618.533 274.484 612.133 275.389C605.593 276.193 598.348 273.714 590.398 267.951C579.52 260.065 573.172 250.771 571.356 240.07C569.641 229.229 572.64 217.754 580.355 205.645C599.601 219.597 615.976 231.788 629.479 242.216C633.128 237.183 635.198 232.713 635.691 228.805L588.412 194.53C597.839 183.875 607.97 177.677 618.807 175.935C629.504 174.093 640.083 176.963 650.543 184.546C657.377 189.5 661.34 195.039 662.432 201.162C663.385 207.185 660.979 214.612 655.216 223.444C659.399 226.477 663.101 228.414 666.321 229.255C673.416 219.469 679.294 212.534 683.957 208.449C676.487 195.569 666.266 184.427 653.296 175.025C636.002 162.488 619.763 157.007 604.579 158.583C589.255 160.057 576.019 168.484 564.87 183.862C553.317 199.8 549.247 215.831 552.663 231.957C555.939 247.982 566.364 262.364 583.937 275.103C584.725 275.674 585.52 276.235 586.323 276.784C536.117 271.327 486.026 266.598 436.99 263.222C439.057 261.554 441.21 259.826 443.451 258.037C460.347 244.554 474.83 233.646 486.9 225.311C480.997 217.914 475.814 212.752 471.352 209.827C463.294 216.257 455.548 218.547 448.114 216.695C440.469 214.58 431.376 206.917 420.835 193.708L356.323 112.866C345.782 99.6566 340.434 89.2222 340.278 81.5628C339.943 74.3341 343.115 67.7269 349.792 61.7411C368.653 72.5304 389.125 84.8704 411.208 98.761C421.594 105.32 428.622 110.387 432.293 113.962C435.964 117.537 437.333 122.008 436.398 127.378C435.899 132.663 432.842 140.361 427.227 150.472C430.028 154.215 435.226 158.622 442.821 163.692C453.278 146.326 474.508 113.677 506.508 65.7445C513.59 55.1378 520.13 45.3963 526.131 36.5201L526.131 115.188C526.131 123.437 524.98 129.046 522.68 132.016C520.216 134.82 515.697 136.387 509.125 136.717C508.304 139.027 507.893 142.574 507.893 147.358C517.751 146.863 527.691 146.616 537.714 146.616C549.215 146.616 559.155 146.863 567.535 147.358C567.535 142.574 567.124 139.027 566.302 136.717C559.73 136.387 555.294 134.82 552.994 132.016C550.529 129.046 549.297 123.437 549.297 115.188L549.297 10.7593C549.297 8.93727 549.334 7.26226 549.407 5.73422C563.727 6.61818 578.201 7.60065 592.803 8.67907C592.844 9.34781 592.882 10.0412 592.919 10.7593C594.069 37.3202 595.384 58.3545 596.862 73.8621C598.341 89.2047 600.641 102.238 603.763 112.961C606.72 123.519 610.91 131.768 616.332 137.707C623.233 145.131 631.284 148.843 640.484 148.843C644.099 148.843 647.467 148.266 650.589 147.111C653.711 145.956 656.175 144.636 657.983 143.151C658.475 141.172 658.722 138.615 658.722 135.48C658.722 131.851 658.393 128.386 657.736 125.087C652.15 126.076 647.056 126.571 642.456 126.571C636.87 126.571 632.352 125.747 628.901 124.097C625.286 122.282 622.329 119.395 620.029 115.436C615.757 108.012 612.389 96.876 609.924 82.0283C607.295 67.0156 605.488 43.4242 604.502 11.2542C604.496 10.9972 604.49 10.7433 604.484 10.4924C604.477 10.1763 604.471 9.8651 604.466 9.55867ZM872.896 312.207C872.984 311.713 873.09 311.218 873.215 310.722C875.178 303.635 879.596 296.717 886.469 289.97C893.111 296.953 901.25 305.938 910.884 316.924C898.359 315.396 885.691 313.819 872.896 312.207ZM918.595 45.7836C896.614 42.4351 874.552 39.2475 852.479 36.2285C852.963 39.3566 853.803 42.5865 854.998 45.9183C859.046 57.2003 864.97 64.8983 872.772 69.0123C880.413 73.1837 889.357 73.4312 899.604 69.7548C908.89 66.423 914.712 61.2417 917.068 54.2109C917.853 51.7205 918.362 48.9114 918.595 45.7836ZM1277.38 118.318C1290.64 121.824 1303.64 125.389 1316.38 129.009C1324.46 135.185 1330.71 140.704 1335.13 145.565C1340.19 145.874 1344.34 145.504 1347.58 144.455C1349.63 143.791 1352.54 142.579 1356.31 140.817C1366.13 143.843 1375.76 146.903 1385.18 149.996C1381.98 153.682 1379.12 155.97 1376.6 156.857C1373.39 158.121 1370.33 157.666 1367.41 155.492C1365.42 156.895 1363.13 159.329 1360.55 162.794C1362.9 164.18 1366.27 166.441 1370.65 169.576C1364.67 172.657 1360.43 175.498 1357.92 178.1C1362.19 187.913 1363.07 195.677 1360.56 201.392C1358.17 206.75 1351.02 212.379 1339.11 218.278L1328.13 223.712C1327.37 221.837 1326.59 220.323 1325.78 219.17C1317.97 220.858 1312.29 220.458 1308.73 217.971C1304.93 215.347 1301.76 209.315 1299.23 199.875L1277.38 118.318ZM31.3282 86.2035C35.3018 84.3728 39.6504 82.327 44.374 80.0663C52.113 76.3849 57.984 73.9633 61.9868 72.8016C66.1259 71.4359 70.2273 71.2249 74.2909 72.1687C78.3545 73.1124 83.5659 75.4126 89.925 79.0693C87.4266 76.2209 85.6094 72.3525 84.4734 67.4641C83.2527 62.8839 82.3236 55.3112 81.686 44.7458C80.0984 45.8443 78.5916 46.9644 77.167 48.1065C61.4653 60.6944 46.0033 73.4685 31.3282 86.2035ZM-11.8741 126.141C-9.3158 128.351 -6.95923 130.512 -4.80444 132.623C2.58374 132.542 10.0444 131.034 17.5778 128.101C25.0443 124.827 34.2093 120.328 45.073 114.604C58.9917 107.379 70.293 102.537 78.9769 100.077C87.6608 97.6161 95.6215 98.6549 102.859 103.193L83.8541 131.652C77.0425 141.852 70.9221 147.942 65.4932 149.921C60.2006 151.697 54.4094 150.484 48.1199 146.284C45.0619 148.667 41.6256 152.714 37.8112 158.426C47.147 163.776 58.4088 170.854 71.5966 179.661C84.9873 188.603 95.8405 196.293 104.156 202.731C107.97 197.019 110.392 192.294 111.421 188.556C105.132 184.356 101.793 179.472 101.405 173.903C101.153 168.13 104.432 160.143 111.244 149.943L130.249 121.484C137.078 126.634 140.918 133.623 141.77 142.452C142.758 151.076 142.582 163.201 141.243 178.825C139.848 190.578 139.171 200.598 139.211 208.884C139.252 217.171 140.751 224.809 143.711 231.8C154.675 236.468 167.563 243.747 182.374 253.637C185.296 251.459 188.664 247.513 192.479 241.801C185.178 236.04 180.113 230.446 177.284 225.017C174.388 219.249 172.784 212.425 172.472 204.547C172.159 196.668 172.472 183.898 173.412 166.237C173.847 157.678 173.834 151.327 173.373 147.185C173.049 142.838 171.672 138.969 169.243 135.577C166.814 132.185 162.693 128.253 156.879 123.78C160.467 124.997 164.838 125.261 169.991 124.572C174.942 123.749 183.185 121.289 194.721 117.193C207.614 112.824 216.196 110.295 220.469 109.609C224.674 108.582 228.299 109.085 231.342 111.118C233.777 112.744 234.854 115.085 234.572 118.142C234.44 120.752 232.884 125.125 229.904 131.263C213.416 146.94 203.09 161.702 198.929 175.549C193.718 193.545 196.91 209.808 208.506 224.339C220.101 238.869 235.307 246.194 254.123 246.314C272.939 246.433 294.318 239.102 318.261 224.32C314.538 230.318 312.129 237.429 311.035 245.654C310.675 249.108 310.494 253.183 310.492 257.877C258.696 257.311 209.238 259.109 163.418 264.139C-120.884 295.344 -104.159 218.41 -11.8741 126.141ZM263.306 103.833C260.648 101.38 257.6 99.007 254.164 96.7121C249.092 93.3249 244.218 91.3977 239.543 90.9304C234.867 90.4632 229.782 91.0495 224.286 92.6893C218.588 94.1936 209.733 97.1298 197.722 101.498C195.617 102.453 192.258 103.749 187.644 105.387C173.122 110.439 162.776 113.412 156.605 114.306C150.57 114.996 144.442 113.41 138.219 109.549L152.932 87.5167C159.744 77.3164 165.796 71.3286 171.089 69.5533C176.517 67.574 182.377 68.6844 188.666 72.8846C191.724 70.5019 195.16 66.4545 198.975 60.7423C189.842 55.5283 178.58 48.4502 165.189 39.508C162.617 37.7902 160.134 36.115 157.739 34.4822C160.567 34.9705 163.449 34.8772 166.387 34.2021L168.203 31.4816C174.341 22.2878 180.634 15.6783 187.082 11.6531C199.099 9.80474 211.832 8.18543 225.222 6.78865C249.419 11.1001 284.313 25.708 329.904 50.6124C321.371 58.0611 311.721 66.0813 300.955 74.6728L266.717 101.346C265.623 102.132 264.486 102.96 263.306 103.833ZM127.902 24.3643C126.718 26.687 125.872 28.7696 125.365 30.6123C131.654 34.8124 134.925 39.7989 135.177 45.5719C135.565 51.1409 132.354 59.0255 125.542 69.2258L110.828 91.2586C104.472 86.7189 100.457 81.5299 98.7815 75.6915C97.0397 69.5137 95.8212 58.818 95.126 43.6046C94.9934 41.0622 94.9055 38.8685 94.8623 37.0236C104.203 32.3337 115.267 28.1196 127.902 24.3643ZM342.821 0.279351C377.682 -0.305975 414.813 0.0348855 453.653 1.24047L470.113 12.2296C479.803 18.6984 486.441 24.0666 490.028 28.3342C493.615 32.6019 495.114 37.1612 494.526 42.0124C493.69 50.0695 489.38 59.9278 481.596 71.587C475.196 81.1736 468.435 87.8974 461.314 91.7586C456.625 94.2464 451.839 94.6098 446.957 92.8488C442.337 91.2627 434.747 87.3195 424.188 81.0193C385.687 57.6566 353.94 39.1023 328.948 25.3564C331.53 20.2638 334.929 14.0256 339.145 6.6417C340.429 4.39127 341.655 2.27049 342.821 0.279351ZM319.608 20.2753C306.731 13.3709 294.602 7.38431 283.222 2.31541C290.433 1.9303 297.777 1.59418 305.246 1.30634L306.073 1.77799C313.169 5.82912 317.482 9.48082 319.013 12.7331C320.195 15.0878 320.393 17.6018 319.608 20.2753ZM1018.08 66.0428L1039.7 66.0428C1032.68 64.7599 1025.64 63.4928 1018.58 62.2416C1018.37 63.4665 1018.2 64.7335 1018.08 66.0428ZM1556.13 224.312C1518.58 200.691 1467.1 178.077 1405.76 156.917L1404.77 158.231C1400.16 164.418 1397.83 169.32 1397.77 172.939C1397.81 176.434 1399.71 179.586 1403.48 182.394C1402.7 184.702 1401.02 187.589 1398.44 191.053C1393.37 186.697 1386.89 181.575 1379 175.687C1377.13 174.291 1375.37 172.995 1373.73 171.8C1378.85 183.657 1385.22 197.284 1392.85 212.681C1400.08 227.286 1407.61 241.594 1415.44 255.606C1408.53 259.027 1403.12 260.966 1399.19 261.42C1393.97 252.079 1388.38 246.795 1382.44 245.566C1376.61 243.981 1367.74 246.138 1355.83 252.037L1205.02 326.723C1197.66 330.367 1192.06 334.066 1188.22 337.82C1230.12 336.866 1264.95 332.329 1290.63 322.812C1336.11 305.954 1373.95 301.619 1407.45 297.783L1407.48 297.78L1407.54 297.772C1410.25 297.462 1412.94 297.155 1415.59 296.844C1414.92 294.312 1413.96 291.602 1412.71 288.715C1415.45 285.866 1420.27 282.731 1427.18 279.309C1429.21 284.077 1431.44 289.147 1433.89 294.52C1478.46 288.192 1516.06 276.27 1556.13 224.312ZM1153.95 337.857C1130.76 337.437 1105.88 336.178 1079.58 334.266C1099.4 324.27 1119.45 316.139 1139.71 309.871C1142.35 314.831 1147.1 324.16 1153.95 337.857ZM401.559 261.017C384.616 260.079 367.83 259.324 351.24 258.78L350.938 257.27C348.449 244.554 347.077 234.838 346.823 228.121C346.569 221.405 347.759 215.699 350.394 211.002C353.077 205.834 357.798 200.553 364.556 195.16L385.744 221.711C396.074 234.656 401.552 244.987 402.179 252.703C402.529 255.672 402.323 258.443 401.559 261.017ZM286.832 213.725C270.855 216.097 257.701 210.81 247.37 197.865C238.516 186.769 235.482 174.703 238.27 161.668C241.317 148.426 251.679 134.752 269.355 120.647C274.033 116.913 281.944 111.897 293.087 105.6L331.438 153.659C330.601 154.208 329.815 154.54 329.08 154.654C328.076 154.81 326.858 154.484 325.426 153.675C323.917 152.866 321.866 151.401 319.272 149.28L296.736 130.539C296.349 130.231 295.865 129.787 295.284 129.209C293.773 127.704 293.016 126.334 293.013 125.098C293.01 123.862 293.701 122.547 295.088 121.154C294.661 120.343 293.925 119.417 292.879 118.376C291.839 119.652 290.433 121.181 288.661 122.96C287.235 124.392 285.713 125.805 284.094 127.198L301.779 173.704L257.047 154.36C255.854 155.792 254.409 157.358 252.714 159.061C251.327 160.454 249.805 161.866 248.147 163.298C249.077 164.224 250.006 164.957 250.935 165.496C252.245 164.181 253.576 163.502 254.928 163.462C256.242 163.46 257.712 164.269 259.339 165.889C259.959 166.506 260.424 167.007 260.734 167.393L279.978 190.717C281.723 192.839 282.964 194.576 283.701 195.927C284.4 197.239 284.693 198.378 284.58 199.344C284.467 200.31 283.986 201.296 283.139 202.302C283.605 203.151 284.361 204.097 285.407 205.138C287.063 203.243 289.317 200.863 292.168 198C294.903 195.253 297.311 192.95 299.393 191.093C298.463 190.167 297.514 189.454 296.547 188.953C294.928 190.269 293.616 190.928 292.612 190.929C291.608 190.931 290.427 190.257 289.072 188.907C288.297 188.135 287.386 187.113 286.34 185.839L268.49 163.904L309.506 180.82C310.432 180.432 311.357 179.774 312.282 178.845L296.346 136.045L316.847 152.761C318.125 153.802 319.19 154.747 320.042 155.595C321.824 157.37 322.775 158.894 322.894 160.169C322.936 161.444 322.303 162.855 320.993 164.402C321.459 165.251 322.196 166.178 323.203 167.18C324.936 165.207 326.939 163.08 329.213 160.797C330.856 159.146 332.349 157.708 333.691 156.482L350.325 177.327C343.989 183.249 339.651 187.143 337.311 189.01C319.635 203.115 302.809 211.354 286.832 213.725ZM984.099 210.539C984.099 212.884 983.767 214.479 983.101 215.324C982.388 216.121 981.081 216.567 979.179 216.661C978.942 217.318 978.823 218.326 978.823 219.687C981.675 219.546 984.551 219.476 987.451 219.476C990.778 219.476 993.654 219.546 996.078 219.687C996.078 218.326 995.959 217.318 995.722 216.661C993.82 216.567 992.537 216.121 991.871 215.324C991.158 214.479 990.802 212.884 990.802 210.539L990.802 196.606C1001.5 196.606 1008.75 196.723 1012.55 196.958L1012.55 210.539C1012.55 212.884 1012.22 214.479 1011.55 215.324C1010.84 216.121 1009.53 216.567 1007.63 216.661C1007.39 217.318 1007.27 218.326 1007.27 219.687C1010.13 219.546 1013 219.476 1015.9 219.476C1019.23 219.476 1022.1 219.546 1024.53 219.687C1024.53 218.326 1024.41 217.318 1024.17 216.661C1022.27 216.567 1020.99 216.121 1020.32 215.324C1019.61 214.479 1019.25 212.884 1019.25 210.539L1019.25 180.843C1019.25 178.498 1019.61 176.926 1020.32 176.129C1020.99 175.284 1022.27 174.815 1024.17 174.721C1024.41 174.065 1024.53 173.056 1024.53 171.696C1021.91 171.836 1019.04 171.907 1015.9 171.907C1013 171.907 1010.13 171.836 1007.27 171.696C1007.27 173.056 1007.39 174.065 1007.63 174.721C1009.53 174.815 1010.84 175.284 1011.55 176.129C1012.22 176.926 1012.55 178.498 1012.55 180.843L1012.55 193.58L990.802 193.58L990.802 180.843C990.802 178.498 991.158 176.926 991.871 176.129C992.537 175.284 993.82 174.815 995.722 174.721C995.959 174.065 996.078 173.056 996.078 171.696C993.464 171.836 990.588 171.907 987.451 171.907C984.551 171.907 981.675 171.836 978.823 171.696C978.823 173.056 978.942 174.065 979.179 174.721C981.081 174.815 982.388 175.284 983.101 176.129C983.767 176.926 984.099 178.498 984.099 180.843L984.099 210.539ZM939.936 130.906C955.002 114.679 975.719 106.565 1002.09 106.565C1018.41 106.565 1033.1 110.435 1046.16 118.174C1058.96 125.913 1069.01 136.648 1076.29 150.379C1083.57 163.86 1087.21 178.964 1087.21 195.691C1087.21 213.416 1083.7 229.02 1076.67 242.501C1069.63 255.982 1059.72 266.468 1046.91 273.957C1034.1 281.197 1019.16 284.817 1002.09 284.817C985.512 284.817 970.822 280.948 958.016 273.208C944.958 265.469 934.913 254.859 927.882 241.378C920.6 227.896 916.959 212.668 916.959 195.691C916.959 168.729 924.618 147.134 939.936 130.906ZM1038.25 141.766C1030.71 130.282 1019.91 124.54 1005.85 124.54C996.561 124.54 988.024 127.661 980.239 133.902C972.455 140.143 966.302 149.006 961.782 160.49C957.011 171.974 954.626 185.206 954.626 200.185C954.626 220.656 958.392 236.884 965.926 248.867C973.459 260.851 984.508 266.842 999.072 266.842C1014.64 266.842 1026.95 259.977 1035.99 246.246C1044.77 232.265 1049.17 212.792 1049.17 187.827C1049.17 168.604 1045.53 153.25 1038.25 141.766ZM1236.96 177.876C1236.28 182.078 1236.4 185.106 1237.33 186.958C1238.37 188.829 1241 190.109 1245.24 190.797C1244.72 194.004 1243.98 196.494 1243.03 198.268C1240.16 198.03 1236.86 198.117 1233.11 198.53C1229.38 198.832 1226.21 199.452 1223.6 200.39C1222.28 199.608 1221.38 198.611 1220.9 197.399C1220.45 196.077 1220.48 193.812 1221 190.606C1221.18 189.5 1221.54 187.97 1222.08 186.015C1220.4 188.806 1218.13 191.104 1215.27 192.91C1210.42 195.98 1204.46 196.942 1197.39 195.794C1190.87 194.735 1186.01 192.357 1182.82 188.661C1179.73 184.982 1178.64 180.378 1179.54 174.849C1180.6 168.325 1183.78 163.508 1189.08 160.397C1194.4 157.176 1200.08 155.203 1206.11 154.481C1212.14 153.758 1218.72 153.464 1225.84 153.599C1226.94 146.854 1227.47 142.174 1227.45 139.56C1227.45 136.836 1226.88 134.474 1225.76 132.476C1223.68 128.735 1220.58 126.529 1216.45 125.858C1211.56 125.063 1207.64 126.526 1204.69 130.246C1201.85 133.985 1199.95 138.158 1198.97 142.767C1194.84 142.096 1192.08 141.25 1190.68 140.229C1190.97 139.14 1191.33 137.27 1191.76 134.616C1192.55 129.75 1192.9 125.551 1192.8 122.017C1197.53 120.401 1202.5 119.336 1207.72 118.821C1212.93 118.307 1217.61 118.385 1221.74 119.056C1229.14 120.257 1234.56 123.293 1238.01 128.166C1240.18 131.244 1241.4 135.074 1241.66 139.655C1241.94 144.127 1241.45 150.233 1240.2 157.973L1236.96 177.876ZM1224.74 160.399C1219.41 160.215 1214.93 160.338 1211.28 160.768C1207.66 161.088 1204.34 162.307 1201.32 164.427C1198.42 166.453 1196.61 169.678 1195.89 174.101C1195.27 177.971 1195.71 181.052 1197.24 183.342C1198.77 185.633 1200.89 186.999 1203.61 187.44C1206.11 187.846 1208.74 187.423 1211.51 186.17C1214.28 184.918 1216.77 182.655 1218.98 179.381C1221.29 176.125 1222.87 171.899 1223.71 166.702L1224.74 160.399ZM913.477 274.266C918.954 274.117 923.309 275.916 926.542 279.663C930.018 283.692 930.789 288.502 928.854 294.094C927.094 299.698 923.049 305.231 916.716 310.695L893.436 283.714C901.32 277.565 908.001 274.416 913.477 274.266ZM699.963 106.34C699.963 111.57 699.213 115.217 697.714 117.281C696.078 119.346 692.603 120.378 687.287 120.378C687.287 124.369 687.696 127.535 688.514 129.874C692.058 130.149 696.078 130.906 700.576 132.145C705.074 133.246 708.822 134.622 711.82 136.274C713.592 135.586 714.887 134.554 715.705 133.177C716.523 131.663 716.931 128.911 716.931 124.92C716.931 123.543 716.795 121.616 716.523 119.139C718.022 122.855 720.339 126.089 723.474 128.842C728.789 133.521 735.877 135.861 744.736 135.861C752.914 135.861 759.319 133.934 763.953 130.081C768.451 126.227 770.7 120.86 770.7 113.978C770.7 105.858 767.77 99.3894 761.909 94.5724C756.048 89.6177 749.506 86.1082 742.282 84.0437C735.059 81.9793 727.086 80.3277 718.363 79.0891C718.363 70.6937 718.635 64.9132 719.18 61.7478C719.726 58.4447 720.884 55.6921 722.656 53.49C725.927 49.3612 730.152 47.2967 735.331 47.2967C741.465 47.2967 745.962 49.8429 748.825 54.9351C751.551 60.0274 753.05 65.4638 753.322 71.2442C758.502 71.2442 762.045 70.7625 763.953 69.7991C763.817 68.4228 763.749 66.0831 763.749 62.78C763.749 56.7243 764.158 51.5632 764.976 47.2967C759.524 44.4065 753.663 42.1356 747.394 40.4841C741.124 38.8325 735.4 38.0067 730.22 38.0067C720.952 38.0067 713.729 40.6217 708.549 45.8516C705.278 49.1547 703.029 53.5588 701.803 59.064C700.576 64.4316 699.963 71.9324 699.963 81.5664L699.963 106.34ZM718.363 87.5533C724.905 88.379 730.357 89.4113 734.718 90.6499C739.08 91.751 742.896 93.8842 746.167 97.0497C749.302 100.078 750.869 104.344 750.869 109.849C750.869 114.666 749.711 118.313 747.394 120.791C745.077 123.268 742.214 124.507 738.807 124.507C735.672 124.507 732.537 123.474 729.403 121.41C726.268 119.346 723.678 116.111 721.634 111.707C719.453 107.303 718.363 101.867 718.363 95.3981L718.363 87.5533Z" fill="#BDA995"/>
</svg>
